# Blender v2.80 (sub 45) OBJ File: 'ActivationStripStraight.blend'
# www.blender.org
mtllib ActivationStripStraight.mtl
o ActivationStripStraight_Cube.001
v -0.474963 0.000000 1.000000
v -0.262885 0.240838 1.000000
v -0.415493 0.139426 1.000000
v -0.187405 0.240838 1.000000
v -0.187405 0.187153 1.000000
v -0.474963 0.000000 0.465936
v -0.474963 0.000000 0.534064
v -0.187405 0.240838 0.465936
v -0.187405 0.187153 0.465936
v -0.187405 0.187153 0.534064
v -0.262885 0.240838 0.534064
v -0.262885 0.240838 0.465936
v -0.415493 0.139426 0.534064
v -0.415493 0.139426 0.465936
v -0.496157 -0.000030 0.481934
v -0.496157 -0.000030 0.518066
v -0.187405 0.262022 0.518066
v -0.276083 0.260895 0.518066
v -0.276083 0.260895 0.481934
v -0.424917 0.162827 0.518066
v -0.424917 0.162827 0.481934
v -0.187405 0.240838 0.534064
v -0.094841 0.225684 0.481934
v -0.094841 0.225684 0.518066
v -0.145790 0.251271 0.481934
v -0.145790 0.251271 0.518066
v -0.187405 0.262022 0.481934
v -0.345226 0.199188 1.000000
v -0.345226 0.199188 0.534064
v -0.345226 0.199188 0.465936
v -0.358424 0.219244 0.518066
v -0.358424 0.219244 0.481934
v 0.474963 0.000000 1.000000
v 0.262885 0.240838 1.000000
v 0.415493 0.139426 1.000000
v 0.187405 0.240838 1.000000
v 0.187405 0.187153 1.000000
v 0.000000 0.187153 1.000000
v 0.474963 0.000000 0.465936
v 0.474963 0.000000 0.534064
v 0.187405 0.240838 0.465936
v 0.187405 0.187153 0.465936
v 0.187405 0.187153 0.534064
v 0.000000 0.187153 0.465936
v 0.000000 0.187153 0.534064
v 0.262885 0.240838 0.534064
v 0.262885 0.240838 0.465936
v 0.415493 0.139426 0.534064
v 0.415493 0.139426 0.465936
v 0.496157 -0.000030 0.481934
v 0.496157 -0.000030 0.518066
v 0.187405 0.262022 0.518066
v 0.276083 0.260895 0.518066
v 0.276083 0.260895 0.481934
v 0.424917 0.162827 0.518066
v 0.424917 0.162827 0.481934
v 0.187405 0.240838 0.534064
v 0.094841 0.225684 0.481934
v 0.094841 0.225684 0.518066
v 0.145790 0.251271 0.481934
v 0.145790 0.251271 0.518066
v 0.187405 0.262022 0.481934
v 0.000000 0.225684 0.481934
v 0.000000 0.225684 0.518066
v 0.345226 0.199188 1.000000
v 0.345226 0.199188 0.534064
v 0.345226 0.199188 0.465936
v 0.358424 0.219244 0.518066
v 0.358424 0.219244 0.481934
v -0.474963 0.000000 -1.000000
v -0.262885 0.240838 -1.000000
v -0.415493 0.139426 -1.000000
v -0.187405 0.240838 -1.000000
v -0.187405 0.187153 -1.000000
v -0.474963 0.000000 -0.465936
v -0.474963 0.000000 -0.534064
v -0.187405 0.240838 -0.465936
v -0.187405 0.187153 -0.465936
v -0.187405 0.187153 -0.534064
v -0.262885 0.240838 -0.534064
v -0.262885 0.240838 -0.465936
v -0.415493 0.139426 -0.534064
v -0.415493 0.139426 -0.465936
v -0.496157 -0.000030 -0.481934
v -0.496157 -0.000030 -0.518066
v -0.187405 0.262022 -0.518066
v -0.276083 0.260895 -0.518066
v -0.276083 0.260895 -0.481934
v -0.424917 0.162827 -0.518066
v -0.424917 0.162827 -0.481934
v -0.187405 0.240838 -0.534064
v -0.094841 0.225684 -0.481934
v -0.094841 0.225684 -0.518066
v -0.145790 0.251271 -0.481934
v -0.145790 0.251271 -0.518066
v -0.187405 0.262022 -0.481934
v -0.345226 0.199188 -1.000000
v -0.345226 0.199188 -0.534064
v -0.345226 0.199188 -0.465936
v -0.358424 0.219244 -0.518066
v -0.358424 0.219244 -0.481934
v 0.474963 0.000000 -1.000000
v 0.262885 0.240838 -1.000000
v 0.415493 0.139426 -1.000000
v 0.187405 0.240838 -1.000000
v 0.187405 0.187153 -1.000000
v 0.000000 0.187153 -1.000000
v 0.474963 0.000000 -0.465936
v 0.474963 0.000000 -0.534064
v 0.187405 0.240838 -0.465936
v 0.187405 0.187153 -0.465936
v 0.187405 0.187153 -0.534064
v 0.000000 0.187153 -0.465936
v 0.000000 0.187153 -0.534064
v 0.262885 0.240838 -0.534064
v 0.262885 0.240838 -0.465936
v 0.415493 0.139426 -0.534064
v 0.415493 0.139426 -0.465936
v 0.496157 -0.000030 -0.481934
v 0.496157 -0.000030 -0.518066
v 0.187405 0.262022 -0.518066
v 0.276083 0.260895 -0.518066
v 0.276083 0.260895 -0.481934
v 0.424917 0.162827 -0.518066
v 0.424917 0.162827 -0.481934
v 0.187405 0.240838 -0.534064
v 0.094841 0.225684 -0.481934
v 0.094841 0.225684 -0.518066
v 0.145790 0.251271 -0.481934
v 0.145790 0.251271 -0.518066
v 0.187405 0.262022 -0.481934
v 0.000000 0.225684 -0.481934
v 0.000000 0.225684 -0.518066
v 0.345226 0.199188 -1.000000
v 0.345226 0.199188 -0.534064
v 0.345226 0.199188 -0.465936
v 0.358424 0.219244 -0.518066
v 0.358424 0.219244 -0.481934
vt 0.983305 0.339028
vt 0.746791 0.300713
vt 0.983305 0.300713
vt 0.983305 0.273462
vt 0.489343 0.223124
vt 0.016901 0.250342
vt 0.016901 0.223124
vt 0.746791 0.339028
vt 0.983305 0.385868
vt 0.746791 0.385868
vt 0.760613 0.642799
vt 0.813777 0.664261
vt 0.760075 0.662737
vt 0.746791 0.432692
vt 0.983305 0.509635
vt 0.746791 0.509635
vt 0.823051 0.647199
vt 0.935717 0.665098
vt 0.017023 0.509258
vt 0.489222 0.432450
vt 0.489222 0.509258
vt 0.489222 0.300702
vt 0.017023 0.338950
vt 0.017023 0.300703
vt 0.017023 0.432450
vt 0.489222 0.385708
vt 0.696890 0.702281
vt 0.647195 0.683594
vt 0.702876 0.684536
vt 0.759800 0.686371
vt 0.813671 0.687262
vt 0.935065 0.691930
vt 0.702886 0.662003
vt 0.647382 0.660378
vt 0.697743 0.643998
vt 0.645813 0.642679
vt 0.822150 0.704701
vt 0.928441 0.709351
vt 0.759473 0.706307
vt 0.635899 0.732332
vt 0.574554 0.687195
vt 0.644856 0.701161
vt 0.637450 0.610227
vt 0.574562 0.654216
vt 0.497185 0.629054
vt 0.619604 0.683115
vt 0.620183 0.659721
vt 0.497185 0.711496
vt 0.497185 0.683621
vt 0.497185 0.657488
vt 0.983305 0.432692
vt 0.017023 0.385708
vt 0.489222 0.338949
vt 0.746791 0.223124
vt 0.983012 0.184857
vt 0.983012 0.223124
vt 0.983012 0.250341
vt 0.983012 0.138074
vt 0.746791 0.184857
vt 0.746791 0.138074
vt 0.233757 0.642799
vt 0.180593 0.664261
vt 0.171318 0.647198
vt 0.983012 0.014461
vt 0.746791 0.091309
vt 0.746791 0.014461
vt 0.058652 0.665097
vt 0.064510 0.647327
vt 0.489343 0.091309
vt 0.016901 0.014461
vt 0.489343 0.014461
vt 0.489343 0.184857
vt 0.016901 0.184857
vt 0.489343 0.138075
vt 0.016901 0.091309
vt 0.297480 0.702281
vt 0.347175 0.683594
vt 0.349515 0.701161
vt 0.234295 0.662737
vt 0.291494 0.684536
vt 0.234570 0.686371
vt 0.180699 0.687262
vt 0.059304 0.691930
vt 0.291484 0.662003
vt 0.346989 0.660378
vt 0.296627 0.643998
vt 0.348557 0.642679
vt 0.172220 0.704701
vt 0.065928 0.709352
vt 0.234897 0.706307
vt 0.358471 0.732332
vt 0.419816 0.687195
vt 0.419808 0.654216
vt 0.356920 0.610227
vt 0.374766 0.683115
vt 0.374187 0.659721
vt 0.983012 0.091309
vt 0.016901 0.138075
vt 0.737142 0.300745
vt 0.500665 0.339054
vt 0.500665 0.300745
vt 0.500665 0.273498
vt 0.500665 0.385887
vt 0.737142 0.339054
vt 0.737142 0.385887
vt 0.233757 0.847196
vt 0.180593 0.868659
vt 0.171319 0.851596
vt 0.500665 0.509635
vt 0.737142 0.432703
vt 0.737142 0.509635
vt 0.058652 0.869495
vt 0.064510 0.851725
vt 0.297480 0.906679
vt 0.347175 0.887992
vt 0.349515 0.905559
vt 0.234295 0.867135
vt 0.291494 0.888934
vt 0.234570 0.890769
vt 0.180699 0.891659
vt 0.059304 0.896328
vt 0.291484 0.866401
vt 0.346989 0.864776
vt 0.296628 0.848396
vt 0.348557 0.847077
vt 0.172220 0.909099
vt 0.065928 0.913749
vt 0.234897 0.910705
vt 0.358471 0.936730
vt 0.419817 0.891593
vt 0.497185 0.915894
vt 0.419808 0.858614
vt 0.356920 0.814625
vt 0.497185 0.833451
vt 0.374766 0.887513
vt 0.374187 0.864119
vt 0.497185 0.888019
vt 0.497185 0.861886
vt 0.500665 0.432703
vt 0.500922 0.184857
vt 0.737142 0.223124
vt 0.500922 0.223124
vt 0.500921 0.250341
vt 0.737142 0.184857
vt 0.500922 0.138074
vt 0.737142 0.138074
vt 0.760613 0.847197
vt 0.813777 0.868659
vt 0.760076 0.867135
vt 0.737142 0.091309
vt 0.500922 0.014461
vt 0.737142 0.014461
vt 0.823052 0.851596
vt 0.935717 0.869495
vt 0.696890 0.906679
vt 0.647195 0.887992
vt 0.702876 0.888934
vt 0.759800 0.890769
vt 0.813671 0.891659
vt 0.935065 0.896328
vt 0.702887 0.866401
vt 0.647382 0.864776
vt 0.697743 0.848396
vt 0.645814 0.847077
vt 0.822150 0.909099
vt 0.912888 0.916277
vt 0.759473 0.910705
vt 0.635899 0.936730
vt 0.574554 0.891593
vt 0.644856 0.905559
vt 0.637450 0.814625
vt 0.574563 0.858614
vt 0.619604 0.887513
vt 0.620183 0.864119
vt 0.500922 0.091309
vt 0.489222 0.273498
vt 0.017023 0.273499
vt 0.746791 0.273462
vt 0.489343 0.250341
vt 0.929860 0.647327
vt 0.746791 0.250341
vt 0.737142 0.273498
vt 0.737142 0.250341
vt 0.929860 0.851725
vt 0.000000 0.232968
vt 0.500000 0.000000
vt 0.500000 0.232968
vt 0.500000 0.732968
vt 0.000000 0.267032
vt 0.500000 0.267032
vt 1.000000 0.232968
vt 1.000000 0.732968
vt 1.000000 0.267032
vt 0.500000 1.000000
vt 0.000000 0.767032
vt 0.500000 0.767032
vt 1.000000 0.767032
vt 0.000000 0.000000
vt 0.000000 0.732968
vt 1.000000 0.000000
vt 0.000000 1.000000
vt 1.000000 1.000000
vn -0.2320 0.9727 0.0000
vn 0.0000 1.0000 0.0000
vn 1.0000 0.0000 0.0000
vn 0.7498 0.0687 0.6581
vn 0.4328 0.3804 0.8173
vn -0.4328 0.3804 0.8173
vn -0.7498 0.0687 -0.6581
vn -0.4328 0.3804 -0.8173
vn -0.5535 0.8329 0.0000
vn -0.3067 0.4618 -0.8323
vn -0.7133 0.5524 -0.4314
vn -0.4916 0.7408 -0.4579
vn -0.8053 0.5928 0.0000
vn -0.9198 0.3923 0.0000
vn -0.5210 0.3272 -0.7884
vn -0.8502 0.3692 -0.3754
vn -0.1102 0.5723 0.8126
vn 0.1074 0.8969 0.4289
vn -0.2245 0.8710 0.4369
vn -0.4916 0.7408 0.4579
vn -0.7133 0.5524 0.4314
vn -0.8502 0.3692 0.3754
vn -0.2245 0.8710 -0.4369
vn 0.1074 0.8969 -0.4289
vn -0.1102 0.5723 -0.8126
vn 0.4328 0.3804 -0.8173
vn -0.5210 0.3272 0.7884
vn -0.5837 0.2490 0.7728
vn -0.3067 0.4618 0.8323
vn 0.1615 0.7692 0.6183
vn 0.7498 0.0687 -0.6581
vn 0.1615 0.7692 -0.6183
vn 0.0000 0.3835 -0.9236
vn 0.3239 0.8173 0.4766
vn 0.3239 0.8173 -0.4766
vn 0.0000 0.3835 0.9236
vn 0.0000 0.8317 0.5552
vn 0.0000 0.8317 -0.5552
vn 0.2320 0.9727 0.0000
vn -0.7498 0.0687 0.6581
vn -1.0000 0.0000 0.0000
vn 0.5535 0.8329 0.0000
vn 0.3067 0.4618 -0.8323
vn 0.7133 0.5524 -0.4314
vn 0.5210 0.3272 -0.7884
vn 0.9198 0.3923 0.0000
vn 0.8053 0.5928 0.0000
vn 0.8502 0.3692 -0.3754
vn 0.5837 0.2490 -0.7728
vn 0.1102 0.5723 0.8126
vn -0.1074 0.8969 0.4289
vn 0.4916 0.7408 -0.4579
vn 0.2245 0.8710 0.4369
vn 0.4916 0.7408 0.4579
vn 0.7133 0.5524 0.4314
vn 0.8502 0.3692 0.3754
vn 0.2245 0.8710 -0.4369
vn -0.1074 0.8969 -0.4289
vn 0.1102 0.5723 -0.8126
vn 0.5210 0.3272 0.7884
vn 0.5837 0.2490 0.7728
vn 0.3067 0.4618 0.8323
vn -0.1615 0.7692 0.6183
vn -0.1615 0.7692 -0.6183
vn -0.3239 0.8173 0.4766
vn -0.3239 0.8173 -0.4766
vn -0.5837 0.2490 -0.7728
usemtl Border
s 1
f 11/1/1 4/2/2 22/3/2
f 4/2/3 10/4/4 22/3/5
f 110/5/6 42/6/7 41/7/8
f 2/8/1 29/9/9 28/10/9
f 30/11/10 21/12/11 32/13/12
f 3/14/13 7/15/14 1/16/14
f 14/17/15 15/18/16 21/12/11
f 6/19/14 83/20/13 75/21/14
f 77/22/2 12/23/1 8/24/2
f 14/25/13 99/26/9 83/20/13
f 11/27/17 17/28/18 18/29/19
f 18/29/19 32/13/12 31/30/20
f 20/31/21 15/18/16 16/32/22
f 19/33/23 17/28/18 27/34/24
f 12/35/25 27/34/24 8/36/26
f 13/37/27 16/32/22 7/38/28
f 29/39/29 18/29/19 31/30/20
f 10/40/4 24/41/30 22/42/5
f 9/43/31 23/44/32 44/45/33
f 27/34/24 26/46/34 25/47/35
f 22/42/5 26/46/34 17/28/18
f 8/36/26 25/47/35 23/44/32
f 24/41/30 45/48/36 64/49/37
f 44/45/33 23/44/32 63/50/38
f 29/39/29 20/31/21 13/37/27
f 23/44/32 64/49/37 63/50/38
f 31/30/20 21/12/11 20/31/21
f 26/46/34 23/44/32 25/47/35
f 30/11/10 19/33/23 12/35/25
f 28/10/9 13/51/13 3/14/13
f 30/52/9 81/53/1 99/26/9
f 36/54/2 46/55/39 57/56/2
f 43/57/40 36/54/41 57/56/6
f 66/58/42 34/59/39 65/60/42
f 67/61/43 56/62/44 49/63/45
f 40/64/46 35/65/47 33/66/46
f 49/63/45 50/67/48 39/68/49
f 118/69/47 39/70/46 108/71/46
f 116/72/39 41/7/2 47/73/39
f 136/74/42 49/75/47 118/69/47
f 46/76/50 52/77/51 57/78/6
f 69/79/52 53/80/53 68/81/54
f 50/67/48 55/82/55 51/83/56
f 52/77/51 54/84/57 62/85/58
f 62/85/58 47/86/59 41/87/8
f 51/83/56 48/88/60 40/89/61
f 66/90/62 53/80/53 46/76/50
f 43/91/40 59/92/63 45/48/36
f 58/93/64 42/94/7 44/45/33
f 61/95/65 62/85/58 60/96/66
f 57/78/6 61/95/65 59/92/63
f 60/96/66 41/87/8 58/93/64
f 59/92/63 64/49/37 45/48/36
f 44/45/33 63/50/38 58/93/64
f 55/82/55 66/90/62 48/88/60
f 64/49/37 58/93/64 63/50/38
f 56/62/44 68/81/54 55/82/55
f 58/93/64 61/95/65 60/96/66
f 54/84/57 67/61/43 47/86/59
f 48/97/47 65/60/42 35/65/47
f 116/72/39 67/98/42 136/74/42
f 73/99/2 80/100/1 91/101/2
f 79/102/31 73/99/3 91/101/26
f 98/103/9 71/104/1 97/105/9
f 99/106/29 90/107/21 83/108/27
f 76/109/14 72/110/13 70/111/14
f 83/108/27 84/112/22 75/113/28
f 80/114/25 86/115/24 91/116/26
f 101/117/20 87/118/23 100/119/12
f 84/112/22 89/120/11 85/121/16
f 86/115/24 88/122/19 96/123/18
f 96/123/18 81/124/17 77/125/5
f 85/121/16 82/126/15 76/127/67
f 98/128/10 87/118/23 80/114/25
f 79/129/31 93/130/32 114/131/33
f 92/132/30 78/133/4 113/134/36
f 95/135/35 96/123/18 94/136/34
f 91/116/26 95/135/35 93/130/32
f 94/136/34 77/125/5 92/132/30
f 93/130/32 133/137/38 114/131/33
f 113/134/36 132/138/37 92/132/30
f 89/120/11 98/128/10 82/126/15
f 133/137/38 92/132/30 132/138/37
f 90/107/21 100/119/12 89/120/11
f 92/132/30 95/135/35 94/136/34
f 88/122/19 99/106/29 81/124/17
f 82/139/13 97/105/9 72/110/13
f 115/140/39 105/141/2 126/142/2
f 105/141/41 112/143/7 126/142/8
f 103/144/39 135/145/42 134/146/42
f 136/147/62 125/148/55 138/149/54
f 104/150/47 109/151/46 102/152/46
f 118/153/60 119/154/56 125/148/55
f 115/155/59 121/156/58 122/157/57
f 122/157/57 138/149/54 137/158/52
f 124/159/44 119/154/56 120/160/48
f 123/161/53 121/156/58 131/162/51
f 116/163/50 131/162/51 110/164/6
f 117/165/45 120/160/48 109/166/49
f 135/167/43 122/157/57 137/158/52
f 112/168/7 128/169/64 126/170/8
f 111/171/40 127/172/63 113/134/36
f 131/162/51 130/173/66 129/174/65
f 126/170/8 130/173/66 121/156/58
f 110/164/6 129/174/65 127/172/63
f 128/169/64 114/131/33 133/137/38
f 113/134/36 127/172/63 132/138/37
f 135/167/43 124/159/44 117/165/45
f 127/172/63 133/137/38 132/138/37
f 137/158/52 125/148/55 124/159/44
f 130/173/66 127/172/63 129/174/65
f 136/147/62 123/161/53 116/163/50
f 134/146/42 117/175/47 104/150/47
f 78/176/4 8/24/26 9/177/31
f 11/1/1 2/8/1 4/2/2
f 4/2/3 5/178/3 10/4/4
f 110/5/6 111/179/40 42/6/7
f 2/8/1 11/1/1 29/9/9
f 30/11/10 14/17/15 21/12/11
f 3/14/13 13/51/13 7/15/14
f 14/17/15 6/180/67 15/18/16
f 6/19/14 14/25/13 83/20/13
f 77/22/2 81/53/1 12/23/1
f 14/25/13 30/52/9 99/26/9
f 11/27/17 22/42/5 17/28/18
f 18/29/19 19/33/23 32/13/12
f 20/31/21 21/12/11 15/18/16
f 19/33/23 18/29/19 17/28/18
f 12/35/25 19/33/23 27/34/24
f 13/37/27 20/31/21 16/32/22
f 29/39/29 11/27/17 18/29/19
f 10/40/4 45/48/36 24/41/30
f 9/43/31 8/36/26 23/44/32
f 27/34/24 17/28/18 26/46/34
f 22/42/5 24/41/30 26/46/34
f 8/36/26 27/34/24 25/47/35
f 29/39/29 31/30/20 20/31/21
f 23/44/32 24/41/30 64/49/37
f 31/30/20 32/13/12 21/12/11
f 26/46/34 24/41/30 23/44/32
f 30/11/10 32/13/12 19/33/23
f 28/10/9 29/9/9 13/51/13
f 30/52/9 12/23/1 81/53/1
f 36/54/2 34/59/39 46/55/39
f 43/57/40 37/181/41 36/54/41
f 66/58/42 46/55/39 34/59/39
f 67/61/43 69/79/52 56/62/44
f 40/64/46 48/97/47 35/65/47
f 49/63/45 56/62/44 50/67/48
f 118/69/47 49/75/47 39/70/46
f 116/72/39 110/5/2 41/7/2
f 136/74/42 67/98/42 49/75/47
f 46/76/50 53/80/53 52/77/51
f 69/79/52 54/84/57 53/80/53
f 50/67/48 56/62/44 55/82/55
f 52/77/51 53/80/53 54/84/57
f 62/85/58 54/84/57 47/86/59
f 51/83/56 55/82/55 48/88/60
f 66/90/62 68/81/54 53/80/53
f 43/91/40 57/78/6 59/92/63
f 58/93/64 41/87/8 42/94/7
f 61/95/65 52/77/51 62/85/58
f 57/78/6 52/77/51 61/95/65
f 60/96/66 62/85/58 41/87/8
f 55/82/55 68/81/54 66/90/62
f 64/49/37 59/92/63 58/93/64
f 56/62/44 69/79/52 68/81/54
f 58/93/64 59/92/63 61/95/65
f 54/84/57 69/79/52 67/61/43
f 48/97/47 66/58/42 65/60/42
f 116/72/39 47/73/39 67/98/42
f 73/99/2 71/104/1 80/100/1
f 79/102/31 74/182/3 73/99/3
f 98/103/9 80/100/1 71/104/1
f 99/106/29 101/117/20 90/107/21
f 76/109/14 82/139/13 72/110/13
f 83/108/27 90/107/21 84/112/22
f 80/114/25 87/118/23 86/115/24
f 101/117/20 88/122/19 87/118/23
f 84/112/22 90/107/21 89/120/11
f 86/115/24 87/118/23 88/122/19
f 96/123/18 88/122/19 81/124/17
f 85/121/16 89/120/11 82/126/15
f 98/128/10 100/119/12 87/118/23
f 79/129/31 91/116/26 93/130/32
f 92/132/30 77/125/5 78/133/4
f 95/135/35 86/115/24 96/123/18
f 91/116/26 86/115/24 95/135/35
f 94/136/34 96/123/18 77/125/5
f 89/120/11 100/119/12 98/128/10
f 133/137/38 93/130/32 92/132/30
f 90/107/21 101/117/20 100/119/12
f 92/132/30 93/130/32 95/135/35
f 88/122/19 101/117/20 99/106/29
f 82/139/13 98/103/9 97/105/9
f 115/140/39 103/144/39 105/141/2
f 105/141/41 106/183/41 112/143/7
f 103/144/39 115/140/39 135/145/42
f 136/147/62 118/153/60 125/148/55
f 104/150/47 117/175/47 109/151/46
f 118/153/60 108/184/61 119/154/56
f 115/155/59 126/170/8 121/156/58
f 122/157/57 123/161/53 138/149/54
f 124/159/44 125/148/55 119/154/56
f 123/161/53 122/157/57 121/156/58
f 116/163/50 123/161/53 131/162/51
f 117/165/45 124/159/44 120/160/48
f 135/167/43 115/155/59 122/157/57
f 112/168/7 114/131/33 128/169/64
f 111/171/40 110/164/6 127/172/63
f 131/162/51 121/156/58 130/173/66
f 126/170/8 128/169/64 130/173/66
f 110/164/6 131/162/51 129/174/65
f 135/167/43 137/158/52 124/159/44
f 127/172/63 128/169/64 133/137/38
f 137/158/52 138/149/54 125/148/55
f 130/173/66 128/169/64 127/172/63
f 136/147/62 138/149/54 123/161/53
f 134/146/42 135/145/42 117/175/47
f 78/176/4 77/22/5 8/24/26
usemtl Light
f 10/185/2 38/186/2 45/187/2
f 113/188/2 9/189/2 44/190/2
f 38/186/2 43/191/2 45/187/2
f 111/192/2 44/190/2 42/193/2
f 107/194/2 79/195/2 114/196/2
f 112/197/2 107/194/2 114/196/2
f 10/185/2 5/198/2 38/186/2
f 113/188/2 78/199/2 9/189/2
f 38/186/2 37/200/2 43/191/2
f 111/192/2 113/188/2 44/190/2
f 107/194/2 74/201/2 79/195/2
f 112/197/2 106/202/2 107/194/2
