# Blender v2.80 (sub 45) OBJ File: 'ActivationStripStraight.blend'
# www.blender.org
mtllib ActivationStripBend.mtl
o ActivationStripBend_Cube.000
v -0.474963 0.000000 2.000000
v -0.262885 0.240838 2.000000
v -0.415493 0.139426 2.000000
v -0.187405 0.240838 2.000000
v -0.187405 0.187153 2.000000
v -0.474963 0.000000 0.730864
v -0.474963 0.000000 0.837731
v -0.187405 0.240838 0.730864
v -0.187405 0.187153 0.730864
v -0.187405 0.187153 0.837731
v -0.262885 0.240838 0.837731
v -0.262885 0.240838 0.730864
v -0.415493 0.139426 0.837731
v -0.415493 0.139426 0.730864
v -0.496157 -0.000030 0.755959
v -0.496157 -0.000030 0.812636
v -0.187405 0.262022 0.812636
v -0.276083 0.260895 0.812636
v -0.276083 0.260895 0.755959
v -0.424917 0.162827 0.812636
v -0.424917 0.162827 0.755959
v -0.187405 0.240838 0.837731
v -0.094841 0.225684 0.755959
v -0.094841 0.225684 0.812636
v -0.145790 0.251271 0.755959
v -0.145790 0.251271 0.812636
v -0.187405 0.262022 0.755959
v -0.345226 0.199188 2.000000
v -0.345226 0.199188 0.837731
v -0.345226 0.199188 0.730864
v -0.358424 0.219244 0.812636
v -0.358424 0.219244 0.755959
v 0.474963 0.000000 2.000000
v 0.262885 0.240838 2.000000
v 0.415493 0.139426 2.000000
v 0.187405 0.240838 2.000000
v 0.187405 0.187153 2.000000
v 0.000000 0.187153 2.000000
v 0.474963 0.000000 0.730864
v 0.474963 0.000000 0.837731
v 0.187405 0.240838 0.730864
v 0.187405 0.187153 0.730864
v 0.187405 0.187153 0.837731
v 0.000000 0.187153 0.730864
v 0.000000 0.187153 0.837731
v 0.262885 0.240838 0.837731
v 0.262885 0.240838 0.730864
v 0.415493 0.139426 0.837731
v 0.415493 0.139426 0.730864
v 0.496157 -0.000030 0.755959
v 0.496157 -0.000030 0.812636
v 0.187405 0.262022 0.812636
v 0.276083 0.260895 0.812636
v 0.276083 0.260895 0.755959
v 0.424917 0.162827 0.812636
v 0.424917 0.162827 0.755959
v 0.187405 0.240838 0.837731
v 0.094841 0.225684 0.755959
v 0.094841 0.225684 0.812636
v 0.145790 0.251271 0.755959
v 0.145790 0.251271 0.812636
v 0.187405 0.262022 0.755959
v 0.000000 0.225684 0.755959
v 0.000000 0.225684 0.812636
v 0.345226 0.199188 2.000000
v 0.345226 0.199188 0.837731
v 0.345226 0.199188 0.730864
v 0.358424 0.219244 0.812636
v 0.358424 0.219244 0.755959
v 2.000000 0.000000 -0.474963
v 2.000000 0.240838 -0.262885
v 2.000000 0.139426 -0.415493
v 2.000000 0.240838 -0.187405
v 2.000000 0.187153 -0.187405
v 0.730865 0.000000 -0.474963
v 0.837731 0.000000 -0.474963
v 0.730864 0.240838 -0.187405
v 0.730864 0.187153 -0.187405
v 0.837731 0.187153 -0.187405
v 0.837731 0.240838 -0.262885
v 0.730864 0.240838 -0.262885
v 0.837731 0.139426 -0.415493
v 0.730864 0.139426 -0.415493
v 0.755958 -0.000030 -0.496157
v 0.812636 -0.000030 -0.496157
v 0.812636 0.262022 -0.187405
v 0.812636 0.260895 -0.276083
v 0.755959 0.260895 -0.276083
v 0.812636 0.162827 -0.424917
v 0.755958 0.162827 -0.424917
v 0.837731 0.240838 -0.187405
v 0.755959 0.225684 -0.094841
v 0.812636 0.225684 -0.094841
v 0.755959 0.251271 -0.145790
v 0.812636 0.251271 -0.145790
v 0.755959 0.262022 -0.187405
v 2.000000 0.199188 -0.345226
v 0.837731 0.199188 -0.345226
v 0.730864 0.199188 -0.345226
v 0.812636 0.219244 -0.358424
v 0.755959 0.219244 -0.358424
v 2.000000 0.000000 0.474963
v 2.000000 0.240838 0.262885
v 2.000000 0.139426 0.415493
v 2.000000 0.240838 0.187405
v 2.000000 0.187153 0.187405
v 2.000000 0.187153 0.000000
v 0.730864 0.000000 0.474963
v 0.837731 0.000000 0.474963
v 0.730864 0.240838 0.187405
v 0.730864 0.187153 0.187405
v 0.837731 0.187153 0.187405
v 0.730864 0.187153 0.000000
v 0.837731 0.187153 0.000000
v 0.837731 0.240838 0.262885
v 0.730864 0.240838 0.262885
v 0.837731 0.139426 0.415493
v 0.730864 0.139426 0.415493
v 0.755959 -0.000030 0.496157
v 0.812636 -0.000030 0.496157
v 0.812636 0.262022 0.187405
v 0.812636 0.260895 0.276083
v 0.755959 0.260895 0.276083
v 0.812636 0.162827 0.424917
v 0.755959 0.162827 0.424917
v 0.837731 0.240838 0.187405
v 0.755959 0.225684 0.094841
v 0.812636 0.225684 0.094841
v 0.755959 0.251271 0.145790
v 0.812636 0.251271 0.145790
v 0.755959 0.262022 0.187405
v 0.755959 0.225684 0.000000
v 0.812636 0.225684 0.000000
v 2.000000 0.199188 0.345226
v 0.837731 0.199188 0.345226
v 0.730864 0.199188 0.345226
v 0.812636 0.219244 0.358424
v 0.755959 0.219244 0.358424
v 0.637732 0.240838 -0.262885
v -0.262885 0.240838 0.637732
v 0.637732 0.139426 -0.415493
v -0.415493 0.139426 0.637732
v -0.474963 0.000000 0.637732
v 0.637732 0.000000 -0.474963
v -0.187405 0.240838 0.637732
v 0.637732 0.240838 -0.187405
v -0.187405 0.187153 0.637732
v 0.637732 0.187153 -0.187405
v 0.000000 0.187153 0.637732
v 0.637732 0.187153 0.000000
v 0.637732 0.199188 -0.345226
v -0.345226 0.199188 0.637732
v 0.637732 0.240838 0.262885
v 0.262885 0.240838 0.637732
v 0.637732 0.139426 0.415493
v 0.415493 0.139426 0.637732
v 0.474963 0.000000 0.637732
v 0.637732 0.000000 0.474963
v 0.187405 0.240838 0.637732
v 0.637732 0.240838 0.187405
v 0.187405 0.187153 0.637732
v 0.637732 0.187153 0.187405
v 0.637732 0.199188 0.345226
v 0.345226 0.199188 0.637732
vt 0.983305 0.339028
vt 0.746791 0.300713
vt 0.983305 0.300713
vt 0.983305 0.273462
vt 0.489343 0.223124
vt 0.331862 0.250341
vt 0.331862 0.223124
vt 0.746791 0.339028
vt 0.983305 0.385868
vt 0.746791 0.385868
vt 0.760613 0.642799
vt 0.813777 0.664261
vt 0.760075 0.662737
vt 0.746791 0.432692
vt 0.983305 0.509635
vt 0.746791 0.509635
vt 0.823051 0.647199
vt 0.935717 0.665098
vt 0.017023 0.509258
vt 0.174422 0.432450
vt 0.174422 0.509258
vt 0.331822 0.300702
vt 0.489222 0.338949
vt 0.331822 0.338950
vt 0.017023 0.432450
vt 0.174422 0.385708
vt 0.696890 0.702281
vt 0.647195 0.683594
vt 0.702876 0.684536
vt 0.759800 0.686371
vt 0.813671 0.687262
vt 0.935065 0.691930
vt 0.702886 0.662003
vt 0.647382 0.660378
vt 0.697743 0.643998
vt 0.645813 0.642679
vt 0.822150 0.704701
vt 0.928441 0.709351
vt 0.759473 0.706307
vt 0.635899 0.732332
vt 0.574554 0.687195
vt 0.644856 0.701161
vt 0.637450 0.610227
vt 0.574562 0.654216
vt 0.497185 0.629054
vt 0.619604 0.683115
vt 0.620183 0.659721
vt 0.497185 0.711496
vt 0.497185 0.683621
vt 0.497185 0.657488
vt 0.983305 0.432692
vt 0.017023 0.385708
vt 0.174422 0.338950
vt 0.746791 0.223124
vt 0.983012 0.184857
vt 0.983012 0.223124
vt 0.983012 0.250341
vt 0.983012 0.138074
vt 0.746791 0.184857
vt 0.746791 0.138074
vt 0.233757 0.642799
vt 0.180593 0.664261
vt 0.171318 0.647198
vt 0.983012 0.014461
vt 0.746791 0.091309
vt 0.746791 0.014461
vt 0.058652 0.665097
vt 0.064510 0.647327
vt 0.174382 0.091309
vt 0.016901 0.014461
vt 0.174382 0.014461
vt 0.489343 0.184857
vt 0.331862 0.184857
vt 0.174382 0.138075
vt 0.016901 0.091309
vt 0.297480 0.702281
vt 0.347175 0.683594
vt 0.349515 0.701161
vt 0.234295 0.662737
vt 0.291494 0.684536
vt 0.234570 0.686371
vt 0.180699 0.687262
vt 0.059304 0.691930
vt 0.291484 0.662003
vt 0.346989 0.660378
vt 0.296627 0.643998
vt 0.348557 0.642679
vt 0.172220 0.704701
vt 0.065928 0.709352
vt 0.234897 0.706307
vt 0.358471 0.732332
vt 0.419816 0.687195
vt 0.419808 0.654216
vt 0.356920 0.610227
vt 0.374766 0.683115
vt 0.374187 0.659721
vt 0.983012 0.091309
vt 0.174382 0.184857
vt 0.016901 0.138075
vt 0.737142 0.300745
vt 0.500665 0.339054
vt 0.500665 0.300745
vt 0.500665 0.273498
vt 0.737142 0.385887
vt 0.737142 0.339054
vt 0.233757 0.847196
vt 0.180593 0.868659
vt 0.171319 0.851596
vt 0.500665 0.509635
vt 0.737142 0.432703
vt 0.737142 0.509635
vt 0.058652 0.869495
vt 0.064510 0.851725
vt 0.297480 0.906679
vt 0.347175 0.887992
vt 0.349515 0.905559
vt 0.234570 0.890769
vt 0.291484 0.866401
vt 0.291494 0.888934
vt 0.180699 0.891659
vt 0.059304 0.896328
vt 0.346989 0.864776
vt 0.296628 0.848396
vt 0.348557 0.847077
vt 0.172220 0.909099
vt 0.065928 0.913749
vt 0.234897 0.910705
vt 0.358471 0.936730
vt 0.419817 0.891593
vt 0.497185 0.915894
vt 0.419808 0.858614
vt 0.356920 0.814625
vt 0.497185 0.833451
vt 0.374187 0.864119
vt 0.374766 0.887513
vt 0.497185 0.888019
vt 0.497185 0.861886
vt 0.234295 0.867135
vt 0.500665 0.432703
vt 0.500922 0.184857
vt 0.737142 0.223124
vt 0.500922 0.223124
vt 0.500921 0.250341
vt 0.737142 0.184857
vt 0.500922 0.138074
vt 0.737142 0.138074
vt 0.760613 0.847197
vt 0.813777 0.868659
vt 0.760076 0.867135
vt 0.737142 0.091309
vt 0.500922 0.014461
vt 0.737142 0.014461
vt 0.823052 0.851596
vt 0.935717 0.869495
vt 0.696890 0.906679
vt 0.647195 0.887992
vt 0.702876 0.888934
vt 0.759800 0.890769
vt 0.813671 0.891659
vt 0.935065 0.896328
vt 0.702887 0.866401
vt 0.647382 0.864776
vt 0.697743 0.848396
vt 0.645814 0.847077
vt 0.822150 0.909099
vt 0.912888 0.916277
vt 0.759473 0.910705
vt 0.635899 0.936730
vt 0.574554 0.891593
vt 0.644856 0.905559
vt 0.637450 0.814625
vt 0.574563 0.858614
vt 0.619604 0.887513
vt 0.620183 0.864119
vt 0.500922 0.091309
vt 0.489222 0.273498
vt 0.331822 0.273499
vt 0.174422 0.273499
vt 0.017023 0.300703
vt 0.017023 0.273499
vt 0.174422 0.300702
vt 0.331862 0.138075
vt 0.489343 0.138075
vt 0.331862 0.091309
vt 0.489343 0.091309
vt 0.016901 0.223124
vt 0.016901 0.184857
vt 0.174382 0.223124
vt 0.489343 0.014461
vt 0.331862 0.014461
vt 0.489222 0.385708
vt 0.331822 0.385708
vt 0.331822 0.432450
vt 0.489222 0.432450
vt 0.017023 0.338950
vt 0.331822 0.509258
vt 0.489222 0.509258
vt 0.016901 0.250342
vt 0.174382 0.250341
vt 0.746791 0.273462
vt 0.489343 0.250341
vt 0.929860 0.647327
vt 0.489222 0.300702
vt 0.746791 0.250341
vt 0.737142 0.273498
vt 0.500665 0.385887
vt 0.737142 0.250341
vt 0.929860 0.851725
vt 0.022854 0.333671
vt 0.499830 0.014118
vt 0.499830 0.333671
vt 0.502993 0.608396
vt 0.026017 0.634002
vt 0.026016 0.608396
vt 0.976806 0.333671
vt 0.979969 0.608396
vt 0.502993 0.634002
vt 0.502993 0.982937
vt 0.026017 0.663384
vt 0.502993 0.663384
vt 0.979969 0.663384
vt 0.976806 0.388658
vt 0.499830 0.363052
vt 0.976806 0.363052
vt 0.499830 0.388658
vt 0.022854 0.363052
vt 0.022854 0.388658
vt 0.022853 0.014118
vt 0.976806 0.014118
vt 0.979969 0.634002
vt 0.026017 0.982937
vt 0.979969 0.982937
vn -0.2320 0.9727 0.0000
vn 0.0000 1.0000 0.0000
vn 1.0000 0.0000 0.0000
vn 0.7710 0.1031 0.6284
vn 0.4904 0.4828 0.7255
vn -0.7255 0.4828 -0.4904
vn -0.3827 0.0000 -0.9239
vn -0.5535 0.8329 0.0000
vn -0.3997 0.6017 -0.6915
vn -0.7441 0.5764 -0.3378
vn -0.5152 0.7763 -0.3632
vn -0.8053 0.5928 0.0000
vn -0.9198 0.3923 0.0000
vn -0.6463 0.4198 -0.6372
vn -0.8774 0.3806 -0.2921
vn -0.7738 0.5427 -0.3266
vn -0.8691 0.3707 -0.3274
vn 0.0000 0.9727 -0.2320
vn -0.1572 0.9478 -0.2774
vn -0.5509 0.7934 -0.2587
vn -0.1481 0.7309 0.6662
vn 0.1124 0.9367 0.3315
vn -0.2344 0.9090 0.3446
vn -0.5152 0.7763 0.3632
vn -0.7441 0.5764 0.3378
vn -0.8774 0.3806 0.2921
vn -0.2344 0.9090 -0.3446
vn 0.1124 0.9367 -0.3315
vn -0.1481 0.7309 -0.6662
vn 0.4904 0.4828 -0.7255
vn -0.6463 0.4198 0.6372
vn -0.7266 0.3099 0.6133
vn -0.3997 0.6017 0.6915
vn 0.1702 0.8243 0.5400
vn 0.7710 0.1031 -0.6284
vn 0.1702 0.8243 -0.5400
vn 0.0000 0.5457 -0.8380
vn 0.3418 0.8582 0.3829
vn 0.3418 0.8582 -0.3829
vn 0.0000 0.5457 0.8380
vn 0.0000 0.8791 0.4766
vn 0.0000 0.8791 -0.4766
vn -0.2774 0.9478 -0.1572
vn 0.2320 0.9727 0.0000
vn -0.7710 0.1031 0.6284
vn -1.0000 0.0000 0.0000
vn -0.4904 0.4828 0.7255
vn 0.5535 0.8329 0.0000
vn 0.3997 0.6017 -0.6915
vn 0.7441 0.5764 -0.3378
vn 0.6463 0.4198 -0.6372
vn 0.9198 0.3923 0.0000
vn 0.8053 0.5928 0.0000
vn 0.8774 0.3806 -0.2921
vn 0.7266 0.3099 -0.6133
vn 0.7395 0.5840 0.3347
vn 0.8458 0.3608 0.3930
vn -0.0000 0.9727 0.2320
vn 0.0593 0.9829 0.1745
vn 0.5181 0.8214 0.2384
vn 0.1481 0.7309 0.6662
vn -0.1124 0.9367 0.3315
vn 0.5152 0.7763 -0.3632
vn 0.2344 0.9090 0.3446
vn 0.5152 0.7763 0.3632
vn 0.7441 0.5764 0.3378
vn 0.8774 0.3806 0.2921
vn 0.2344 0.9090 -0.3446
vn -0.1124 0.9367 -0.3315
vn 0.1481 0.7309 -0.6662
vn -0.4904 0.4828 -0.7255
vn 0.6463 0.4198 0.6372
vn 0.7266 0.3099 0.6133
vn 0.3997 0.6017 0.6915
vn -0.1702 0.8243 0.5400
vn -0.1702 0.8243 -0.5400
vn -0.7710 0.1031 -0.6284
vn -0.3418 0.8582 0.3829
vn -0.3418 0.8582 -0.3829
vn 0.1745 0.9829 0.0593
vn 0.6284 0.1031 0.7710
vn 0.0000 0.0000 1.0000
vn 0.7255 0.4828 0.4904
vn 0.0000 0.8329 -0.5535
vn -0.6915 0.6017 -0.3997
vn -0.3378 0.5764 -0.7441
vn -0.6372 0.4198 -0.6463
vn 0.0000 0.3923 -0.9198
vn 0.0000 0.5928 -0.8053
vn -0.2921 0.3806 -0.8774
vn -0.6133 0.3099 -0.7265
vn 0.6662 0.7309 -0.1481
vn 0.3315 0.9367 0.1124
vn 0.3632 0.7763 -0.5152
vn -0.3446 0.9090 -0.2344
vn 0.3446 0.9090 -0.2344
vn 0.3378 0.5764 -0.7441
vn 0.2921 0.3806 -0.8774
vn -0.3315 0.9367 0.1124
vn -0.6662 0.7309 -0.1481
vn -0.7255 0.4828 0.4904
vn 0.6372 0.4198 -0.6463
vn 0.6133 0.3099 -0.7266
vn 0.6915 0.6017 -0.3997
vn 0.5400 0.8243 0.1702
vn 0.8380 0.5457 0.0000
vn -0.5400 0.8243 0.1702
vn -0.6284 0.1031 0.7710
vn -0.8380 0.5457 0.0000
vn -0.3829 0.8582 0.3418
vn 0.3829 0.8582 0.3418
vn 0.4766 0.8791 0.0000
vn -0.4766 0.8791 -0.0000
vn -0.3632 0.7763 -0.5152
vn -0.0000 0.0000 -1.0000
vn 0.6284 0.1031 -0.7710
vn 0.7255 0.4828 -0.4904
vn 0.0000 0.8329 0.5535
vn -0.6915 0.6017 0.3997
vn -0.3378 0.5764 0.7441
vn -0.3632 0.7763 0.5152
vn -0.0000 0.5928 0.8053
vn -0.0000 0.3923 0.9198
vn -0.6372 0.4198 0.6463
vn -0.2921 0.3806 0.8774
vn 0.6662 0.7309 0.1481
vn 0.3315 0.9367 -0.1124
vn 0.3446 0.9090 0.2344
vn 0.3632 0.7763 0.5152
vn 0.3378 0.5764 0.7441
vn 0.2921 0.3806 0.8774
vn -0.3446 0.9090 0.2344
vn -0.3315 0.9367 -0.1124
vn -0.6662 0.7309 0.1481
vn 0.6372 0.4198 0.6463
vn 0.6133 0.3099 0.7266
vn 0.6915 0.6017 0.3997
vn 0.5400 0.8243 -0.1702
vn -0.6284 0.1031 -0.7710
vn -0.5400 0.8243 -0.1702
vn 0.3829 0.8582 -0.3418
vn -0.3829 0.8582 -0.3418
vn 0.3827 0.0000 0.9239
vn 0.9239 0.0000 0.3827
vn 0.2384 0.8214 0.5181
vn 0.3347 0.5840 0.7395
vn 0.3930 0.3608 0.8458
vn -0.2587 0.7934 -0.5509
vn -0.3266 0.5427 -0.7738
vn -0.3274 0.3707 -0.8691
vn -0.9239 0.0000 -0.3827
vn -0.7266 0.3099 -0.6133
vn -0.6133 0.3099 0.7266
usemtl Border
s 1
f 11/1/1 4/2/2 22/3/2
f 4/2/3 10/4/4 22/3/5
f 110/5/6 162/6/7 160/7/7
f 2/8/1 29/9/8 28/10/8
f 30/11/9 21/12/10 32/13/11
f 3/14/12 7/15/13 1/16/13
f 14/17/14 15/18/15 21/12/10
f 6/19/13 142/20/16 143/21/17
f 146/22/2 81/23/18 139/24/19
f 14/25/12 152/26/20 142/20/16
f 11/27/21 17/28/22 18/29/23
f 18/29/23 32/13/11 31/30/24
f 20/31/25 15/18/15 16/32/26
f 19/33/27 17/28/22 27/34/28
f 12/35/29 27/34/28 8/36/30
f 13/37/31 16/32/26 7/38/32
f 29/39/33 18/29/23 31/30/24
f 10/40/4 24/41/34 22/42/5
f 9/43/35 23/44/36 44/45/37
f 27/34/28 26/46/38 25/47/39
f 22/42/5 26/46/38 17/28/22
f 8/36/30 25/47/39 23/44/36
f 24/41/34 45/48/40 64/49/41
f 44/45/37 23/44/36 63/50/42
f 29/39/33 20/31/25 13/37/31
f 23/44/36 64/49/41 63/50/42
f 31/30/24 21/12/10 20/31/25
f 26/46/38 23/44/36 25/47/39
f 30/11/9 19/33/27 12/35/29
f 28/10/8 13/51/12 3/14/12
f 30/52/8 140/53/43 152/26/20
f 36/54/2 46/55/44 57/56/2
f 43/57/45 36/54/46 57/56/47
f 66/58/48 34/59/44 65/60/48
f 67/61/49 56/62/50 49/63/51
f 40/64/52 35/65/53 33/66/52
f 49/63/51 50/67/54 39/68/55
f 156/69/56 39/70/52 157/71/57
f 116/72/58 160/7/2 153/73/59
f 164/74/60 49/75/53 156/69/56
f 46/76/61 52/77/62 57/78/47
f 69/79/63 53/80/64 68/81/65
f 50/67/54 55/82/66 51/83/67
f 52/77/62 54/84/68 62/85/69
f 62/85/69 47/86/70 41/87/71
f 51/83/67 48/88/72 40/89/73
f 66/90/74 53/80/64 46/76/61
f 43/91/45 59/92/75 45/48/40
f 58/93/76 42/94/77 44/45/37
f 61/95/78 62/85/69 60/96/79
f 57/78/47 61/95/78 59/92/75
f 60/96/79 41/87/71 58/93/76
f 59/92/75 64/49/41 45/48/40
f 44/45/37 63/50/42 58/93/76
f 55/82/66 66/90/74 48/88/72
f 64/49/41 58/93/76 63/50/42
f 56/62/50 68/81/65 55/82/66
f 58/93/76 61/95/78 60/96/79
f 54/84/68 67/61/49 47/86/70
f 48/97/53 65/60/48 35/65/53
f 154/98/80 67/99/48 164/74/60
f 73/100/2 80/101/18 91/102/2
f 79/103/81 73/100/82 91/102/83
f 97/104/84 80/101/18 71/105/18
f 99/106/85 90/107/86 83/108/87
f 76/109/88 72/110/89 70/111/88
f 83/108/87 84/112/90 75/113/91
f 80/114/92 86/115/93 91/116/83
f 100/117/94 88/118/95 87/119/96
f 84/112/90 89/120/97 85/121/98
f 96/122/99 87/119/96 88/118/95
f 96/122/99 81/123/100 77/124/101
f 85/121/98 82/125/102 76/126/103
f 98/127/104 87/119/96 80/114/92
f 79/128/81 93/129/105 114/130/106
f 92/131/107 78/132/108 113/133/109
f 94/134/110 86/115/93 96/122/99
f 91/116/83 95/135/111 93/129/105
f 94/134/110 77/124/101 92/131/107
f 93/129/105 133/136/112 114/130/106
f 113/133/109 132/137/113 92/131/107
f 89/120/97 98/127/104 82/125/102
f 133/136/112 92/131/107 132/137/113
f 89/120/97 101/138/114 100/117/94
f 92/131/107 95/135/111 94/134/110
f 88/118/95 99/106/85 81/123/100
f 82/139/89 97/104/84 72/110/89
f 115/140/58 105/141/2 126/142/2
f 105/141/115 112/143/116 126/142/117
f 103/144/58 135/145/118 134/146/118
f 136/147/119 125/148/120 138/149/121
f 104/150/122 109/151/123 102/152/123
f 118/153/124 119/154/125 125/148/120
f 115/155/126 121/156/127 122/157/128
f 122/157/128 138/149/121 137/158/129
f 124/159/130 119/154/125 120/160/131
f 123/161/132 121/156/127 131/162/133
f 116/163/134 131/162/133 110/164/6
f 117/165/135 120/160/131 109/166/136
f 135/167/137 122/157/128 137/158/129
f 112/168/116 128/169/138 126/170/117
f 111/171/139 127/172/140 113/133/109
f 131/162/133 130/173/141 129/174/142
f 126/170/117 130/173/141 121/156/127
f 110/164/6 129/174/142 127/172/140
f 128/169/138 114/130/106 133/136/112
f 113/133/109 127/172/140 132/137/113
f 135/167/137 124/159/130 117/165/135
f 132/137/113 128/169/138 133/136/112
f 137/158/129 125/148/120 124/159/130
f 130/173/141 127/172/140 129/174/142
f 136/147/119 123/161/132 116/163/134
f 134/146/118 117/175/122 104/150/122
f 78/176/108 146/22/143 148/177/143
f 147/178/144 8/179/30 9/180/35
f 148/177/143 145/181/144 147/178/144
f 116/72/58 163/182/145 136/183/118
f 153/73/59 164/74/60 163/182/145
f 136/183/118 155/184/146 118/185/122
f 163/182/145 156/69/56 155/184/146
f 154/98/80 41/186/2 47/187/44
f 153/73/59 159/188/2 154/98/80
f 108/189/123 155/184/146 158/190/147
f 155/184/146 157/71/57 158/190/147
f 99/191/84 139/24/19 81/23/18
f 151/192/148 140/53/43 139/24/19
f 141/193/149 99/191/84 83/194/89
f 142/20/16 151/192/148 141/193/149
f 8/179/2 140/53/43 12/195/1
f 145/181/2 139/24/19 140/53/43
f 144/196/150 83/194/89 75/197/88
f 143/21/17 141/193/149 144/196/150
f 159/188/151 42/198/77 41/186/71
f 160/7/7 161/199/151 159/188/151
f 11/1/1 2/8/1 4/2/2
f 4/2/3 5/200/3 10/4/4
f 110/5/6 111/201/139 162/6/7
f 2/8/1 11/1/1 29/9/8
f 30/11/9 14/17/14 21/12/10
f 3/14/12 13/51/12 7/15/13
f 14/17/14 6/202/152 15/18/15
f 6/19/13 14/25/12 142/20/16
f 146/22/2 77/203/2 81/23/18
f 14/25/12 30/52/8 152/26/20
f 11/27/21 22/42/5 17/28/22
f 18/29/23 19/33/27 32/13/11
f 20/31/25 21/12/10 15/18/15
f 19/33/27 18/29/23 17/28/22
f 12/35/29 19/33/27 27/34/28
f 13/37/31 20/31/25 16/32/26
f 29/39/33 11/27/21 18/29/23
f 10/40/4 45/48/40 24/41/34
f 9/43/35 8/36/30 23/44/36
f 27/34/28 17/28/22 26/46/38
f 22/42/5 24/41/34 26/46/38
f 8/36/30 27/34/28 25/47/39
f 29/39/33 31/30/24 20/31/25
f 23/44/36 24/41/34 64/49/41
f 31/30/24 32/13/11 21/12/10
f 26/46/38 24/41/34 23/44/36
f 30/11/9 32/13/11 19/33/27
f 28/10/8 29/9/8 13/51/12
f 30/52/8 12/195/1 140/53/43
f 36/54/2 34/59/44 46/55/44
f 43/57/45 37/204/46 36/54/46
f 66/58/48 46/55/44 34/59/44
f 67/61/49 69/79/63 56/62/50
f 40/64/52 48/97/53 35/65/53
f 49/63/51 56/62/50 50/67/54
f 156/69/56 49/75/53 39/70/52
f 116/72/58 110/5/2 160/7/2
f 164/74/60 67/99/48 49/75/53
f 46/76/61 53/80/64 52/77/62
f 69/79/63 54/84/68 53/80/64
f 50/67/54 56/62/50 55/82/66
f 52/77/62 53/80/64 54/84/68
f 62/85/69 54/84/68 47/86/70
f 51/83/67 55/82/66 48/88/72
f 66/90/74 68/81/65 53/80/64
f 43/91/45 57/78/47 59/92/75
f 58/93/76 41/87/71 42/94/77
f 61/95/78 52/77/62 62/85/69
f 57/78/47 52/77/62 61/95/78
f 60/96/79 62/85/69 41/87/71
f 55/82/66 68/81/65 66/90/74
f 64/49/41 59/92/75 58/93/76
f 56/62/50 69/79/63 68/81/65
f 58/93/76 59/92/75 61/95/78
f 54/84/68 69/79/63 67/61/49
f 48/97/53 66/58/48 65/60/48
f 154/98/80 47/187/44 67/99/48
f 73/100/2 71/105/18 80/101/18
f 79/103/81 74/205/82 73/100/82
f 97/104/84 98/206/84 80/101/18
f 99/106/85 101/138/114 90/107/86
f 76/109/88 82/139/89 72/110/89
f 83/108/87 90/107/86 84/112/90
f 80/114/92 87/119/96 86/115/93
f 100/117/94 101/138/114 88/118/95
f 84/112/90 90/107/86 89/120/97
f 96/122/99 86/115/93 87/119/96
f 96/122/99 88/118/95 81/123/100
f 85/121/98 89/120/97 82/125/102
f 98/127/104 100/117/94 87/119/96
f 79/128/81 91/116/83 93/129/105
f 92/131/107 77/124/101 78/132/108
f 94/134/110 95/135/111 86/115/93
f 91/116/83 86/115/93 95/135/111
f 94/134/110 96/122/99 77/124/101
f 89/120/97 100/117/94 98/127/104
f 133/136/112 93/129/105 92/131/107
f 89/120/97 90/107/86 101/138/114
f 92/131/107 93/129/105 95/135/111
f 88/118/95 101/138/114 99/106/85
f 82/139/89 98/206/84 97/104/84
f 115/140/58 103/144/58 105/141/2
f 105/141/115 106/207/115 112/143/116
f 103/144/58 115/140/58 135/145/118
f 136/147/119 118/153/124 125/148/120
f 104/150/122 117/175/122 109/151/123
f 118/153/124 108/208/153 119/154/125
f 115/155/126 126/170/117 121/156/127
f 122/157/128 123/161/132 138/149/121
f 124/159/130 125/148/120 119/154/125
f 123/161/132 122/157/128 121/156/127
f 116/163/134 123/161/132 131/162/133
f 117/165/135 124/159/130 120/160/131
f 135/167/137 115/155/126 122/157/128
f 112/168/116 114/130/106 128/169/138
f 111/171/139 110/164/6 127/172/140
f 131/162/133 121/156/127 130/173/141
f 126/170/117 128/169/138 130/173/141
f 110/164/6 131/162/133 129/174/142
f 135/167/137 137/158/129 124/159/130
f 132/137/113 127/172/140 128/169/138
f 137/158/129 138/149/121 125/148/120
f 130/173/141 128/169/138 127/172/140
f 136/147/119 138/149/121 123/161/132
f 134/146/118 135/145/118 117/175/122
f 78/176/108 77/203/101 146/22/143
f 147/178/144 145/181/144 8/179/30
f 148/177/143 146/22/143 145/181/144
f 116/72/58 153/73/59 163/182/145
f 153/73/59 154/98/80 164/74/60
f 136/183/118 163/182/145 155/184/146
f 163/182/145 164/74/60 156/69/56
f 154/98/80 159/188/2 41/186/2
f 153/73/59 160/7/2 159/188/2
f 108/189/123 118/185/122 155/184/146
f 155/184/146 156/69/56 157/71/57
f 99/191/84 151/192/148 139/24/19
f 151/192/148 152/26/20 140/53/43
f 141/193/149 151/192/148 99/191/84
f 142/20/16 152/26/20 151/192/148
f 8/179/2 145/181/2 140/53/43
f 145/181/2 146/22/2 139/24/19
f 144/196/150 141/193/149 83/194/89
f 143/21/17 142/20/16 141/193/149
f 159/188/151 161/199/151 42/198/77
f 160/7/7 162/6/7 161/199/151
usemtl Light
f 10/209/2 38/210/2 45/211/2
f 150/212/2 78/213/2 148/214/2
f 38/210/2 43/215/2 45/211/2
f 162/216/2 113/217/2 150/212/2
f 107/218/2 79/219/2 114/220/2
f 112/221/2 107/218/2 114/220/2
f 161/222/2 44/223/2 42/224/2
f 162/216/2 149/225/2 161/222/2
f 149/225/2 9/226/2 44/223/2
f 150/212/2 147/227/2 149/225/2
f 10/209/2 5/228/2 38/210/2
f 150/212/2 113/217/2 78/213/2
f 38/210/2 37/229/2 43/215/2
f 162/216/2 111/230/2 113/217/2
f 107/218/2 74/231/2 79/219/2
f 112/221/2 106/232/2 107/218/2
f 161/222/2 149/225/2 44/223/2
f 162/216/2 150/212/2 149/225/2
f 149/225/2 147/227/2 9/226/2
f 150/212/2 148/214/2 147/227/2
