# Blender v2.91.0 OBJ File: 'Button.blend'
# www.blender.org
o CollisionRing_Cube
v 0.636948 -0.070626 1.058538
v 1.058538 -0.070626 0.635123
v 0.528419 0.097842 0.789905
v 0.790813 0.097842 0.526603
v 0.000000 -0.069814 1.058538
v -0.636948 -0.070626 1.058538
v -1.058538 -0.070626 0.635123
v -0.528419 0.097842 0.789905
v 0.000000 0.097842 0.789905
v -0.790813 0.097842 0.526603
v 1.058538 -0.069814 0.000000
v 0.636948 -0.070626 -1.058538
v 1.058538 -0.070626 -0.635123
v 0.528419 0.097842 -0.789905
v 0.790813 0.097842 0.000000
v 0.790813 0.097842 -0.526603
v 0.000000 -0.069814 -1.058538
v -1.058538 -0.069814 0.000000
v -0.636948 -0.070626 -1.058538
v -1.058538 -0.070626 -0.635123
v -0.528419 0.097842 -0.789905
v 0.000000 0.097842 -0.789905
v -0.790813 0.097842 0.000000
v -0.790813 0.097842 -0.526603
v 0.000000 0.097842 0.000000
vn 0.0000 1.0000 0.0000
vn 0.3787 0.8452 0.3771
vn 0.5323 0.8466 0.0011
vn 0.0011 0.8474 0.5310
vn -0.3787 0.8452 0.3771
vn -0.5307 0.8475 0.0000
vn 0.0000 0.8483 0.5295
vn 0.3787 0.8452 -0.3771
vn 0.5307 0.8475 0.0000
vn 0.0000 0.8483 -0.5295
vn -0.3787 0.8452 -0.3771
vn -0.5323 0.8466 -0.0011
vn -0.0011 0.8474 -0.5310
vn 0.3788 0.8450 0.3774
vn -0.3788 0.8450 0.3774
vn -0.5323 0.8466 0.0011
vn -0.0011 0.8474 0.5310
vn 0.3788 0.8450 -0.3774
vn 0.5323 0.8466 -0.0011
vn 0.0011 0.8474 -0.5310
vn -0.3788 0.8450 -0.3774
s off
f 25//1 9//1 3//1
f 2//2 3//2 1//2
f 11//3 4//3 2//3
f 3//4 5//4 1//4
f 3//1 4//1 25//1
f 15//1 25//1 4//1
f 25//1 8//1 9//1
f 8//5 7//5 6//5
f 18//6 10//6 23//6
f 8//7 5//7 9//7
f 8//1 25//1 10//1
f 23//1 10//1 25//1
f 25//1 14//1 22//1
f 14//8 13//8 12//8
f 11//9 16//9 15//9
f 14//10 17//10 22//10
f 14//1 25//1 16//1
f 15//1 16//1 25//1
f 25//1 22//1 21//1
f 20//11 21//11 19//11
f 18//12 24//12 20//12
f 21//13 17//13 19//13
f 21//1 24//1 25//1
f 23//1 25//1 24//1
f 2//14 4//14 3//14
f 11//9 15//9 4//9
f 3//7 9//7 5//7
f 8//15 10//15 7//15
f 18//16 7//16 10//16
f 8//17 6//17 5//17
f 14//18 16//18 13//18
f 11//19 13//19 16//19
f 14//20 12//20 17//20
f 20//21 24//21 21//21
f 18//6 23//6 24//6
f 21//10 22//10 17//10
o CollisionPad_Plane
v -0.234361 0.173814 -0.509218
v -0.509218 0.173814 -0.234361
v -0.509218 0.173814 0.234361
v -0.234361 0.173814 0.509218
v 0.234361 0.173814 0.509218
v 0.509218 0.173814 0.234361
v 0.509218 0.173814 -0.234361
v 0.234361 0.173814 -0.509218
v -0.772484 0.081760 -0.355526
v -0.355526 0.081760 -0.772484
v -0.772484 0.081760 0.355526
v -0.355526 0.081760 0.772484
v 0.355526 0.081760 0.772484
v 0.772484 0.081760 0.355526
v 0.772484 0.081760 -0.355526
v 0.355526 0.081760 -0.772484
vn 0.0000 1.0000 0.0000
vn 0.0000 -1.0000 0.0000
vn 0.0000 0.9440 -0.3301
vn 0.3301 0.9440 -0.0000
vn 0.0000 0.9440 0.3301
vn -0.3301 0.9440 0.0000
vn 0.2268 0.9472 -0.2268
vn 0.2268 0.9472 0.2268
vn -0.2268 0.9472 0.2268
vn -0.2268 0.9472 -0.2268
s off
f 30//22 32//22 26//22
f 35//23 40//23 38//23
f 41//24 26//24 33//24
f 39//25 32//25 31//25
f 37//26 30//26 29//26
f 34//27 28//27 27//27
f 40//28 33//28 32//28
f 30//29 39//29 31//29
f 36//30 29//30 28//30
f 35//31 27//31 26//31
f 26//22 27//22 28//22
f 28//22 29//22 30//22
f 30//22 31//22 32//22
f 32//22 33//22 26//22
f 26//22 28//22 30//22
f 36//23 34//23 35//23
f 35//23 41//23 40//23
f 40//23 39//23 38//23
f 38//23 37//23 36//23
f 36//23 35//23 38//23
f 41//24 35//24 26//24
f 39//25 40//25 32//25
f 37//26 38//26 30//26
f 34//27 36//27 28//27
f 40//28 41//28 33//28
f 30//29 38//29 39//29
f 36//30 37//30 29//30
f 35//31 34//31 27//31
