# Blender v2.82 (sub 7) OBJ File: 'Button.blend'
# www.blender.org
o CollisionRing_Cube
v 0.636948 -0.034438 1.058538
v 1.058538 -0.034438 0.635123
v 0.528419 0.134031 0.789905
v 0.790813 0.134031 0.526603
v 0.456205 0.134031 0.681957
v 0.682740 0.134031 0.454638
v 0.456205 -0.007568 0.681957
v 0.682740 -0.007568 0.454638
v 0.000000 -0.033626 1.058538
v -0.636948 -0.034438 1.058538
v -1.058538 -0.034438 0.635123
v -0.528419 0.134031 0.789905
v 0.000000 0.134031 0.789905
v -0.790813 0.134031 0.526603
v -0.456205 0.134031 0.681957
v -0.682740 0.134031 0.454638
v 0.000000 0.134031 0.734796
v -0.456205 -0.007568 0.681957
v -0.682740 -0.007568 0.454638
v 0.000000 -0.007568 0.734796
v 1.058538 -0.033626 0.000000
v 0.636948 -0.034438 -1.058538
v 1.058538 -0.034438 -0.635123
v 0.528419 0.134031 -0.789905
v 0.790813 0.134031 0.000000
v 0.790813 0.134031 -0.526603
v 0.735641 0.134031 0.000000
v 0.456205 0.134031 -0.681957
v 0.682740 0.134031 -0.454638
v 0.735641 -0.007568 0.000000
v 0.456205 -0.007568 -0.681957
v 0.682740 -0.007568 -0.454638
v 0.000000 -0.033626 -1.058538
v -1.058538 -0.033626 0.000000
v -0.636948 -0.034438 -1.058538
v -1.058538 -0.034438 -0.635123
v -0.528419 0.134031 -0.789905
v 0.000000 0.134031 -0.789905
v -0.790813 0.134031 0.000000
v -0.790813 0.134031 -0.526603
v -0.735641 0.134031 0.000000
v -0.456205 0.134031 -0.681957
v -0.682740 0.134031 -0.454638
v 0.000000 0.134031 -0.734796
v -0.735641 -0.007568 0.000000
v -0.456205 -0.007568 -0.681957
v -0.682740 -0.007568 -0.454638
v 0.000000 -0.007568 -0.734796
vn 0.0000 1.0000 0.0000
vn 0.3787 0.8452 0.3771
vn 0.5323 0.8466 0.0011
vn 0.0011 0.8474 0.5310
vn -0.1151 0.0000 -0.9934
vn -0.9933 0.0000 -0.1156
vn -0.7083 0.0000 -0.7059
vn -0.3787 0.8452 0.3771
vn -0.5307 0.8475 0.0000
vn 0.0000 0.8483 0.5295
vn 0.1151 0.0000 -0.9934
vn 0.9933 0.0000 -0.1156
vn 0.7083 0.0000 -0.7059
vn 0.3787 0.8452 -0.3771
vn 0.5307 0.8475 0.0000
vn 0.0000 0.8483 -0.5295
vn -0.1151 0.0000 0.9934
vn -0.9933 0.0000 0.1156
vn -0.7083 0.0000 0.7059
vn -0.3787 0.8452 -0.3771
vn -0.5323 0.8466 -0.0011
vn -0.0011 0.8474 -0.5310
vn 0.1151 0.0000 0.9934
vn 0.9933 0.0000 0.1156
vn 0.7083 0.0000 0.7059
vn 0.3788 0.8450 0.3774
vn -0.3788 0.8450 0.3774
vn -0.5323 0.8466 0.0011
vn -0.0011 0.8474 0.5310
vn 0.3788 0.8450 -0.3774
vn 0.5323 0.8466 -0.0011
vn 0.0011 0.8474 -0.5310
vn -0.3788 0.8450 -0.3774
s off
f 13//1 5//1 17//1
f 2//2 3//2 1//2
f 21//3 4//3 2//3
f 3//4 9//4 1//4
f 4//1 5//1 3//1
f 25//1 6//1 4//1
f 5//5 20//5 17//5
f 27//6 8//6 6//6
f 6//7 7//7 5//7
f 15//1 13//1 17//1
f 12//8 11//8 10//8
f 34//9 14//9 39//9
f 12//10 9//10 13//10
f 15//1 14//1 12//1
f 39//1 16//1 41//1
f 20//11 15//11 17//11
f 19//12 41//12 16//12
f 18//13 16//13 15//13
f 28//1 38//1 44//1
f 24//14 23//14 22//14
f 21//15 26//15 25//15
f 24//16 33//16 38//16
f 28//1 26//1 24//1
f 25//1 29//1 27//1
f 48//17 28//17 44//17
f 32//18 27//18 29//18
f 31//19 29//19 28//19
f 38//1 42//1 44//1
f 36//20 37//20 35//20
f 34//21 40//21 36//21
f 37//22 33//22 35//22
f 40//1 42//1 37//1
f 39//1 43//1 40//1
f 42//23 48//23 44//23
f 41//24 47//24 43//24
f 43//25 46//25 42//25
f 13//1 3//1 5//1
f 2//26 4//26 3//26
f 21//15 25//15 4//15
f 3//10 13//10 9//10
f 4//1 6//1 5//1
f 25//1 27//1 6//1
f 5//5 7//5 20//5
f 27//6 30//6 8//6
f 6//7 8//7 7//7
f 15//1 12//1 13//1
f 12//27 14//27 11//27
f 34//28 11//28 14//28
f 12//29 10//29 9//29
f 15//1 16//1 14//1
f 39//1 14//1 16//1
f 20//11 18//11 15//11
f 19//12 45//12 41//12
f 18//13 19//13 16//13
f 28//1 24//1 38//1
f 24//30 26//30 23//30
f 21//31 23//31 26//31
f 24//32 22//32 33//32
f 28//1 29//1 26//1
f 25//1 26//1 29//1
f 48//17 31//17 28//17
f 32//18 30//18 27//18
f 31//19 32//19 29//19
f 38//1 37//1 42//1
f 36//33 40//33 37//33
f 34//9 39//9 40//9
f 37//16 38//16 33//16
f 40//1 43//1 42//1
f 39//1 41//1 43//1
f 42//23 46//23 48//23
f 41//24 45//24 47//24
f 43//25 47//25 46//25
o CollisionPad_Plane
v -0.357874 0.128135 -0.777587
v -0.777587 0.128135 -0.357874
v -0.777587 0.128135 0.357875
v -0.357874 0.128135 0.777587
v 0.357875 0.128135 0.777587
v 0.777587 0.128135 0.357874
v 0.777587 0.128135 -0.357874
v 0.357875 0.128135 -0.777587
vn 0.0000 1.0000 0.0000
s off
f 49//34 51//34 53//34
f 49//34 50//34 51//34
f 51//34 52//34 53//34
f 53//34 54//34 49//34
f 54//34 55//34 49//34
f 55//34 56//34 49//34
