# Blender v2.91.0 OBJ File: 'EnterRoomMirrored.blend'
# www.blender.org
o WallsC_Plane.010
v -4.657357 0.050000 1.006017
v 4.655678 0.050000 1.006018
v -4.657357 0.050000 -0.993983
v 4.655678 0.050000 -0.993982
v -4.007337 0.050000 1.006017
v 4.007338 0.050000 1.006017
v 4.007337 0.050000 -0.993982
v -4.007338 0.050000 -0.993983
v -4.007337 0.050000 1.481548
v 4.007338 0.050000 1.481548
v 4.007337 0.050000 -1.469513
v -4.007338 0.050000 -1.469513
v -2.127330 0.050000 1.481548
v 2.127331 0.050000 1.481548
v 2.127330 0.050000 -1.469513
v -2.127331 0.050000 -1.469513
v -2.127330 0.050000 2.074007
v 2.127331 0.050000 2.074008
v 2.127330 0.050000 -2.061972
v -2.127331 0.050000 -2.061973
v -4.657357 2.255388 1.006017
v 4.655678 2.255389 1.006018
v -4.657357 2.255388 -0.993983
v 4.655678 2.255389 -0.993982
v -4.007337 2.255388 1.006017
v 4.007338 2.255389 1.006017
v 4.007337 2.255389 -0.993982
v -4.007338 2.255388 -0.993983
v -4.007337 2.255388 1.481548
v 4.007338 2.255389 1.481548
v 4.007337 2.255389 -1.469513
v -4.007338 2.255388 -1.469513
v -2.127330 2.255388 1.481548
v 2.127331 2.255389 1.481548
v 2.127329 2.255389 -1.469513
v -2.127331 2.255388 -1.469513
v -2.127330 2.255388 2.074007
v 2.127331 2.255389 2.074008
v 2.127329 2.255389 -2.061972
v -2.127331 2.255388 -2.061973
v -4.007337 2.615266 1.006017
v 4.007338 2.615266 1.006017
v 4.007337 2.615266 -0.993982
v -4.007338 2.615266 -0.993983
v -4.007337 2.615266 1.481548
v 4.007338 2.615266 1.481548
v 4.007337 2.615266 -1.469513
v -4.007338 2.615266 -1.469513
v -2.127330 2.615266 1.481548
v 2.127331 2.615266 1.481548
v 2.127329 2.615266 -1.469513
v -2.127331 2.615266 -1.469513
v -2.127330 2.615266 2.074007
v 2.127331 2.615266 2.074008
v 2.127329 2.615266 -2.061972
v -2.127331 2.615266 -2.061973
v -4.657357 0.050000 1.506017
v 4.655678 0.050000 1.506018
v -4.657357 0.050000 -1.493983
v 4.655678 0.050000 -1.493982
v -4.657357 3.000000 1.506017
v 4.655678 3.000000 1.506018
v -4.657357 3.000000 -1.493983
v 4.655678 3.000000 -1.493982
vn 0.0000 1.0000 0.0000
vn -0.0000 0.0000 1.0000
vn 1.0000 0.0000 0.0000
vn 0.0000 0.0000 -1.0000
vn -1.0000 0.0000 0.0000
vn 0.0000 -1.0000 0.0000
s off
f 6//1 4//1 7//1
f 1//1 8//1 3//1
f 5//1 7//1 8//1
f 6//1 13//1 14//1
f 14//1 10//1 6//1
f 13//1 5//1 9//1
f 8//1 15//1 16//1
f 16//1 12//1 8//1
f 15//1 7//1 11//1
f 16//1 19//1 20//1
f 13//1 18//1 14//1
f 16//2 32//2 12//2
f 20//3 36//3 16//3
f 1//4 25//4 5//4
f 10//5 26//5 6//5
f 12//3 28//3 8//3
f 15//5 39//5 19//5
f 5//3 29//3 9//3
f 18//5 34//5 14//5
f 4//2 27//2 7//2
f 13//3 37//3 17//3
f 9//4 33//4 13//4
f 7//5 31//5 11//5
f 6//4 22//4 2//4
f 17//4 38//4 18//4
f 11//2 35//2 15//2
f 14//4 30//4 10//4
f 20//2 39//2 40//2
f 8//2 23//2 3//2
f 25//3 45//3 29//3
f 27//5 47//5 31//5
f 34//4 46//4 30//4
f 37//4 54//4 38//4
f 36//2 48//2 32//2
f 39//2 56//2 40//2
f 32//3 44//3 28//3
f 40//3 52//3 36//3
f 29//4 49//4 33//4
f 35//5 55//5 39//5
f 31//2 51//2 35//2
f 38//5 50//5 34//5
f 30//5 42//5 26//5
f 33//3 53//3 37//3
f 49//6 54//6 53//6
f 51//6 56//6 55//6
f 51//6 47//6 43//6
f 46//6 50//6 42//6
f 43//6 50//6 51//6
f 49//6 51//6 50//6
f 45//6 41//6 49//6
f 48//6 52//6 44//6
f 52//6 41//6 44//6
f 26//6 24//6 22//6
f 28//6 21//6 23//6
f 28//3 41//3 25//3
f 26//5 43//5 27//5
f 22//3 58//3 2//3
f 21//5 63//5 23//5
f 24//3 60//3 64//3
f 24//3 62//3 22//3
f 23//5 59//5 3//5
f 21//5 57//5 61//5
f 6//1 2//1 4//1
f 1//1 5//1 8//1
f 5//1 6//1 7//1
f 6//1 5//1 13//1
f 8//1 7//1 15//1
f 16//1 15//1 19//1
f 13//1 17//1 18//1
f 16//2 36//2 32//2
f 20//3 40//3 36//3
f 1//4 21//4 25//4
f 10//5 30//5 26//5
f 12//3 32//3 28//3
f 15//5 35//5 39//5
f 5//3 25//3 29//3
f 18//5 38//5 34//5
f 4//2 24//2 27//2
f 13//3 33//3 37//3
f 9//4 29//4 33//4
f 7//5 27//5 31//5
f 6//4 26//4 22//4
f 17//4 37//4 38//4
f 11//2 31//2 35//2
f 14//4 34//4 30//4
f 20//2 19//2 39//2
f 8//2 28//2 23//2
f 25//3 41//3 45//3
f 27//5 43//5 47//5
f 34//4 50//4 46//4
f 37//4 53//4 54//4
f 36//2 52//2 48//2
f 39//2 55//2 56//2
f 32//3 48//3 44//3
f 40//3 56//3 52//3
f 29//4 45//4 49//4
f 35//5 51//5 55//5
f 31//2 47//2 51//2
f 38//5 54//5 50//5
f 30//5 46//5 42//5
f 33//3 49//3 53//3
f 49//6 50//6 54//6
f 51//6 52//6 56//6
f 43//6 42//6 50//6
f 49//6 52//6 51//6
f 52//6 49//6 41//6
f 26//6 27//6 24//6
f 28//6 25//6 21//6
f 28//3 44//3 41//3
f 26//5 42//5 43//5
f 22//3 62//3 58//3
f 21//5 61//5 63//5
f 24//3 4//3 60//3
f 24//3 64//3 62//3
f 23//5 63//5 59//5
f 21//5 1//5 57//5
o Door2C_Plane.011
v -4.657357 2.449818 1.129093
v -4.657357 -0.064170 1.129093
v -4.657357 2.449818 -1.117059
v -4.657357 -0.064170 -1.117059
v -4.357357 2.449818 1.129093
v -4.357357 -0.064170 1.129093
v -4.357357 2.449818 -1.117059
v -4.357357 -0.064170 -1.117059
vn -1.0000 0.0000 0.0000
vn 1.0000 0.0000 0.0000
s off
f 67//7 66//7 65//7
f 70//8 71//8 69//8
f 67//7 68//7 66//7
f 70//8 72//8 71//8
o Door1C_Plane.012
v 4.355678 2.449819 1.129093
v 4.355678 -0.064170 1.129093
v 4.355678 2.449819 -1.117058
v 4.355678 -0.064170 -1.117058
v 4.655678 2.449819 1.129093
v 4.655678 -0.064170 1.129093
v 4.655678 2.449819 -1.117058
v 4.655678 -0.064170 -1.117058
vn -1.0000 0.0000 0.0000
vn 1.0000 0.0000 0.0000
s off
f 75//9 74//9 73//9
f 78//10 79//10 77//10
f 75//9 76//9 74//9
f 78//10 80//10 79//10
