# Blender v2.80 (sub 45) OBJ File: 'WallLight.blend'
# www.blender.org
o Plane
v 0.625000 0.000000 1.000000
v 0.698159 0.000000 0.992794
v 0.768506 0.000000 0.971455
v 0.833339 0.000000 0.936801
v 0.890165 0.000000 0.890165
v 0.936801 0.000000 0.833339
v 0.971455 0.000000 0.768506
v 0.992795 0.000000 0.698159
v 1.000000 0.000000 0.625000
v 0.503538 0.161132 0.805660
v 0.562479 0.161132 0.799855
v 0.619155 0.161132 0.782662
v 0.671388 0.161132 0.754743
v 0.717171 0.161132 0.717170
v 0.754743 0.161132 0.671388
v 0.782662 0.161132 0.619155
v 0.799855 0.161132 0.562478
v 0.805660 0.161132 0.503537
v 0.844984 0.081591 0.844984
v 0.796274 0.128821 0.796274
v 0.837991 0.128821 0.745442
v 0.889253 0.081591 0.791042
v 0.662723 0.081591 0.942404
v 0.624520 0.128821 0.888079
v 0.687448 0.128821 0.868990
v 0.729500 0.081591 0.922148
v 0.949244 0.081591 0.593277
v 0.894524 0.128821 0.559077
v 0.868990 0.128821 0.687447
v 0.922148 0.081591 0.729500
v 0.745442 0.128821 0.837991
v 0.791042 0.081591 0.889253
v 0.559078 0.128821 0.894524
v 0.593278 0.081591 0.949244
v 0.888079 0.128821 0.624520
v 0.942404 0.081591 0.662723
v -0.625000 0.000000 1.000000
v -0.698159 0.000000 0.992794
v -0.768506 0.000000 0.971455
v -0.833339 0.000000 0.936801
v -0.890165 0.000000 0.890165
v -0.936801 0.000000 0.833339
v -0.971455 0.000000 0.768506
v -0.992795 0.000000 0.698159
v -1.000000 0.000000 0.625000
v 0.000000 0.000000 1.000000
v -0.503538 0.161132 0.805660
v -0.562479 0.161132 0.799855
v -0.619155 0.161132 0.782662
v -0.671388 0.161132 0.754743
v -0.717171 0.161132 0.717170
v -0.754743 0.161132 0.671388
v -0.782662 0.161132 0.619155
v -0.799855 0.161132 0.562478
v -0.805660 0.161132 0.503537
v 0.000000 0.161132 0.805660
v -0.844984 0.081591 0.844984
v -0.796274 0.128821 0.796274
v -0.837991 0.128821 0.745442
v -0.889253 0.081591 0.791042
v -0.662723 0.081591 0.942404
v -0.624520 0.128821 0.888079
v -0.687448 0.128821 0.868990
v -0.729500 0.081591 0.922148
v -0.949244 0.081591 0.593277
v -0.894524 0.128821 0.559077
v -0.868990 0.128821 0.687447
v -0.922148 0.081591 0.729500
v -0.745442 0.128821 0.837991
v -0.791042 0.081591 0.889253
v 0.000000 0.081591 0.949244
v 0.000000 0.128821 0.894524
v -0.559078 0.128821 0.894524
v -0.593278 0.081591 0.949244
v -0.888079 0.128821 0.624520
v -0.942404 0.081591 0.662723
v 0.625000 0.000000 -1.000000
v 0.698159 0.000000 -0.992794
v 0.768506 0.000000 -0.971455
v 0.833339 0.000000 -0.936801
v 0.890165 0.000000 -0.890165
v 0.936801 0.000000 -0.833339
v 0.971455 0.000000 -0.768506
v 0.992795 0.000000 -0.698159
v 1.000000 0.000000 -0.625000
v 1.000000 0.000000 0.000000
v 0.503538 0.161132 -0.805660
v 0.562479 0.161132 -0.799855
v 0.619155 0.161132 -0.782662
v 0.671388 0.161132 -0.754743
v 0.717171 0.161132 -0.717170
v 0.754743 0.161132 -0.671388
v 0.782662 0.161132 -0.619155
v 0.799855 0.161132 -0.562478
v 0.805660 0.161132 -0.503537
v 0.805660 0.161132 0.000000
v 0.844984 0.081591 -0.844984
v 0.796274 0.128821 -0.796274
v 0.837991 0.128821 -0.745442
v 0.889253 0.081591 -0.791042
v 0.662723 0.081591 -0.942404
v 0.624520 0.128821 -0.888079
v 0.687448 0.128821 -0.868990
v 0.729500 0.081591 -0.922148
v 0.949244 0.081591 -0.593277
v 0.894524 0.128821 -0.559077
v 0.894524 0.128821 0.000000
v 0.949244 0.081591 0.000000
v 0.868990 0.128821 -0.687447
v 0.922148 0.081591 -0.729500
v 0.745442 0.128821 -0.837991
v 0.791042 0.081591 -0.889253
v 0.559078 0.128821 -0.894524
v 0.593278 0.081591 -0.949244
v 0.888079 0.128821 -0.624520
v 0.942404 0.081591 -0.662723
v -0.625000 0.000000 -1.000000
v -0.698159 0.000000 -0.992794
v -0.768506 0.000000 -0.971455
v -0.833339 0.000000 -0.936801
v -0.890165 0.000000 -0.890165
v -0.936801 0.000000 -0.833339
v -0.971455 0.000000 -0.768506
v -0.992795 0.000000 -0.698159
v -1.000000 0.000000 -0.625000
v -1.000000 0.000000 0.000000
v 0.000000 0.000000 -1.000000
v 0.000000 0.000000 0.000000
v -0.503538 0.161132 -0.805660
v -0.562479 0.161132 -0.799855
v -0.619155 0.161132 -0.782662
v -0.671388 0.161132 -0.754743
v -0.717171 0.161132 -0.717170
v -0.754743 0.161132 -0.671388
v -0.782662 0.161132 -0.619155
v -0.799855 0.161132 -0.562478
v -0.805660 0.161132 -0.503537
v -0.805660 0.161132 0.000000
v 0.000000 0.161132 -0.805660
v -0.844984 0.081591 -0.844984
v -0.796274 0.128821 -0.796274
v -0.837991 0.128821 -0.745442
v -0.889253 0.081591 -0.791042
v -0.662723 0.081591 -0.942404
v -0.624520 0.128821 -0.888079
v -0.687448 0.128821 -0.868990
v -0.729500 0.081591 -0.922148
v -0.949244 0.081591 -0.593277
v -0.894524 0.128821 -0.559077
v -0.894524 0.128821 0.000000
v -0.949244 0.081591 0.000000
v -0.868990 0.128821 -0.687447
v -0.922148 0.081591 -0.729500
v -0.745442 0.128821 -0.837991
v -0.791042 0.081591 -0.889253
v 0.000000 0.081591 -0.949244
v 0.000000 0.128821 -0.894524
v -0.559078 0.128821 -0.894524
v -0.593278 0.081591 -0.949244
v -0.888079 0.128821 -0.624520
v -0.942404 0.081591 -0.662723
v 0.000000 0.161132 0.000000
vn 0.3663 0.8982 0.2431
vn 0.1051 0.9889 0.1051
vn 0.3076 0.9004 0.3076
vn 0.0576 0.9875 0.1464
vn 0.0894 0.8779 0.4704
vn 0.1712 0.8910 0.4204
vn 0.5059 0.8626 0.0000
vn 0.1754 0.9845 0.0058
vn 0.4999 0.8658 0.0225
vn 0.4204 0.8910 0.1712
vn 0.1261 0.9886 0.0826
vn 0.0826 0.9886 0.1261
vn 0.2431 0.8982 0.3663
vn 0.0058 0.9845 0.1754
vn 0.0000 0.8626 0.5059
vn 0.0225 0.8658 0.4999
vn 0.4704 0.8779 0.0894
vn 0.1464 0.9875 0.0576
vn 0.0285 0.9856 0.1667
vn 0.1667 0.9856 0.0285
vn 0.8395 0.5412 0.0487
vn 0.7173 0.6822 0.1414
vn 0.8030 0.5706 0.1719
vn 0.7518 0.6583 0.0367
vn 0.1414 0.6822 0.7173
vn 0.0487 0.5412 0.8395
vn 0.1719 0.5706 0.8030
vn 0.0367 0.6583 0.7518
vn 0.4874 0.7244 0.4874
vn 0.4428 0.6116 0.6556
vn 0.5567 0.6165 0.5567
vn 0.3851 0.7200 0.5773
vn 0.6544 0.7063 0.2700
vn 0.7384 0.5965 0.3144
vn 0.0000 0.5282 0.8491
vn 0.0000 0.6500 0.7599
vn 0.3145 0.5965 0.7384
vn 0.2700 0.7063 0.6544
vn 0.5773 0.7200 0.3851
vn 0.6556 0.6116 0.4428
vn 0.8491 0.5282 0.0000
vn 0.7599 0.6500 0.0000
vn 0.1735 0.9848 0.0000
vn 0.0000 1.0000 0.0000
vn 0.0000 0.9848 0.1735
vn -0.3663 0.8982 0.2431
vn -0.1051 0.9889 0.1051
vn -0.1261 0.9886 0.0826
vn -0.0894 0.8779 0.4704
vn -0.0576 0.9875 0.1464
vn -0.1712 0.8910 0.4204
vn -0.5059 0.8626 0.0000
vn -0.1754 0.9845 0.0058
vn -0.1735 0.9848 0.0000
vn -0.4204 0.8910 0.1712
vn -0.1464 0.9875 0.0576
vn -0.0826 0.9886 0.1261
vn -0.2431 0.8982 0.3663
vn -0.0058 0.9845 0.1754
vn -0.0225 0.8658 0.4999
vn -0.4704 0.8779 0.0894
vn -0.1667 0.9856 0.0285
vn -0.3076 0.9004 0.3076
vn -0.0285 0.9856 0.1667
vn -0.4999 0.8658 0.0225
vn -0.8395 0.5412 0.0487
vn -0.7173 0.6822 0.1414
vn -0.7518 0.6583 0.0367
vn -0.0487 0.5412 0.8395
vn -0.1414 0.6822 0.7173
vn -0.1719 0.5706 0.8030
vn -0.0367 0.6583 0.7518
vn -0.4428 0.6116 0.6556
vn -0.4874 0.7244 0.4874
vn -0.5567 0.6165 0.5567
vn -0.3851 0.7200 0.5773
vn -0.8030 0.5706 0.1719
vn -0.6544 0.7063 0.2700
vn -0.3145 0.5965 0.7384
vn -0.2700 0.7063 0.6544
vn -0.7384 0.5965 0.3144
vn -0.5773 0.7200 0.3851
vn -0.8491 0.5282 0.0000
vn -0.7599 0.6500 0.0000
vn -0.6556 0.6116 0.4428
vn 0.3663 0.8982 -0.2431
vn 0.1051 0.9889 -0.1051
vn 0.1261 0.9886 -0.0826
vn 0.0894 0.8779 -0.4704
vn 0.0576 0.9875 -0.1464
vn 0.1712 0.8910 -0.4204
vn 0.1754 0.9845 -0.0058
vn 0.4204 0.8910 -0.1712
vn 0.1464 0.9875 -0.0576
vn 0.0826 0.9886 -0.1261
vn 0.2431 0.8982 -0.3663
vn 0.0000 0.8626 -0.5059
vn 0.0058 0.9845 -0.1754
vn 0.0225 0.8658 -0.4999
vn 0.4704 0.8779 -0.0894
vn 0.1667 0.9856 -0.0285
vn 0.3076 0.9004 -0.3076
vn 0.0285 0.9856 -0.1667
vn 0.4999 0.8658 -0.0225
vn 0.8395 0.5412 -0.0487
vn 0.7173 0.6822 -0.1414
vn 0.7518 0.6583 -0.0367
vn 0.0487 0.5412 -0.8395
vn 0.1414 0.6822 -0.7173
vn 0.1719 0.5706 -0.8030
vn 0.0367 0.6583 -0.7518
vn 0.4428 0.6116 -0.6556
vn 0.4874 0.7244 -0.4874
vn 0.5567 0.6165 -0.5567
vn 0.3851 0.7200 -0.5773
vn 0.8030 0.5706 -0.1719
vn 0.6544 0.7063 -0.2700
vn 0.0000 0.5282 -0.8491
vn 0.0000 0.6500 -0.7599
vn 0.3145 0.5965 -0.7384
vn 0.2700 0.7063 -0.6544
vn 0.7384 0.5965 -0.3144
vn 0.5773 0.7200 -0.3851
vn 0.6556 0.6116 -0.4428
vn 0.0000 0.9848 -0.1735
vn -0.3663 0.8982 -0.2431
vn -0.1051 0.9889 -0.1051
vn -0.3076 0.9004 -0.3076
vn -0.0576 0.9875 -0.1464
vn -0.0894 0.8779 -0.4704
vn -0.1712 0.8910 -0.4204
vn -0.1754 0.9845 -0.0058
vn -0.4999 0.8658 -0.0225
vn -0.4204 0.8910 -0.1712
vn -0.1261 0.9886 -0.0826
vn -0.0826 0.9886 -0.1261
vn -0.2431 0.8982 -0.3663
vn -0.0058 0.9845 -0.1754
vn -0.0225 0.8658 -0.4999
vn -0.4704 0.8779 -0.0894
vn -0.1464 0.9875 -0.0576
vn -0.0285 0.9856 -0.1667
vn -0.1667 0.9856 -0.0285
vn -0.8395 0.5412 -0.0487
vn -0.7173 0.6822 -0.1414
vn -0.8030 0.5706 -0.1719
vn -0.7518 0.6583 -0.0367
vn -0.1414 0.6822 -0.7173
vn -0.0487 0.5412 -0.8395
vn -0.1719 0.5706 -0.8030
vn -0.0367 0.6583 -0.7518
vn -0.4874 0.7244 -0.4874
vn -0.4428 0.6116 -0.6556
vn -0.5567 0.6165 -0.5567
vn -0.3851 0.7200 -0.5773
vn -0.6544 0.7063 -0.2700
vn -0.7384 0.5965 -0.3144
vn -0.3145 0.5965 -0.7384
vn -0.2700 0.7063 -0.6544
vn -0.5773 0.7200 -0.3851
vn -0.6556 0.6116 -0.4428
s 1
f 21//1 14//2 20//3
f 12//4 24//5 25//6
f 107//7 18//8 28//9
f 29//10 15//11 21//1
f 13//12 25//6 31//13
f 10//14 72//15 33//16
f 35//17 16//18 29//10
f 14//2 31//13 20//3
f 11//19 33//16 24//5
f 28//9 17//20 35//17
f 9//21 36//22 8//23
f 27//24 35//17 36//22
f 23//25 1//26 2//27
f 24//5 34//28 23//25
f 19//29 4//30 5//31
f 20//3 32//32 19//29
f 8//23 30//33 7//34
f 36//22 29//10 30//33
f 34//28 46//35 1//26
f 33//16 71//36 34//28
f 32//32 3//37 4//30
f 31//13 26//38 32//32
f 7//34 22//39 6//40
f 30//33 21//1 22//39
f 86//41 27//24 9//21
f 108//42 28//9 27//24
f 26//38 2//27 3//37
f 25//6 23//25 26//38
f 6//40 19//29 5//31
f 22//39 20//3 19//29
f 18//8 96//43 162//44
f 56//45 10//14 162//44
f 10//14 11//19 162//44
f 11//19 12//4 162//44
f 12//4 13//12 162//44
f 13//12 14//2 162//44
f 14//2 15//11 162//44
f 15//11 16//18 162//44
f 16//18 17//20 162//44
f 17//20 18//8 162//44
f 59//46 51//47 52//48
f 62//49 49//50 63//51
f 150//52 55//53 138//54
f 67//55 52//48 53//56
f 63//51 50//57 69//58
f 72//15 47//59 73//60
f 75//61 53//56 54//62
f 69//58 51//47 58//63
f 73//60 48//64 62//49
f 66//65 54//62 55//53
f 45//66 76//67 65//68
f 65//68 75//61 66//65
f 37//69 61//70 38//71
f 74//72 62//49 61//70
f 40//73 57//74 41//75
f 70//76 58//63 57//74
f 44//77 68//78 76//67
f 76//67 67//55 75//61
f 46//35 74//72 37//69
f 71//36 73//60 74//72
f 39//79 70//76 40//73
f 64//80 69//58 70//76
f 43//81 60//82 68//78
f 68//78 59//46 67//55
f 126//83 65//68 151//84
f 151//84 66//65 150//52
f 38//71 64//80 39//79
f 61//70 63//51 64//80
f 42//85 57//74 60//82
f 60//82 58//63 59//46
f 55//53 162//44 138//54
f 56//45 162//44 47//59
f 47//59 162//44 48//64
f 48//64 162//44 49//50
f 49//50 162//44 50//57
f 50//57 162//44 51//47
f 51//47 162//44 52//48
f 52//48 162//44 53//56
f 53//56 162//44 54//62
f 54//62 162//44 55//53
f 99//86 91//87 92//88
f 102//89 89//90 103//91
f 107//7 95//92 96//43
f 109//93 92//88 93//94
f 103//91 90//95 111//96
f 157//97 87//98 113//99
f 115//100 93//94 94//101
f 111//96 91//87 98//102
f 113//99 88//103 102//89
f 106//104 94//101 95//92
f 85//105 116//106 105//107
f 105//107 115//100 106//104
f 77//108 101//109 78//110
f 114//111 102//89 101//109
f 80//112 97//113 81//114
f 112//115 98//102 97//113
f 84//116 110//117 116//106
f 116//106 109//93 115//100
f 127//118 114//111 77//108
f 156//119 113//99 114//111
f 79//120 112//115 80//112
f 104//121 111//96 112//115
f 83//122 100//123 110//117
f 110//117 99//86 109//93
f 86//41 105//107 108//42
f 108//42 106//104 107//7
f 78//110 104//121 79//120
f 101//109 103//91 104//121
f 82//124 97//113 100//123
f 100//123 98//102 99//86
f 95//92 162//44 96//43
f 139//125 162//44 87//98
f 87//98 162//44 88//103
f 88//103 162//44 89//90
f 89//90 162//44 90//95
f 90//95 162//44 91//87
f 91//87 162//44 92//88
f 92//88 162//44 93//94
f 93//94 162//44 94//101
f 94//101 162//44 95//92
f 142//126 133//127 141//128
f 131//129 145//130 146//131
f 150//52 137//132 149//133
f 152//134 134//135 142//126
f 132//136 146//131 154//137
f 129//138 157//97 158//139
f 160//140 135//141 152//134
f 133//127 154//137 141//128
f 130//142 158//139 145//130
f 149//133 136//143 160//140
f 125//144 161//145 124//146
f 148//147 160//140 161//145
f 144//148 117//149 118//150
f 145//130 159//151 144//148
f 140//152 120//153 121//154
f 141//128 155//155 140//152
f 124//146 153//156 123//157
f 161//145 152//134 153//156
f 159//151 127//118 117//149
f 158//139 156//119 159//151
f 155//155 119//158 120//153
f 154//137 147//159 155//155
f 123//157 143//160 122//161
f 153//156 142//126 143//160
f 126//83 148//147 125//144
f 151//84 149//133 148//147
f 147//159 118//150 119//158
f 146//131 144//148 147//159
f 122//161 140//152 121//154
f 143//160 141//128 140//152
f 137//132 138//54 162//44
f 139//125 129//138 162//44
f 129//138 130//142 162//44
f 130//142 131//129 162//44
f 131//129 132//136 162//44
f 132//136 133//127 162//44
f 133//127 134//135 162//44
f 134//135 135//141 162//44
f 135//141 136//143 162//44
f 136//143 137//132 162//44
f 21//1 15//11 14//2
f 12//4 11//19 24//5
f 107//7 96//43 18//8
f 29//10 16//18 15//11
f 13//12 12//4 25//6
f 10//14 56//45 72//15
f 35//17 17//20 16//18
f 14//2 13//12 31//13
f 11//19 10//14 33//16
f 28//9 18//8 17//20
f 9//21 27//24 36//22
f 27//24 28//9 35//17
f 23//25 34//28 1//26
f 24//5 33//16 34//28
f 19//29 32//32 4//30
f 20//3 31//13 32//32
f 8//23 36//22 30//33
f 36//22 35//17 29//10
f 34//28 71//36 46//35
f 33//16 72//15 71//36
f 32//32 26//38 3//37
f 31//13 25//6 26//38
f 7//34 30//33 22//39
f 30//33 29//10 21//1
f 86//41 108//42 27//24
f 108//42 107//7 28//9
f 26//38 23//25 2//27
f 25//6 24//5 23//25
f 6//40 22//39 19//29
f 22//39 21//1 20//3
f 59//46 58//63 51//47
f 62//49 48//64 49//50
f 150//52 66//65 55//53
f 67//55 59//46 52//48
f 63//51 49//50 50//57
f 72//15 56//45 47//59
f 75//61 67//55 53//56
f 69//58 50//57 51//47
f 73//60 47//59 48//64
f 66//65 75//61 54//62
f 45//66 44//77 76//67
f 65//68 76//67 75//61
f 37//69 74//72 61//70
f 74//72 73//60 62//49
f 40//73 70//76 57//74
f 70//76 69//58 58//63
f 44//77 43//81 68//78
f 76//67 68//78 67//55
f 46//35 71//36 74//72
f 71//36 72//15 73//60
f 39//79 64//80 70//76
f 64//80 63//51 69//58
f 43//81 42//85 60//82
f 68//78 60//82 59//46
f 126//83 45//66 65//68
f 151//84 65//68 66//65
f 38//71 61//70 64//80
f 61//70 62//49 63//51
f 42//85 41//75 57//74
f 60//82 57//74 58//63
f 99//86 98//102 91//87
f 102//89 88//103 89//90
f 107//7 106//104 95//92
f 109//93 99//86 92//88
f 103//91 89//90 90//95
f 157//97 139//125 87//98
f 115//100 109//93 93//94
f 111//96 90//95 91//87
f 113//99 87//98 88//103
f 106//104 115//100 94//101
f 85//105 84//116 116//106
f 105//107 116//106 115//100
f 77//108 114//111 101//109
f 114//111 113//99 102//89
f 80//112 112//115 97//113
f 112//115 111//96 98//102
f 84//116 83//122 110//117
f 116//106 110//117 109//93
f 127//118 156//119 114//111
f 156//119 157//97 113//99
f 79//120 104//121 112//115
f 104//121 103//91 111//96
f 83//122 82//124 100//123
f 110//117 100//123 99//86
f 86//41 85//105 105//107
f 108//42 105//107 106//104
f 78//110 101//109 104//121
f 101//109 102//89 103//91
f 82//124 81//114 97//113
f 100//123 97//113 98//102
f 142//126 134//135 133//127
f 131//129 130//142 145//130
f 150//52 138//54 137//132
f 152//134 135//141 134//135
f 132//136 131//129 146//131
f 129//138 139//125 157//97
f 160//140 136//143 135//141
f 133//127 132//136 154//137
f 130//142 129//138 158//139
f 149//133 137//132 136//143
f 125//144 148//147 161//145
f 148//147 149//133 160//140
f 144//148 159//151 117//149
f 145//130 158//139 159//151
f 140//152 155//155 120//153
f 141//128 154//137 155//155
f 124//146 161//145 153//156
f 161//145 160//140 152//134
f 159//151 156//119 127//118
f 158//139 157//97 156//119
f 155//155 147//159 119//158
f 154//137 146//131 147//159
f 123//157 153//156 143//160
f 153//156 152//134 142//126
f 126//83 151//84 148//147
f 151//84 150//52 149//133
f 147//159 144//148 118//150
f 146//131 145//130 144//148
f 122//161 143//160 140//152
f 143//160 142//126 141//128
l 46 128
l 86 128
l 126 128
l 127 128
