# Blender v2.91.0 OBJ File: 'WindowFrame.blend'
# www.blender.org
o SideBL_Cube.002
v 0.000000 -1.000000 1.000000
v 0.000000 0.000000 1.000000
v 1.000000 0.000000 1.000000
v 0.000000 0.000000 0.000000
v 0.000000 -1.000000 0.000000
v 1.000000 0.000000 0.000000
v 0.300000 -1.000000 0.000000
v 0.313450 -0.863436 0.000000
v 0.353284 -0.732121 0.000000
v 0.417972 -0.611100 0.000000
v 0.505026 -0.505025 0.000000
v 0.611101 -0.417971 0.000000
v 0.732122 -0.353284 0.000000
v 0.863437 -0.313450 0.000000
v 1.000001 -0.300000 0.000000
v 0.333333 0.000000 0.000000
v 0.666667 0.000000 0.000000
v 0.000000 -0.666667 0.000000
v 0.000000 -0.333333 0.000000
v 0.300000 -1.000000 1.000000
v 0.313450 -0.863437 1.000000
v 0.353284 -0.732121 1.000000
v 0.417972 -0.611100 1.000000
v 0.505026 -0.505025 1.000000
v 0.611101 -0.417971 1.000000
v 0.732122 -0.353284 1.000000
v 0.863437 -0.313450 1.000000
v 1.000001 -0.300000 1.000000
v 0.333333 0.000000 1.000000
v 0.666667 0.000000 1.000000
v 0.000000 -0.666667 1.000000
v 0.000000 -0.333333 1.000000
vt 0.333333 0.100000
vt 0.287812 0.104483
vt 0.333333 0.000000
vt 0.311427 0.445236
vt 0.448096 0.463991
vt 0.311427 0.463991
vt 0.722508 0.402410
vt 0.585839 0.356854
vt 0.722508 0.356854
vt 0.222222 0.000000
vt 0.244041 0.117761
vt 0.203700 0.139324
vt 0.168342 0.168342
vt 0.111111 0.000000
vt 0.000000 0.111111
vt 0.139324 0.203700
vt 0.000000 0.222222
vt 0.104483 0.287812
vt 0.117761 0.244040
vt 0.100000 0.333333
vt 0.000000 0.333333
vt 0.722508 0.493523
vt 0.585839 0.447967
vt 0.722508 0.447967
vt 0.311427 0.426482
vt 0.448096 0.445236
vt 0.448096 0.566347
vt 0.311427 0.520791
vt 0.448096 0.520791
vt 0.585839 0.402410
vt 0.311427 0.407728
vt 0.448096 0.426482
vt 0.311427 0.388974
vt 0.448096 0.407728
vt 0.448096 0.370219
vt 0.311427 0.370219
vt 0.311427 0.501499
vt 0.448096 0.520253
vt 0.311427 0.520253
vt 0.311427 0.482745
vt 0.448096 0.501499
vt 0.448096 0.657459
vt 0.311427 0.611903
vt 0.448096 0.611903
vt 0.448096 0.482745
vt 0.311427 0.566347
vt 0.100000 0.333333
vt 0.104483 0.287812
vt 0.000000 0.333333
vt 0.000000 0.222222
vt 0.117761 0.244040
vt 0.139324 0.203700
vt 0.000000 0.111111
vt 0.168342 0.168342
vt 0.000000 0.000000
vt 0.111111 0.000000
vt 0.203700 0.139324
vt 0.222222 0.000000
vt 0.244041 0.117761
vt 0.287812 0.104483
vt 0.333333 0.000000
vt 0.333333 0.100000
vt 0.000000 0.000000
vt 0.585839 0.493523
vt 0.448096 0.388974
vt 0.311427 0.657459
vn 0.0000 0.0000 -1.0000
vn 0.7071 -0.7071 0.0000
vn 0.8315 -0.5556 -0.0000
vn 0.0000 1.0000 0.0000
vn 0.5556 -0.8315 0.0000
vn -1.0000 0.0000 0.0000
vn 0.3827 -0.9239 0.0000
vn 0.1951 -0.9808 0.0000
vn 0.0980 -0.9952 0.0000
vn 0.9808 -0.1951 0.0000
vn 0.9952 -0.0980 0.0000
vn 0.9239 -0.3827 0.0000
vn 0.0000 0.0000 1.0000
s 1
f 15/1/1 14/2/1 6/3/1
f 11/4/2 23/5/3 10/6/3
f 17/7/4 3/8/4 6/9/4
f 17/10/1 14/2/1 13/11/1
f 12/12/1 17/10/1 13/11/1
f 11/13/1 16/14/1 12/12/1
f 19/15/1 11/13/1 10/16/1
f 10/16/1 18/17/1 19/15/1
f 8/18/1 18/17/1 9/19/1
f 7/20/1 5/21/1 8/18/1
f 4/22/4 29/23/4 16/24/4
f 12/25/5 24/26/2 11/4/2
f 19/27/6 2/28/6 4/29/6
f 16/24/4 30/30/4 17/7/4
f 13/31/7 25/32/5 12/25/5
f 14/33/8 26/34/7 13/31/7
f 28/35/9 14/33/8 15/36/9
f 8/37/10 20/38/11 7/39/11
f 9/40/12 21/41/10 8/37/10
f 5/42/6 31/43/6 18/44/6
f 10/6/3 22/45/12 9/40/12
f 18/44/6 32/46/6 19/27/6
f 20/47/13 21/48/13 1/49/13
f 31/50/13 21/48/13 22/51/13
f 23/52/13 31/50/13 22/51/13
f 32/53/13 24/54/13 2/55/13
f 29/56/13 24/54/13 25/57/13
f 30/58/13 25/57/13 26/59/13
f 30/58/13 27/60/13 3/61/13
f 28/62/13 3/61/13 27/60/13
f 11/4/2 24/26/2 23/5/3
f 17/7/4 30/30/4 3/8/4
f 17/10/1 6/3/1 14/2/1
f 12/12/1 16/14/1 17/10/1
f 11/13/1 4/63/1 16/14/1
f 19/15/1 4/63/1 11/13/1
f 10/16/1 9/19/1 18/17/1
f 8/18/1 5/21/1 18/17/1
f 4/22/4 2/64/4 29/23/4
f 12/25/5 25/32/5 24/26/2
f 19/27/6 32/46/6 2/28/6
f 16/24/4 29/23/4 30/30/4
f 13/31/7 26/34/7 25/32/5
f 14/33/8 27/65/8 26/34/7
f 28/35/9 27/65/8 14/33/8
f 8/37/10 21/41/10 20/38/11
f 9/40/12 22/45/12 21/41/10
f 5/42/6 1/66/6 31/43/6
f 10/6/3 23/5/3 22/45/12
f 18/44/6 31/43/6 32/46/6
f 31/50/13 1/49/13 21/48/13
f 23/52/13 32/53/13 31/50/13
f 32/53/13 23/52/13 24/54/13
f 29/56/13 2/55/13 24/54/13
f 30/58/13 29/56/13 25/57/13
f 30/58/13 26/59/13 27/60/13
o SideB_Cube.003
v 1.000000 0.000000 1.000000
v 1.000000 -0.300000 1.000000
v 2.000000 0.000000 1.000000
v 2.000000 -0.300000 1.000000
v 1.000000 0.000000 0.000000
v 1.000000 -0.300000 0.000000
v 2.000000 0.000000 0.000000
v 2.000000 -0.300000 0.000000
vt 0.333333 0.100000
vt 0.666667 0.000000
vt 0.333333 0.000000
vt 0.666667 0.100000
vt 0.333333 0.000000
vt 0.666667 0.000000
vt 0.723045 0.338007
vt 0.841404 0.219648
vt 0.841404 0.338007
vt 0.723045 0.575799
vt 0.841404 0.457440
vt 0.841404 0.575799
vt 0.666667 0.100000
vt 0.333333 0.100000
vt 0.723045 0.219648
vt 0.723045 0.457440
vn 0.0000 0.0000 1.0000
vn 0.0000 0.0000 -1.0000
vn 0.0000 1.0000 0.0000
vn 0.0000 -1.0000 0.0000
s off
f 34/67/14 35/68/14 33/69/14
f 40/70/15 37/71/15 39/72/15
f 39/73/16 33/74/16 35/75/16
f 36/76/17 38/77/17 40/78/17
f 34/67/14 36/79/14 35/68/14
f 40/70/15 38/80/15 37/71/15
f 39/73/16 37/81/16 33/74/16
f 36/76/17 34/82/17 38/77/17
o SideL_Cube.004
v 0.000000 -1.000000 1.000000
v 0.000000 -2.000000 1.000000
v 0.300000 -1.000000 1.000000
v 0.300000 -2.000000 1.000000
v 0.000000 -1.000000 0.000000
v 0.000000 -2.000000 0.000000
v 0.300000 -1.000000 0.000000
v 0.300000 -2.000000 0.000000
vt 0.000000 0.666667
vt 0.100000 0.333333
vt 0.000000 0.333333
vt 0.585302 0.644632
vt 0.448633 0.781300
vt 0.448633 0.644632
vt 0.100000 0.666667
vt 0.000000 0.333333
vt 0.100000 0.333333
vt 0.311427 0.657997
vt 0.448096 0.794665
vt 0.311427 0.794665
vt 0.100000 0.666667
vt 0.585302 0.781300
vt 0.000000 0.666667
vt 0.448096 0.657997
vn 0.0000 0.0000 1.0000
vn 1.0000 0.0000 0.0000
vn 0.0000 0.0000 -1.0000
vn -1.0000 0.0000 0.0000
s off
f 42/83/18 43/84/18 41/85/18
f 44/86/19 47/87/19 43/88/19
f 48/89/20 45/90/20 47/91/20
f 46/92/21 41/93/21 45/94/21
f 42/83/18 44/95/18 43/84/18
f 44/86/19 48/96/19 47/87/19
f 48/89/20 46/97/20 45/90/20
f 46/92/21 42/98/21 41/93/21
o SideBR_Cube.005
v 3.000000 -1.000000 1.000000
v 3.000000 0.000000 1.000000
v 2.000000 0.000000 1.000000
v 3.000000 0.000000 0.000000
v 3.000000 -1.000000 0.000000
v 2.000000 0.000000 0.000000
v 2.700000 -1.000000 0.000000
v 2.686550 -0.863436 0.000000
v 2.646716 -0.732121 0.000000
v 2.582028 -0.611100 0.000000
v 2.494974 -0.505025 0.000000
v 2.388899 -0.417971 0.000000
v 2.267878 -0.353284 0.000000
v 2.136563 -0.313450 0.000000
v 1.999999 -0.300000 0.000000
v 2.666667 0.000000 0.000000
v 2.333333 0.000000 0.000000
v 3.000000 -0.666667 0.000000
v 3.000000 -0.333333 0.000000
v 2.700000 -1.000000 1.000000
v 2.686550 -0.863437 1.000000
v 2.646716 -0.732121 1.000000
v 2.582028 -0.611100 1.000000
v 2.494974 -0.505025 1.000000
v 2.388899 -0.417971 1.000000
v 2.267878 -0.353284 1.000000
v 2.136563 -0.313450 1.000000
v 1.999999 -0.300000 1.000000
v 2.666667 0.000000 1.000000
v 2.333333 0.000000 1.000000
v 3.000000 -0.666667 1.000000
v 3.000000 -0.333333 1.000000
vt 0.666666 0.100000
vt 0.666667 0.000000
vt 0.712187 0.104483
vt 0.310890 0.313419
vt 0.174221 0.294665
vt 0.174221 0.313419
vt 0.174221 0.520791
vt 0.310890 0.566347
vt 0.310890 0.520791
vt 0.777778 0.000000
vt 0.796299 0.139324
vt 0.755959 0.117761
vt 0.888889 0.000000
vt 0.831658 0.168342
vt 1.000000 0.111111
vt 1.000000 0.000000
vt 0.860676 0.203700
vt 1.000000 0.222222
vt 0.882239 0.244040
vt 0.895517 0.287812
vt 0.900000 0.333333
vt 1.000000 0.333333
vt 0.174221 0.611903
vt 0.310890 0.657459
vt 0.310890 0.611903
vt 0.310890 0.294665
vt 0.174221 0.275911
vt 0.585839 0.219648
vt 0.722508 0.265204
vt 0.722508 0.219648
vt 0.174221 0.566347
vt 0.310890 0.275911
vt 0.174221 0.257157
vt 0.310890 0.257157
vt 0.174221 0.238402
vt 0.310890 0.219648
vt 0.174221 0.219648
vt 0.310890 0.369682
vt 0.174221 0.350928
vt 0.174221 0.369682
vt 0.310890 0.332174
vt 0.174221 0.332174
vt 0.585839 0.310761
vt 0.722508 0.356317
vt 0.722508 0.310761
vt 0.585839 0.265204
vt 0.900000 0.333333
vt 1.000000 0.333333
vt 0.895517 0.287812
vt 1.000000 0.222222
vt 0.882239 0.244040
vt 0.860676 0.203700
vt 1.000000 0.111111
vt 0.831658 0.168342
vt 0.888889 0.000000
vt 0.796299 0.139324
vt 0.777778 0.000000
vt 0.755959 0.117761
vt 0.712187 0.104483
vt 0.666666 0.100000
vt 0.666667 0.000000
vt 0.174221 0.657459
vt 0.310890 0.238402
vt 0.310890 0.350928
vt 0.585839 0.356317
vt 1.000000 0.000000
vn 0.0000 0.0000 -1.0000
vn -0.8315 -0.5556 -0.0000
vn -0.7071 -0.7071 0.0000
vn 0.0000 1.0000 0.0000
vn -0.5556 -0.8315 0.0000
vn 1.0000 0.0000 0.0000
vn -0.3827 -0.9239 0.0000
vn -0.1951 -0.9808 0.0000
vn -0.0980 -0.9952 0.0000
vn -0.9952 -0.0980 0.0000
vn -0.9808 -0.1951 0.0000
vn -0.9239 -0.3827 -0.0000
vn 0.0000 0.0000 1.0000
s 1
f 63/99/22 54/100/22 62/101/22
f 71/102/23 59/103/24 58/104/23
f 51/105/25 65/106/25 54/107/25
f 65/108/22 62/101/22 54/100/22
f 65/108/22 60/109/22 61/110/22
f 64/111/22 59/112/22 60/109/22
f 67/113/22 59/112/22 52/114/22
f 58/115/22 66/116/22 57/117/22
f 66/116/22 56/118/22 57/117/22
f 55/119/22 56/118/22 53/120/22
f 77/121/25 52/122/25 64/123/25
f 72/124/24 60/125/26 59/103/24
f 50/126/27 67/127/27 52/128/27
f 78/129/25 64/123/25 65/106/25
f 73/130/26 61/131/28 60/125/26
f 74/132/28 62/133/29 61/131/28
f 62/133/29 76/134/30 63/135/30
f 68/136/31 56/137/32 55/138/31
f 56/137/32 70/139/33 57/140/33
f 79/141/27 53/142/27 66/143/27
f 70/139/33 58/104/23 57/140/33
f 80/144/27 66/143/27 67/127/27
f 68/145/34 49/146/34 69/147/34
f 69/147/34 79/148/34 70/149/34
f 71/150/34 79/148/34 80/151/34
f 80/151/34 72/152/34 71/150/34
f 72/152/34 77/153/34 73/154/34
f 73/154/34 78/155/34 74/156/34
f 78/155/34 75/157/34 74/156/34
f 76/158/34 75/157/34 51/159/34
f 71/102/23 72/124/24 59/103/24
f 51/105/25 78/129/25 65/106/25
f 65/108/22 61/110/22 62/101/22
f 65/108/22 64/111/22 60/109/22
f 64/111/22 52/114/22 59/112/22
f 67/113/22 58/115/22 59/112/22
f 58/115/22 67/113/22 66/116/22
f 66/116/22 53/120/22 56/118/22
f 77/121/25 50/160/25 52/122/25
f 72/124/24 73/130/26 60/125/26
f 50/126/27 80/144/27 67/127/27
f 78/129/25 77/121/25 64/123/25
f 73/130/26 74/132/28 61/131/28
f 74/132/28 75/161/29 62/133/29
f 62/133/29 75/161/29 76/134/30
f 68/136/31 69/162/32 56/137/32
f 56/137/32 69/162/32 70/139/33
f 79/141/27 49/163/27 53/142/27
f 70/139/33 71/102/23 58/104/23
f 80/144/27 79/141/27 66/143/27
f 69/147/34 49/146/34 79/148/34
f 71/150/34 70/149/34 79/148/34
f 80/151/34 50/164/34 72/152/34
f 72/152/34 50/164/34 77/153/34
f 73/154/34 77/153/34 78/155/34
f 78/155/34 51/159/34 75/157/34
o SideTL_Cube.006
v 0.000000 -2.000000 1.000000
v 0.000000 -3.000000 1.000000
v 1.000000 -3.000000 1.000000
v 0.000000 -3.000000 0.000000
v 0.000000 -2.000000 0.000000
v 1.000000 -3.000000 0.000000
v 0.300000 -2.000000 0.000000
v 0.313450 -2.136564 0.000000
v 0.353284 -2.267879 0.000000
v 0.417972 -2.388900 0.000000
v 0.505026 -2.494975 0.000000
v 0.611101 -2.582029 0.000000
v 0.732122 -2.646716 0.000000
v 0.863437 -2.686550 0.000000
v 1.000001 -2.700000 0.000000
v 0.333333 -3.000000 0.000000
v 0.666667 -3.000000 0.000000
v 0.000000 -2.333333 0.000000
v 0.000000 -2.666667 0.000000
v 0.300000 -2.000000 1.000000
v 0.313450 -2.136564 1.000000
v 0.353284 -2.267879 1.000000
v 0.417972 -2.388900 1.000000
v 0.505026 -2.494975 1.000000
v 0.611101 -2.582029 1.000000
v 0.732122 -2.646716 1.000000
v 0.863437 -2.686550 1.000000
v 1.000001 -2.700000 1.000000
v 0.333333 -3.000000 1.000000
v 0.666667 -3.000000 1.000000
v 0.000000 -2.333333 1.000000
v 0.000000 -2.666667 1.000000
vt 0.333333 0.900000
vt 0.333333 1.000000
vt 0.287812 0.895516
vt 0.310890 0.463991
vt 0.174221 0.445236
vt 0.174221 0.463991
vt 0.722508 0.781300
vt 0.585839 0.735744
vt 0.585839 0.781300
vt 0.222222 1.000000
vt 0.203700 0.860676
vt 0.244041 0.882239
vt 0.111111 1.000000
vt 0.168342 0.831658
vt 0.000000 0.888889
vt 0.000000 1.000000
vt 0.139324 0.796300
vt 0.000000 0.777778
vt 0.117761 0.755960
vt 0.104483 0.712188
vt 0.100000 0.666667
vt 0.000000 0.666667
vt 0.722508 0.690188
vt 0.585839 0.644632
vt 0.585839 0.690188
vt 0.310890 0.445236
vt 0.174221 0.426482
vt 0.448633 0.507426
vt 0.585302 0.552982
vt 0.585302 0.507425
vt 0.722508 0.735744
vt 0.310890 0.426482
vt 0.174221 0.407728
vt 0.310890 0.407728
vt 0.174221 0.388974
vt 0.310890 0.370220
vt 0.174221 0.370219
vt 0.310890 0.520253
vt 0.174221 0.501499
vt 0.174221 0.520253
vt 0.310890 0.501499
vt 0.174221 0.482745
vt 0.448633 0.598538
vt 0.585302 0.644094
vt 0.585302 0.598538
vt 0.310890 0.482745
vt 0.448633 0.552982
vt 0.100000 0.666667
vt 0.000000 0.666667
vt 0.104483 0.712188
vt 0.000000 0.777778
vt 0.117761 0.755960
vt 0.139324 0.796300
vt 0.000000 0.888889
vt 0.168342 0.831658
vt 0.111111 1.000000
vt 0.203700 0.860676
vt 0.222222 1.000000
vt 0.244041 0.882239
vt 0.287812 0.895516
vt 0.333333 0.900000
vt 0.333333 1.000000
vt 0.722508 0.644632
vt 0.310890 0.388974
vt 0.448633 0.644094
vt 0.000000 1.000000
vn 0.0000 0.0000 -1.0000
vn 0.8315 0.5556 0.0000
vn 0.7071 0.7071 0.0000
vn 0.0000 -1.0000 0.0000
vn 0.5556 0.8315 0.0000
vn -1.0000 0.0000 0.0000
vn 0.3827 0.9239 0.0000
vn 0.1951 0.9808 0.0000
vn 0.0980 0.9952 0.0000
vn 0.9952 0.0980 0.0000
vn 0.9808 0.1951 0.0000
vn 0.9239 0.3827 0.0000
vn 0.0000 0.0000 1.0000
s 1
f 95/165/35 86/166/35 94/167/35
f 103/168/36 91/169/37 90/170/36
f 83/171/38 97/172/38 86/173/38
f 97/174/35 94/167/35 86/166/35
f 97/174/35 92/175/35 93/176/35
f 96/177/35 91/178/35 92/175/35
f 99/179/35 91/178/35 84/180/35
f 90/181/35 98/182/35 89/183/35
f 98/182/35 88/184/35 89/183/35
f 87/185/35 88/184/35 85/186/35
f 109/187/38 84/188/38 96/189/38
f 104/190/37 92/191/39 91/169/37
f 82/192/40 99/193/40 84/194/40
f 110/195/38 96/189/38 97/172/38
f 105/196/39 93/197/41 92/191/39
f 106/198/41 94/199/42 93/197/41
f 94/199/42 108/200/43 95/201/43
f 100/202/44 88/203/45 87/204/44
f 101/205/45 89/206/46 88/203/45
f 111/207/40 85/208/40 98/209/40
f 102/210/46 90/170/36 89/206/46
f 112/211/40 98/209/40 99/193/40
f 100/212/47 81/213/47 101/214/47
f 101/214/47 111/215/47 102/216/47
f 103/217/47 111/215/47 112/218/47
f 112/218/47 104/219/47 103/217/47
f 104/219/47 109/220/47 105/221/47
f 105/221/47 110/222/47 106/223/47
f 110/222/47 107/224/47 106/223/47
f 108/225/47 107/224/47 83/226/47
f 103/168/36 104/190/37 91/169/37
f 83/171/38 110/195/38 97/172/38
f 97/174/35 93/176/35 94/167/35
f 97/174/35 96/177/35 92/175/35
f 96/177/35 84/180/35 91/178/35
f 99/179/35 90/181/35 91/178/35
f 90/181/35 99/179/35 98/182/35
f 98/182/35 85/186/35 88/184/35
f 109/187/38 82/227/38 84/188/38
f 104/190/37 105/196/39 92/191/39
f 82/192/40 112/211/40 99/193/40
f 110/195/38 109/187/38 96/189/38
f 105/196/39 106/198/41 93/197/41
f 106/198/41 107/228/42 94/199/42
f 94/199/42 107/228/42 108/200/43
f 100/202/44 101/205/45 88/203/45
f 101/205/45 102/210/46 89/206/46
f 111/207/40 81/229/40 85/208/40
f 102/210/46 103/168/36 90/170/36
f 112/211/40 111/207/40 98/209/40
f 101/214/47 81/213/47 111/215/47
f 103/217/47 102/216/47 111/215/47
f 112/218/47 82/230/47 104/219/47
f 104/219/47 82/230/47 109/220/47
f 105/221/47 109/220/47 110/222/47
f 110/222/47 83/226/47 107/224/47
o SideT_Cube.007
v 1.000000 -3.000000 1.000000
v 1.000000 -2.700000 1.000000
v 2.000000 -3.000000 1.000000
v 2.000000 -2.700000 1.000000
v 1.000000 -3.000000 0.000000
v 1.000000 -2.700000 0.000000
v 2.000000 -3.000000 0.000000
v 2.000000 -2.700000 0.000000
vt 0.666667 1.000000
vt 0.333333 0.900000
vt 0.333333 1.000000
vt 0.333333 1.000000
vt 0.666667 0.900000
vt 0.666667 1.000000
vt 0.841404 0.338544
vt 0.723045 0.456903
vt 0.841404 0.456903
vt 0.841404 0.694694
vt 0.723045 0.576336
vt 0.723045 0.694694
vt 0.666667 0.900000
vt 0.333333 0.900000
vt 0.723045 0.338544
vt 0.841404 0.576336
vn 0.0000 0.0000 1.0000
vn 0.0000 0.0000 -1.0000
vn 0.0000 -1.0000 0.0000
vn 0.0000 1.0000 0.0000
s off
f 115/231/48 114/232/48 113/233/48
f 117/234/49 120/235/49 119/236/49
f 113/237/50 119/238/50 115/239/50
f 118/240/51 116/241/51 120/242/51
f 115/231/48 116/243/48 114/232/48
f 117/234/49 118/244/49 120/235/49
f 113/237/50 117/245/50 119/238/50
f 118/240/51 114/246/51 116/241/51
o SideTR_Cube.008
v 3.000000 -2.000000 1.000000
v 3.000000 -3.000000 1.000000
v 2.000000 -3.000000 1.000000
v 3.000000 -3.000000 0.000000
v 3.000000 -2.000000 0.000000
v 2.000000 -3.000000 0.000000
v 2.700000 -2.000000 0.000000
v 2.686550 -2.136564 0.000000
v 2.646716 -2.267879 0.000000
v 2.582028 -2.388900 0.000000
v 2.494974 -2.494975 0.000000
v 2.388899 -2.582029 0.000000
v 2.267878 -2.646716 0.000000
v 2.136563 -2.686550 0.000000
v 1.999999 -2.700000 0.000000
v 2.666667 -3.000000 0.000000
v 2.333333 -3.000000 0.000000
v 3.000000 -2.333333 0.000000
v 3.000000 -2.666667 0.000000
v 2.700000 -2.000000 1.000000
v 2.686550 -2.136564 1.000000
v 2.646716 -2.267879 1.000000
v 2.582028 -2.388900 1.000000
v 2.494974 -2.494975 1.000000
v 2.388899 -2.582029 1.000000
v 2.267878 -2.646716 1.000000
v 2.136563 -2.686550 1.000000
v 1.999999 -2.700000 1.000000
v 2.666667 -3.000000 1.000000
v 2.333333 -3.000000 1.000000
v 3.000000 -2.333333 1.000000
v 3.000000 -2.666667 1.000000
vt 0.666666 0.900000
vt 0.712187 0.895516
vt 0.666667 1.000000
vt 0.448096 0.294665
vt 0.311427 0.275911
vt 0.448096 0.275911
vt 0.585302 0.415776
vt 0.448633 0.370219
vt 0.585302 0.370219
vt 0.777778 1.000000
vt 0.755959 0.882239
vt 0.796299 0.860676
vt 0.831658 0.831658
vt 0.888889 1.000000
vt 1.000000 0.888889
vt 0.860676 0.796300
vt 1.000000 0.777778
vt 0.895517 0.712188
vt 0.882239 0.755960
vt 0.900000 0.666667
vt 1.000000 0.666667
vt 0.585302 0.506888
vt 0.448633 0.461332
vt 0.585302 0.461332
vt 0.448096 0.313419
vt 0.311427 0.294665
vt 0.585302 0.265204
vt 0.448633 0.219648
vt 0.585302 0.219648
vt 0.448633 0.415776
vt 0.448096 0.332174
vt 0.311427 0.313419
vt 0.448096 0.350928
vt 0.311427 0.332174
vt 0.311427 0.369682
vt 0.448096 0.369682
vt 0.448096 0.238402
vt 0.311427 0.219648
vt 0.448096 0.219648
vt 0.448096 0.257157
vt 0.311427 0.238402
vt 0.585302 0.356317
vt 0.448633 0.310761
vt 0.585302 0.310761
vt 0.311427 0.257157
vt 0.448633 0.265204
vt 0.900000 0.666667
vt 0.895517 0.712188
vt 1.000000 0.666667
vt 1.000000 0.777778
vt 0.882239 0.755960
vt 0.860676 0.796300
vt 1.000000 0.888889
vt 0.831658 0.831658
vt 1.000000 1.000000
vt 0.888889 1.000000
vt 0.796299 0.860676
vt 0.777778 1.000000
vt 0.755959 0.882239
vt 0.712187 0.895516
vt 0.666667 1.000000
vt 0.666666 0.900000
vt 1.000000 1.000000
vt 0.448633 0.506888
vt 0.311427 0.350928
vt 0.448633 0.356317
vn 0.0000 0.0000 -1.0000
vn -0.7071 0.7071 0.0000
vn -0.8315 0.5556 0.0000
vn 0.0000 -1.0000 0.0000
vn -0.5556 0.8315 0.0000
vn 1.0000 0.0000 0.0000
vn -0.3827 0.9239 0.0000
vn -0.1951 0.9808 0.0000
vn -0.0980 0.9952 0.0000
vn -0.9808 0.1951 0.0000
vn -0.9952 0.0980 0.0000
vn -0.9239 0.3827 0.0000
vn 0.0000 0.0000 1.0000
s 1
f 135/247/52 134/248/52 126/249/52
f 131/250/53 143/251/54 130/252/54
f 137/253/55 123/254/55 126/255/55
f 137/256/52 134/248/52 133/257/52
f 132/258/52 137/256/52 133/257/52
f 131/259/52 136/260/52 132/258/52
f 139/261/52 131/259/52 130/262/52
f 130/262/52 138/263/52 139/261/52
f 128/264/52 138/263/52 129/265/52
f 127/266/52 125/267/52 128/264/52
f 124/268/55 149/269/55 136/270/55
f 132/271/56 144/272/53 131/250/53
f 139/273/57 122/274/57 124/275/57
f 136/270/55 150/276/55 137/253/55
f 133/277/58 145/278/56 132/271/56
f 134/279/59 146/280/58 133/277/58
f 148/281/60 134/279/59 135/282/60
f 128/283/61 140/284/62 127/285/62
f 129/286/63 141/287/61 128/283/61
f 125/288/57 151/289/57 138/290/57
f 130/252/54 142/291/63 129/286/63
f 138/290/57 152/292/57 139/273/57
f 140/293/64 141/294/64 121/295/64
f 151/296/64 141/294/64 142/297/64
f 143/298/64 151/296/64 142/297/64
f 152/299/64 144/300/64 122/301/64
f 149/302/64 144/300/64 145/303/64
f 150/304/64 145/303/64 146/305/64
f 150/304/64 147/306/64 123/307/64
f 148/308/64 123/307/64 147/306/64
f 131/250/53 144/272/53 143/251/54
f 137/253/55 150/276/55 123/254/55
f 137/256/52 126/249/52 134/248/52
f 132/258/52 136/260/52 137/256/52
f 131/259/52 124/309/52 136/260/52
f 139/261/52 124/309/52 131/259/52
f 130/262/52 129/265/52 138/263/52
f 128/264/52 125/267/52 138/263/52
f 124/268/55 122/310/55 149/269/55
f 132/271/56 145/278/56 144/272/53
f 139/273/57 152/292/57 122/274/57
f 136/270/55 149/269/55 150/276/55
f 133/277/58 146/280/58 145/278/56
f 134/279/59 147/311/59 146/280/58
f 148/281/60 147/311/59 134/279/59
f 128/283/61 141/287/61 140/284/62
f 129/286/63 142/291/63 141/287/61
f 125/288/57 121/312/57 151/289/57
f 130/252/54 143/251/54 142/291/63
f 138/290/57 151/289/57 152/292/57
f 151/296/64 121/295/64 141/294/64
f 143/298/64 152/299/64 151/296/64
f 152/299/64 143/298/64 144/300/64
f 149/302/64 122/301/64 144/300/64
f 150/304/64 149/302/64 145/303/64
f 150/304/64 146/305/64 147/306/64
o SideR_Cube.009
v 2.700000 -1.000000 1.000000
v 2.700000 -2.000000 1.000000
v 3.000000 -1.000000 1.000000
v 3.000000 -2.000000 1.000000
v 2.700000 -1.000000 0.000000
v 2.700000 -2.000000 0.000000
v 3.000000 -1.000000 0.000000
v 3.000000 -2.000000 0.000000
vt 0.900000 0.666667
vt 1.000000 0.333333
vt 0.900000 0.333333
vt 0.722508 0.507425
vt 0.585839 0.644094
vt 0.585839 0.507425
vt 1.000000 0.666667
vt 0.900000 0.333333
vt 1.000000 0.333333
vt 0.174221 0.657997
vt 0.310890 0.794665
vt 0.174221 0.794665
vt 1.000000 0.666667
vt 0.722508 0.644094
vt 0.900000 0.666667
vt 0.310890 0.657997
vn 0.0000 0.0000 1.0000
vn 1.0000 0.0000 0.0000
vn 0.0000 0.0000 -1.0000
vn -1.0000 0.0000 0.0000
s off
f 154/313/65 155/314/65 153/315/65
f 156/316/66 159/317/66 155/318/66
f 160/319/67 157/320/67 159/321/67
f 158/322/68 153/323/68 157/324/68
f 154/313/65 156/325/65 155/314/65
f 156/316/66 160/326/66 159/317/66
f 160/319/67 158/327/67 157/320/67
f 158/322/68 154/328/68 153/323/68
