# Blender v2.81 (sub 16) OBJ File: ''
# www.blender.org
mtllib WoodCube.mtl
o Cube
v 1.000000 1.000000 -1.000000
v 1.000000 -1.000000 -1.000000
v 1.000000 1.000000 1.000000
v 1.000000 -1.000000 1.000000
v -1.000000 1.000000 -1.000000
v -1.000000 -1.000000 -1.000000
v -1.000000 1.000000 1.000000
v -1.000000 -1.000000 1.000000
v 1.000000 0.804363 -0.804363
v 1.000000 -0.804363 -0.804363
v 1.000000 0.804363 0.804363
v 1.000000 -0.804363 0.804363
v 0.804363 1.000000 0.804363
v -0.804363 1.000000 0.804363
v 0.804363 1.000000 -0.804363
v -0.804363 1.000000 -0.804363
v -0.804363 -0.804363 1.000000
v -0.804363 0.804363 1.000000
v 0.804363 0.804363 1.000000
v 0.804363 -0.804363 1.000000
v -1.000000 -0.804363 -0.804363
v -1.000000 -0.804363 0.804363
v -1.000000 0.804363 0.804363
v -1.000000 0.804363 -0.804363
v -0.804363 -1.000000 -0.804363
v -0.804363 -1.000000 0.804363
v 0.804363 -1.000000 -0.804363
v 0.804363 -1.000000 0.804363
v 0.804363 -0.804363 -1.000000
v -0.804363 -0.804363 -1.000000
v 0.804363 0.804363 -1.000000
v -0.804363 0.804363 -1.000000
v 0.900000 0.804363 -0.804363
v 0.900000 -0.804363 -0.804363
v 0.900000 0.804363 0.804363
v 0.900000 -0.804363 0.804363
v 0.804363 0.900000 0.804363
v -0.804363 0.900000 0.804363
v 0.804363 0.900000 -0.804363
v -0.804363 0.900000 -0.804363
v -0.804363 -0.804363 0.900000
v -0.804363 0.804363 0.900000
v 0.804363 0.804363 0.900000
v 0.804363 -0.804363 0.900000
v -0.900000 -0.804363 -0.804363
v -0.900000 -0.804363 0.804363
v -0.900000 0.804363 0.804363
v -0.900000 0.804363 -0.804363
v -0.804363 -0.900000 -0.804363
v -0.804363 -0.900000 0.804363
v 0.804363 -0.900000 -0.804363
v 0.804363 -0.900000 0.804363
v 0.804363 -0.804363 -0.900000
v -0.804363 -0.804363 -0.900000
v 0.804363 0.804363 -0.900000
v -0.804363 0.804363 -0.900000
vt 0.000000 0.000000
vt 0.097819 0.902181
vt 0.000000 1.000000
vt 1.000000 1.000000
vt 0.902181 0.097819
vt 1.000000 0.000000
vt 0.000000 0.000000
vt 0.902181 0.097819
vt 1.000000 0.000000
vt 0.000000 1.000000
vt 0.097819 0.097819
vt 1.000000 0.000000
vt 0.097819 0.097819
vt 0.000000 0.000000
vt 0.902181 0.902181
vt 1.000000 1.000000
vt 0.097819 0.000000
vt 0.902181 0.050000
vt 0.902181 0.000000
vt 0.000000 1.000000
vt 0.902181 0.902181
vt 0.097819 0.902181
vt 0.902181 0.097819
vt 1.000000 0.902181
vt 0.950000 0.097819
vt 1.000000 0.097819
vt 0.902181 0.097819
vt 1.000000 0.000000
vt 0.902181 0.902181
vt 0.097819 0.097819
vt 0.097819 1.000000
vt 0.902181 0.950000
vt 0.902181 1.000000
vt 0.097819 0.902181
vt 0.000000 1.000000
vt 0.097819 0.097819
vt 0.902181 0.902181
vt 0.000000 0.902181
vt 0.050000 0.097819
vt 0.000000 0.097819
vt 1.000000 1.000000
vt 0.097819 0.902181
vt 0.902181 0.902181
vt 0.097819 0.097819
vt 0.097819 1.000000
vt 0.902181 0.950000
vt 0.902181 1.000000
vt 0.902181 0.902181
vt 1.000000 1.000000
vt 0.097819 0.902181
vt 0.902181 0.097819
vt 0.902181 0.000000
vt 0.097819 0.050000
vt 0.097819 0.000000
vt 0.097819 0.097819
vt 0.000000 0.000000
vt 0.902181 0.097819
vt 0.097819 0.902181
vt 0.902181 0.902181
vt 0.097819 0.097819
vt 0.902181 0.097819
vt 0.097819 0.902181
vt 0.902181 0.097819
vt 0.902181 0.902181
vt 0.902181 0.902181
vt 0.097819 0.097819
vt 0.902181 0.097819
vt 0.097819 0.902181
vt 0.902181 0.097819
vt 0.097819 0.097819
vt 0.902181 0.902181
vt 0.097819 0.097819
vt 0.097819 0.902181
vt 0.097819 0.902181
vt 0.902181 0.097819
vt 0.097819 0.097819
vt 0.902181 0.000000
vt 0.097819 0.050000
vt 0.097819 0.000000
vt 0.097819 1.000000
vt 0.902181 0.950000
vt 0.902181 1.000000
vt 0.000000 0.097819
vt 0.050000 0.902181
vt 0.000000 0.902181
vt 1.000000 0.097819
vt 0.950000 0.902181
vt 1.000000 0.902181
vt 0.902181 0.000000
vt 0.097819 0.050000
vt 0.097819 0.000000
vt 0.902181 0.050000
vt 0.902181 0.000000
vt 0.050000 0.097819
vt 0.000000 0.097819
vt 1.000000 0.902181
vt 0.950000 0.097819
vt 1.000000 0.097819
vt 0.097819 0.000000
vt 0.902181 0.050000
vt 0.902181 1.000000
vt 0.097819 0.950000
vt 0.097819 1.000000
vt 1.000000 0.902181
vt 0.950000 0.097819
vt 1.000000 0.097819
vt 0.902181 1.000000
vt 0.097819 0.950000
vt 0.950000 0.902181
vt 1.000000 0.902181
vt 0.000000 0.097819
vt 0.050000 0.902181
vt 0.000000 0.902181
vt 0.097819 0.950000
vt 0.097819 1.000000
vt 0.050000 0.902181
vt 0.000000 0.902181
vt 1.000000 0.097819
vt 0.950000 0.902181
vt 0.000000 0.902181
vt 0.050000 0.097819
vt 0.000000 0.097819
vt 0.097819 0.050000
vt 0.950000 0.902181
vt 0.097819 0.950000
vt 0.050000 0.902181
vt 0.902181 0.050000
vt 0.097819 0.902181
vt 0.097819 0.097819
vt 0.097819 0.902181
vt 0.902181 0.902181
vt 0.902181 0.097819
vt 0.902181 0.902181
vt 0.097819 0.950000
vt 0.050000 0.097819
vt 0.950000 0.097819
vt 0.902181 0.050000
vt 0.950000 0.902181
vt 0.097819 0.050000
vt 0.902181 0.950000
vt 0.902181 0.950000
vt 0.050000 0.097819
vt 0.950000 0.097819
vt 0.050000 0.902181
vn 0.0000 1.0000 0.0000
vn 0.0000 0.0000 1.0000
vn -1.0000 -0.0000 0.0000
vn 0.0000 -1.0000 0.0000
vn 1.0000 -0.0000 0.0000
vn 0.0000 0.0000 -1.0000
usemtl Material
s off
f 7/1/1 16/2/1 5/3/1
f 3/4/2 20/5/2 4/6/2
f 8/7/3 21/8/3 6/9/3
f 6/10/4 26/11/4 8/7/4
f 2/12/5 12/13/5 4/14/5
f 2/12/6 31/15/6 1/16/6
f 18/17/4 43/18/4 19/19/4
f 3/20/5 9/21/5 1/16/5
f 4/14/5 11/22/5 3/20/5
f 1/16/5 10/23/5 2/12/5
f 10/24/1 36/25/1 12/26/1
f 1/16/1 13/27/1 3/28/1
f 5/3/1 15/29/1 1/16/1
f 3/28/1 14/30/1 7/1/1
f 30/31/1 53/32/1 29/33/1
f 8/7/2 18/34/2 7/35/2
f 4/6/2 17/36/2 8/7/2
f 7/35/2 19/37/2 3/4/2
f 23/38/6 46/39/6 22/40/6
f 5/41/3 23/42/3 7/35/3
f 6/9/3 24/43/3 5/41/3
f 7/35/3 22/44/3 8/7/3
f 14/45/5 40/46/5 16/47/5
f 4/6/4 27/48/4 2/49/4
f 2/49/4 25/50/4 6/10/4
f 8/7/4 28/51/4 4/6/4
f 25/52/5 50/53/5 26/54/5
f 5/3/6 30/55/6 6/56/6
f 6/56/6 29/57/6 2/12/6
f 1/16/6 32/58/6 5/3/6
f 33/59/5 36/60/5 34/61/5
f 40/62/1 37/63/1 39/64/1
f 43/65/2 41/66/2 44/67/2
f 47/68/3 45/69/3 46/70/3
f 51/71/4 50/72/4 49/73/4
f 56/74/6 53/75/6 54/76/6
f 27/77/2 49/78/2 25/79/2
f 16/80/2 39/81/2 15/82/2
f 21/83/2 48/84/2 24/85/2
f 29/86/3 55/87/3 31/88/3
f 20/89/1 41/90/1 17/91/1
f 26/54/6 52/92/6 28/93/6
f 24/85/4 47/94/4 23/95/4
f 32/96/5 54/97/5 30/98/5
f 28/99/3 51/100/3 27/77/3
f 31/101/4 56/102/4 32/103/4
f 9/104/2 34/105/2 10/106/2
f 13/107/6 38/108/6 14/45/6
f 12/26/6 35/109/6 11/110/6
f 17/111/5 42/112/5 18/113/5
f 15/82/3 37/114/3 13/115/3
f 22/40/1 45/116/1 21/117/1
f 11/118/4 33/119/4 9/104/4
f 19/120/3 44/121/3 20/122/3
f 7/1/1 14/30/1 16/2/1
f 3/4/2 19/37/2 20/5/2
f 8/7/3 22/44/3 21/8/3
f 6/10/4 25/50/4 26/11/4
f 2/12/5 10/23/5 12/13/5
f 2/12/6 29/57/6 31/15/6
f 18/17/4 42/123/4 43/18/4
f 3/20/5 11/22/5 9/21/5
f 4/14/5 12/13/5 11/22/5
f 1/16/5 9/21/5 10/23/5
f 10/24/1 34/124/1 36/25/1
f 1/16/1 15/29/1 13/27/1
f 5/3/1 16/2/1 15/29/1
f 3/28/1 13/27/1 14/30/1
f 30/31/1 54/125/1 53/32/1
f 8/7/2 17/36/2 18/34/2
f 4/6/2 20/5/2 17/36/2
f 7/35/2 18/34/2 19/37/2
f 23/38/6 47/126/6 46/39/6
f 5/41/3 24/43/3 23/42/3
f 6/9/3 21/8/3 24/43/3
f 7/35/3 23/42/3 22/44/3
f 14/45/5 38/108/5 40/46/5
f 4/6/4 28/51/4 27/48/4
f 2/49/4 27/48/4 25/50/4
f 8/7/4 26/11/4 28/51/4
f 25/52/5 49/127/5 50/53/5
f 5/3/6 32/58/6 30/55/6
f 6/56/6 30/55/6 29/57/6
f 1/16/6 31/15/6 32/58/6
f 33/59/5 35/128/5 36/60/5
f 40/62/1 38/129/1 37/63/1
f 43/65/2 42/130/2 41/66/2
f 47/68/3 48/131/3 45/69/3
f 51/71/4 52/132/4 50/72/4
f 56/74/6 55/133/6 53/75/6
f 27/77/2 51/100/2 49/78/2
f 16/80/2 40/134/2 39/81/2
f 21/83/2 45/135/2 48/84/2
f 29/86/3 53/136/3 55/87/3
f 20/89/1 44/137/1 41/90/1
f 26/54/6 50/53/6 52/92/6
f 24/85/4 48/84/4 47/94/4
f 32/96/5 56/138/5 54/97/5
f 28/99/3 52/139/3 51/100/3
f 31/101/4 55/140/4 56/102/4
f 9/104/2 33/119/2 34/105/2
f 13/107/6 37/141/6 38/108/6
f 12/26/6 36/25/6 35/109/6
f 17/111/5 41/142/5 42/112/5
f 15/82/3 39/81/3 37/114/3
f 22/40/1 46/39/1 45/116/1
f 11/118/4 35/143/4 33/119/4
f 19/120/3 43/144/3 44/121/3
