# Blender v2.81 (sub 16) OBJ File: 'ActivationStripStraight.blend'
# www.blender.org
mtllib ActivationStripStraight.mtl
o ActivationStripStraight_Cube.001
v -0.474963 0.000000 1.000000
v -0.262885 0.240838 1.000000
v -0.415493 0.139426 1.000000
v -0.187405 0.240838 1.000000
v -0.187405 0.187153 1.000000
v -0.474963 0.000000 0.465936
v -0.474963 0.000000 0.534064
v -0.187405 0.240838 0.465936
v -0.187405 0.187153 0.465936
v -0.187405 0.187153 0.534064
v -0.262885 0.240838 0.534064
v -0.262885 0.240838 0.465936
v -0.415493 0.139426 0.534064
v -0.415493 0.139426 0.465936
v -0.496157 -0.000030 0.481934
v -0.496157 -0.000030 0.518066
v -0.187405 0.262022 0.518066
v -0.276083 0.260895 0.518066
v -0.276083 0.260895 0.481934
v -0.424917 0.162827 0.518066
v -0.424917 0.162827 0.481934
v -0.187405 0.240838 0.534064
v -0.094841 0.225684 0.481934
v -0.094841 0.225684 0.518066
v -0.145790 0.251271 0.481934
v -0.145790 0.251271 0.518066
v -0.187405 0.262022 0.481934
v -0.345226 0.199188 1.000000
v -0.345226 0.199188 0.534064
v -0.345226 0.199188 0.465936
v -0.358424 0.219244 0.518066
v -0.358424 0.219244 0.481934
v 0.474963 0.000000 1.000000
v 0.262885 0.240838 1.000000
v 0.415493 0.139426 1.000000
v 0.187405 0.240838 1.000000
v 0.187405 0.187153 1.000000
v 0.000000 0.187153 1.000000
v 0.474963 0.000000 0.465936
v 0.474963 0.000000 0.534064
v 0.187405 0.240838 0.465936
v 0.187405 0.187153 0.465936
v 0.187405 0.187153 0.534064
v 0.000000 0.187153 0.465936
v 0.000000 0.187153 0.534064
v 0.262885 0.240838 0.534064
v 0.262885 0.240838 0.465936
v 0.415493 0.139426 0.534064
v 0.415493 0.139426 0.465936
v 0.496157 -0.000030 0.481934
v 0.496157 -0.000030 0.518066
v 0.187405 0.262022 0.518066
v 0.276083 0.260895 0.518066
v 0.276083 0.260895 0.481934
v 0.424917 0.162827 0.518066
v 0.424917 0.162827 0.481934
v 0.187405 0.240838 0.534064
v 0.094841 0.225684 0.481934
v 0.094841 0.225684 0.518066
v 0.145790 0.251271 0.481934
v 0.145790 0.251271 0.518066
v 0.187405 0.262022 0.481934
v 0.000000 0.225684 0.481934
v 0.000000 0.225684 0.518066
v 0.345226 0.199188 1.000000
v 0.345226 0.199188 0.534064
v 0.345226 0.199188 0.465936
v 0.358424 0.219244 0.518066
v 0.358424 0.219244 0.481934
v -0.474963 0.000000 -1.000000
v -0.262885 0.240838 -1.000000
v -0.415493 0.139426 -1.000000
v -0.187405 0.240838 -1.000000
v -0.187405 0.187153 -1.000000
v -0.474963 0.000000 -0.465936
v -0.474963 0.000000 -0.534064
v -0.187405 0.240838 -0.465936
v -0.187405 0.187153 -0.465936
v -0.187405 0.187153 -0.534064
v -0.262885 0.240838 -0.534064
v -0.262885 0.240838 -0.465936
v -0.415493 0.139426 -0.534064
v -0.415493 0.139426 -0.465936
v -0.496157 -0.000030 -0.481934
v -0.496157 -0.000030 -0.518066
v -0.187405 0.262022 -0.518066
v -0.276083 0.260895 -0.518066
v -0.276083 0.260895 -0.481934
v -0.424917 0.162827 -0.518066
v -0.424917 0.162827 -0.481934
v -0.187405 0.240838 -0.534064
v -0.094841 0.225684 -0.481934
v -0.094841 0.225684 -0.518066
v -0.145790 0.251271 -0.481934
v -0.145790 0.251271 -0.518066
v -0.187405 0.262022 -0.481934
v -0.345226 0.199188 -1.000000
v -0.345226 0.199188 -0.534064
v -0.345226 0.199188 -0.465936
v -0.358424 0.219244 -0.518066
v -0.358424 0.219244 -0.481934
v 0.474963 0.000000 -1.000000
v 0.262885 0.240838 -1.000000
v 0.415493 0.139426 -1.000000
v 0.187405 0.240838 -1.000000
v 0.187405 0.187153 -1.000000
v 0.000000 0.187153 -1.000000
v 0.474963 0.000000 -0.465936
v 0.474963 0.000000 -0.534064
v 0.187405 0.240838 -0.465936
v 0.187405 0.187153 -0.465936
v 0.187405 0.187153 -0.534064
v 0.000000 0.187153 -0.465936
v 0.000000 0.187153 -0.534064
v 0.262885 0.240838 -0.534064
v 0.262885 0.240838 -0.465936
v 0.415493 0.139426 -0.534064
v 0.415493 0.139426 -0.465936
v 0.496157 -0.000030 -0.481934
v 0.496157 -0.000030 -0.518066
v 0.187405 0.262022 -0.518066
v 0.276083 0.260895 -0.518066
v 0.276083 0.260895 -0.481934
v 0.424917 0.162827 -0.518066
v 0.424917 0.162827 -0.481934
v 0.187405 0.240838 -0.534064
v 0.094841 0.225684 -0.481934
v 0.094841 0.225684 -0.518066
v 0.145790 0.251271 -0.481934
v 0.145790 0.251271 -0.518066
v 0.187405 0.262022 -0.481934
v 0.000000 0.225684 -0.481934
v 0.000000 0.225684 -0.518066
v 0.345226 0.199188 -1.000000
v 0.345226 0.199188 -0.534064
v 0.345226 0.199188 -0.465936
v 0.358424 0.219244 -0.518066
v 0.358424 0.219244 -0.481934
vt 0.496059 0.415765
vt 0.345095 0.385546
vt 0.496059 0.385546
vt 0.496059 0.385546
vt 0.820062 0.235488
vt 0.518133 0.235488
vt 0.518133 0.235488
vt 0.345095 0.415765
vt 0.496059 0.448731
vt 0.345095 0.448731
vt 0.518133 0.448731
vt 0.512950 0.480636
vt 0.512950 0.454015
vt 0.345095 0.476863
vt 0.496059 0.500672
vt 0.345095 0.500672
vt 0.518133 0.476863
vt 0.512950 0.509158
vt 0.518133 0.500672
vt 0.820062 0.476863
vt 0.820062 0.500672
vt 0.820062 0.385546
vt 0.518133 0.415765
vt 0.518133 0.385546
vt 0.820062 0.448731
vt 0.501243 0.385546
vt 0.501243 0.421049
vt 0.501243 0.454015
vt 0.501243 0.480636
vt 0.501243 0.509158
vt 0.512950 0.421049
vt 0.512950 0.385546
vt 0.496059 0.476863
vt 0.501243 0.348487
vt 0.518133 0.385546
vt 0.512950 0.348487
vt 0.518133 0.310517
vt 0.501243 0.368885
vt 0.512950 0.368885
vt 0.496059 0.310517
vt 0.501243 0.310517
vt 0.512950 0.310517
vt 0.820062 0.415765
vt 0.345095 0.235488
vt 0.496059 0.205269
vt 0.496059 0.235488
vt 0.496059 0.235488
vt 0.496059 0.172303
vt 0.345095 0.205269
vt 0.345095 0.172303
vt 0.518133 0.172303
vt 0.512950 0.140398
vt 0.518133 0.144171
vt 0.496059 0.120362
vt 0.345095 0.144171
vt 0.345095 0.120362
vt 0.512950 0.111877
vt 0.518133 0.120362
vt 0.820062 0.144171
vt 0.820062 0.120362
vt 0.820062 0.205269
vt 0.518133 0.205269
vt 0.820062 0.172303
vt 0.501243 0.235488
vt 0.512950 0.167019
vt 0.501243 0.199985
vt 0.501243 0.167019
vt 0.501243 0.140398
vt 0.501243 0.111877
vt 0.512950 0.199985
vt 0.512950 0.235488
vt 0.496059 0.144171
vt 0.501243 0.272547
vt 0.512950 0.272547
vt 0.501243 0.252149
vt 0.512950 0.252149
vt 0.993100 0.385546
vt 0.842135 0.415765
vt 0.842135 0.385546
vt 0.842135 0.385546
vt 0.842135 0.448731
vt 0.993100 0.415765
vt 0.993100 0.448731
vt 0.825245 0.480636
vt 0.842135 0.500672
vt 0.993100 0.476863
vt 0.993100 0.500672
vt 0.825245 0.509158
vt 0.836952 0.385546
vt 0.825245 0.454015
vt 0.836952 0.421049
vt 0.836952 0.454015
vt 0.836952 0.480636
vt 0.836952 0.509158
vt 0.825245 0.421049
vt 0.825245 0.385546
vt 0.842135 0.476863
vt 0.836952 0.348487
vt 0.842135 0.310517
vt 0.825245 0.348487
vt 0.820062 0.385546
vt 0.820062 0.310517
vt 0.836952 0.368885
vt 0.825245 0.368885
vt 0.836952 0.310517
vt 0.825245 0.310517
vt 0.842135 0.205269
vt 0.993100 0.235488
vt 0.842135 0.235488
vt 0.842135 0.235488
vt 0.993100 0.205269
vt 0.842135 0.172303
vt 0.993100 0.172303
vt 0.825245 0.140398
vt 0.825245 0.167019
vt 0.993100 0.144171
vt 0.842135 0.120362
vt 0.993100 0.120362
vt 0.825245 0.111877
vt 0.836952 0.235488
vt 0.836952 0.199985
vt 0.836952 0.167019
vt 0.836952 0.140398
vt 0.836952 0.111877
vt 0.825245 0.199985
vt 0.825245 0.235488
vt 0.842135 0.144171
vt 0.836952 0.272547
vt 0.820062 0.235488
vt 0.825245 0.272547
vt 0.836952 0.252149
vt 0.825245 0.252149
vt 0.345095 0.385546
vt 0.345095 0.235488
vt 0.993100 0.385546
vt 0.993100 0.235488
vt 0.345095 0.310517
vt 0.993100 0.310517
vn -0.2320 0.9727 0.0000
vn 0.0000 1.0000 0.0000
vn 1.0000 0.0000 0.0000
vn 0.7498 0.0687 0.6581
vn 0.4328 0.3804 0.8173
vn -0.4328 0.3804 0.8173
vn -0.7498 0.0687 -0.6581
vn -0.4328 0.3804 -0.8173
vn -0.5535 0.8329 0.0000
vn -0.3067 0.4618 -0.8323
vn -0.7133 0.5524 -0.4314
vn -0.4916 0.7408 -0.4579
vn -0.8053 0.5928 0.0000
vn -0.9198 0.3923 0.0000
vn -0.5210 0.3272 -0.7884
vn -0.8502 0.3692 -0.3754
vn -0.1102 0.5723 0.8126
vn 0.1074 0.8969 0.4289
vn -0.2245 0.8710 0.4369
vn -0.4916 0.7408 0.4579
vn -0.7133 0.5524 0.4314
vn -0.8502 0.3692 0.3754
vn -0.2245 0.8710 -0.4369
vn 0.1074 0.8969 -0.4289
vn -0.1102 0.5723 -0.8126
vn 0.4328 0.3804 -0.8173
vn -0.5210 0.3272 0.7884
vn -0.5837 0.2490 0.7728
vn -0.3067 0.4618 0.8323
vn 0.1615 0.7692 0.6183
vn 0.7498 0.0687 -0.6581
vn 0.1615 0.7692 -0.6183
vn 0.0000 0.3835 -0.9236
vn 0.3239 0.8173 0.4766
vn 0.3239 0.8173 -0.4766
vn 0.0000 0.3835 0.9236
vn 0.0000 0.8317 0.5552
vn 0.0000 0.8317 -0.5552
vn 0.2320 0.9727 0.0000
vn -0.7498 0.0687 0.6581
vn -1.0000 0.0000 0.0000
vn 0.5535 0.8329 0.0000
vn 0.3067 0.4618 -0.8323
vn 0.7133 0.5524 -0.4314
vn 0.5210 0.3272 -0.7884
vn 0.9198 0.3923 0.0000
vn 0.8053 0.5928 0.0000
vn 0.8502 0.3692 -0.3754
vn 0.5837 0.2490 -0.7728
vn 0.1102 0.5723 0.8126
vn -0.1074 0.8969 0.4289
vn 0.4916 0.7408 -0.4579
vn 0.2245 0.8710 0.4369
vn 0.4916 0.7408 0.4579
vn 0.7133 0.5524 0.4314
vn 0.8502 0.3692 0.3754
vn 0.2245 0.8710 -0.4369
vn -0.1074 0.8969 -0.4289
vn 0.1102 0.5723 -0.8126
vn 0.5210 0.3272 0.7884
vn 0.5837 0.2490 0.7728
vn 0.3067 0.4618 0.8323
vn -0.1615 0.7692 0.6183
vn -0.1615 0.7692 -0.6183
vn -0.3239 0.8173 0.4766
vn -0.3239 0.8173 -0.4766
vn -0.5837 0.2490 -0.7728
usemtl Border
s 1
f 11/1/1 4/2/2 22/3/2
f 4/2/3 10/4/4 22/3/5
f 110/5/6 42/6/7 41/7/8
f 2/8/1 29/9/9 28/10/9
f 30/11/10 21/12/11 32/13/12
f 3/14/13 7/15/14 1/16/14
f 14/17/15 15/18/16 21/12/11
f 6/19/14 83/20/13 75/21/14
f 77/22/2 12/23/1 8/24/2
f 14/17/13 99/25/9 83/20/13
f 11/1/17 17/26/18 18/27/19
f 18/27/19 32/13/12 31/28/20
f 20/29/21 15/18/16 16/30/22
f 19/31/23 17/26/18 27/32/24
f 12/23/25 27/32/24 8/24/26
f 13/33/27 16/30/22 7/15/28
f 29/9/29 18/27/19 31/28/20
f 10/4/4 24/34/30 22/3/5
f 9/35/31 23/36/32 44/37/33
f 27/32/24 26/38/34 25/39/35
f 22/3/5 26/38/34 17/26/18
f 8/24/26 25/39/35 23/36/32
f 24/34/30 45/40/36 64/41/37
f 44/37/33 23/36/32 63/42/38
f 29/9/29 20/29/21 13/33/27
f 23/36/32 64/41/37 63/42/38
f 31/28/20 21/12/11 20/29/21
f 26/38/34 23/36/32 25/39/35
f 30/11/10 19/31/23 12/23/25
f 28/10/9 13/33/13 3/14/13
f 30/11/9 81/43/1 99/25/9
f 36/44/2 46/45/39 57/46/2
f 43/47/40 36/44/41 57/46/6
f 66/48/42 34/49/39 65/50/42
f 67/51/43 56/52/44 49/53/45
f 40/54/46 35/55/47 33/56/46
f 49/53/45 50/57/48 39/58/49
f 118/59/47 39/58/46 108/60/46
f 116/61/39 41/7/2 47/62/39
f 136/63/42 49/53/47 118/59/47
f 46/45/50 52/64/51 57/46/6
f 69/65/52 53/66/53 68/67/54
f 50/57/48 55/68/55 51/69/56
f 52/64/51 54/70/57 62/71/58
f 62/71/58 47/62/59 41/7/8
f 51/69/56 48/72/60 40/54/61
f 66/48/62 53/66/53 46/45/50
f 43/47/40 59/73/63 45/40/36
f 58/74/64 42/6/7 44/37/33
f 61/75/65 62/71/58 60/76/66
f 57/46/6 61/75/65 59/73/63
f 60/76/66 41/7/8 58/74/64
f 59/73/63 64/41/37 45/40/36
f 44/37/33 63/42/38 58/74/64
f 55/68/55 66/48/62 48/72/60
f 64/41/37 58/74/64 63/42/38
f 56/52/44 68/67/54 55/68/55
f 58/74/64 61/75/65 60/76/66
f 54/70/57 67/51/43 47/62/59
f 48/72/47 65/50/42 35/55/47
f 116/61/39 67/51/42 136/63/42
f 73/77/2 80/78/1 91/79/2
f 79/80/31 73/77/3 91/79/26
f 98/81/9 71/82/1 97/83/9
f 99/25/29 90/84/21 83/20/27
f 76/85/14 72/86/13 70/87/14
f 83/20/27 84/88/22 75/21/28
f 80/78/25 86/89/24 91/79/26
f 101/90/20 87/91/23 100/92/12
f 84/88/22 89/93/11 85/94/16
f 86/89/24 88/95/19 96/96/18
f 96/96/18 81/43/17 77/22/5
f 85/94/16 82/97/15 76/85/67
f 98/81/10 87/91/23 80/78/25
f 79/80/31 93/98/32 114/99/33
f 92/100/30 78/101/4 113/102/36
f 95/103/35 96/96/18 94/104/34
f 91/79/26 95/103/35 93/98/32
f 94/104/34 77/22/5 92/100/30
f 93/98/32 133/105/38 114/99/33
f 113/102/36 132/106/37 92/100/30
f 89/93/11 98/81/10 82/97/15
f 133/105/38 92/100/30 132/106/37
f 90/84/21 100/92/12 89/93/11
f 92/100/30 95/103/35 94/104/34
f 88/95/19 99/25/29 81/43/17
f 82/97/13 97/83/9 72/86/13
f 115/107/39 105/108/2 126/109/2
f 105/108/41 112/110/7 126/109/8
f 103/111/39 135/112/42 134/113/42
f 136/63/62 125/114/55 138/115/54
f 104/116/47 109/117/46 102/118/46
f 118/59/60 119/119/56 125/114/55
f 115/107/59 121/120/58 122/121/57
f 122/121/57 138/115/54 137/122/52
f 124/123/44 119/119/56 120/124/48
f 123/125/53 121/120/58 131/126/51
f 116/61/50 131/126/51 110/5/6
f 117/127/45 120/124/48 109/117/49
f 135/112/43 122/121/57 137/122/52
f 112/110/7 128/128/64 126/109/8
f 111/129/40 127/130/63 113/102/36
f 131/126/51 130/131/66 129/132/65
f 126/109/8 130/131/66 121/120/58
f 110/5/6 129/132/65 127/130/63
f 128/128/64 114/99/33 133/105/38
f 113/102/36 127/130/63 132/106/37
f 135/112/43 124/123/44 117/127/45
f 127/130/63 133/105/38 132/106/37
f 137/122/52 125/114/55 124/123/44
f 130/131/66 127/130/63 129/132/65
f 136/63/62 123/125/53 116/61/50
f 134/113/42 117/127/47 104/116/47
f 78/101/4 8/24/26 9/35/31
f 11/1/1 2/8/1 4/2/2
f 4/2/3 5/133/3 10/4/4
f 110/5/6 111/129/40 42/6/7
f 2/8/1 11/1/1 29/9/9
f 30/11/10 14/17/15 21/12/11
f 3/14/13 13/33/13 7/15/14
f 14/17/15 6/19/67 15/18/16
f 6/19/14 14/17/13 83/20/13
f 77/22/2 81/43/1 12/23/1
f 14/17/13 30/11/9 99/25/9
f 11/1/17 22/3/5 17/26/18
f 18/27/19 19/31/23 32/13/12
f 20/29/21 21/12/11 15/18/16
f 19/31/23 18/27/19 17/26/18
f 12/23/25 19/31/23 27/32/24
f 13/33/27 20/29/21 16/30/22
f 29/9/29 11/1/17 18/27/19
f 10/4/4 45/40/36 24/34/30
f 9/35/31 8/24/26 23/36/32
f 27/32/24 17/26/18 26/38/34
f 22/3/5 24/34/30 26/38/34
f 8/24/26 27/32/24 25/39/35
f 29/9/29 31/28/20 20/29/21
f 23/36/32 24/34/30 64/41/37
f 31/28/20 32/13/12 21/12/11
f 26/38/34 24/34/30 23/36/32
f 30/11/10 32/13/12 19/31/23
f 28/10/9 29/9/9 13/33/13
f 30/11/9 12/23/1 81/43/1
f 36/44/2 34/49/39 46/45/39
f 43/47/40 37/134/41 36/44/41
f 66/48/42 46/45/39 34/49/39
f 67/51/43 69/65/52 56/52/44
f 40/54/46 48/72/47 35/55/47
f 49/53/45 56/52/44 50/57/48
f 118/59/47 49/53/47 39/58/46
f 116/61/39 110/5/2 41/7/2
f 136/63/42 67/51/42 49/53/47
f 46/45/50 53/66/53 52/64/51
f 69/65/52 54/70/57 53/66/53
f 50/57/48 56/52/44 55/68/55
f 52/64/51 53/66/53 54/70/57
f 62/71/58 54/70/57 47/62/59
f 51/69/56 55/68/55 48/72/60
f 66/48/62 68/67/54 53/66/53
f 43/47/40 57/46/6 59/73/63
f 58/74/64 41/7/8 42/6/7
f 61/75/65 52/64/51 62/71/58
f 57/46/6 52/64/51 61/75/65
f 60/76/66 62/71/58 41/7/8
f 55/68/55 68/67/54 66/48/62
f 64/41/37 59/73/63 58/74/64
f 56/52/44 69/65/52 68/67/54
f 58/74/64 59/73/63 61/75/65
f 54/70/57 69/65/52 67/51/43
f 48/72/47 66/48/42 65/50/42
f 116/61/39 47/62/39 67/51/42
f 73/77/2 71/82/1 80/78/1
f 79/80/31 74/135/3 73/77/3
f 98/81/9 80/78/1 71/82/1
f 99/25/29 101/90/20 90/84/21
f 76/85/14 82/97/13 72/86/13
f 83/20/27 90/84/21 84/88/22
f 80/78/25 87/91/23 86/89/24
f 101/90/20 88/95/19 87/91/23
f 84/88/22 90/84/21 89/93/11
f 86/89/24 87/91/23 88/95/19
f 96/96/18 88/95/19 81/43/17
f 85/94/16 89/93/11 82/97/15
f 98/81/10 100/92/12 87/91/23
f 79/80/31 91/79/26 93/98/32
f 92/100/30 77/22/5 78/101/4
f 95/103/35 86/89/24 96/96/18
f 91/79/26 86/89/24 95/103/35
f 94/104/34 96/96/18 77/22/5
f 89/93/11 100/92/12 98/81/10
f 133/105/38 93/98/32 92/100/30
f 90/84/21 101/90/20 100/92/12
f 92/100/30 93/98/32 95/103/35
f 88/95/19 101/90/20 99/25/29
f 82/97/13 98/81/9 97/83/9
f 115/107/39 103/111/39 105/108/2
f 105/108/41 106/136/41 112/110/7
f 103/111/39 115/107/39 135/112/42
f 136/63/62 118/59/60 125/114/55
f 104/116/47 117/127/47 109/117/46
f 118/59/60 108/60/61 119/119/56
f 115/107/59 126/109/8 121/120/58
f 122/121/57 123/125/53 138/115/54
f 124/123/44 125/114/55 119/119/56
f 123/125/53 122/121/57 121/120/58
f 116/61/50 123/125/53 131/126/51
f 117/127/45 124/123/44 120/124/48
f 135/112/43 115/107/59 122/121/57
f 112/110/7 114/99/33 128/128/64
f 111/129/40 110/5/6 127/130/63
f 131/126/51 121/120/58 130/131/66
f 126/109/8 128/128/64 130/131/66
f 110/5/6 131/126/51 129/132/65
f 135/112/43 137/122/52 124/123/44
f 127/130/63 128/128/64 133/105/38
f 137/122/52 138/115/54 125/114/55
f 130/131/66 128/128/64 127/130/63
f 136/63/62 138/115/54 123/125/53
f 134/113/42 135/112/42 117/127/47
f 78/101/4 77/22/5 8/24/26
usemtl Light
f 10/4/2 38/137/2 45/40/2
f 113/102/2 9/35/2 44/37/2
f 38/137/2 43/47/2 45/40/2
f 111/129/2 44/37/2 42/6/2
f 107/138/2 79/80/2 114/99/2
f 112/110/2 107/138/2 114/99/2
f 10/4/2 5/133/2 38/137/2
f 113/102/2 78/101/2 9/35/2
f 38/137/2 37/134/2 43/47/2
f 111/129/2 113/102/2 44/37/2
f 107/138/2 74/135/2 79/80/2
f 112/110/2 106/136/2 107/138/2
