# Blender v2.81 (sub 16) OBJ File: 'ActivationStripStraight.blend'
# www.blender.org
mtllib ActivationStripBend.mtl
o ActivationStripBend_Cube.000
v -0.474963 0.000000 2.000000
v -0.262885 0.240838 2.000000
v -0.415493 0.139426 2.000000
v -0.187405 0.240838 2.000000
v -0.187405 0.187153 2.000000
v -0.474963 0.000000 0.730864
v -0.474963 0.000000 0.837731
v -0.187405 0.240838 0.730864
v -0.187405 0.187153 0.730864
v -0.187405 0.187153 0.837731
v -0.262885 0.240838 0.837731
v -0.262885 0.240838 0.730864
v -0.415493 0.139426 0.837731
v -0.415493 0.139426 0.730864
v -0.496157 -0.000030 0.755959
v -0.496157 -0.000030 0.812636
v -0.187405 0.262022 0.812636
v -0.276083 0.260895 0.812636
v -0.276083 0.260895 0.755959
v -0.424917 0.162827 0.812636
v -0.424917 0.162827 0.755959
v -0.187405 0.240838 0.837731
v -0.094841 0.225684 0.755959
v -0.094841 0.225684 0.812636
v -0.145790 0.251271 0.755959
v -0.145790 0.251271 0.812636
v -0.187405 0.262022 0.755959
v -0.345226 0.199188 2.000000
v -0.345226 0.199188 0.837731
v -0.345226 0.199188 0.730864
v -0.358424 0.219244 0.812636
v -0.358424 0.219244 0.755959
v 0.474963 0.000000 2.000000
v 0.262885 0.240838 2.000000
v 0.415493 0.139426 2.000000
v 0.187405 0.240838 2.000000
v 0.187405 0.187153 2.000000
v 0.000000 0.187153 2.000000
v 0.474963 0.000000 0.730864
v 0.474963 0.000000 0.837731
v 0.187405 0.240838 0.730864
v 0.187405 0.187153 0.730864
v 0.187405 0.187153 0.837731
v 0.000000 0.187153 0.730864
v 0.000000 0.187153 0.837731
v 0.262885 0.240838 0.837731
v 0.262885 0.240838 0.730864
v 0.415493 0.139426 0.837731
v 0.415493 0.139426 0.730864
v 0.496157 -0.000030 0.755959
v 0.496157 -0.000030 0.812636
v 0.187405 0.262022 0.812636
v 0.276083 0.260895 0.812636
v 0.276083 0.260895 0.755959
v 0.424917 0.162827 0.812636
v 0.424917 0.162827 0.755959
v 0.187405 0.240838 0.837731
v 0.094841 0.225684 0.755959
v 0.094841 0.225684 0.812636
v 0.145790 0.251271 0.755959
v 0.145790 0.251271 0.812636
v 0.187405 0.262022 0.755959
v 0.000000 0.225684 0.755959
v 0.000000 0.225684 0.812636
v 0.345226 0.199188 2.000000
v 0.345226 0.199188 0.837731
v 0.345226 0.199188 0.730864
v 0.358424 0.219244 0.812636
v 0.358424 0.219244 0.755959
v 2.000000 0.000000 -0.474963
v 2.000000 0.240838 -0.262885
v 2.000000 0.139426 -0.415493
v 2.000000 0.240838 -0.187405
v 2.000000 0.187153 -0.187405
v 0.730865 0.000000 -0.474963
v 0.837731 0.000000 -0.474963
v 0.730864 0.240838 -0.187405
v 0.730864 0.187153 -0.187405
v 0.837731 0.187153 -0.187405
v 0.837731 0.240838 -0.262885
v 0.730864 0.240838 -0.262885
v 0.837731 0.139426 -0.415493
v 0.730864 0.139426 -0.415493
v 0.755958 -0.000030 -0.496157
v 0.812636 -0.000030 -0.496157
v 0.812636 0.262022 -0.187405
v 0.812636 0.260895 -0.276083
v 0.755959 0.260895 -0.276083
v 0.812636 0.162827 -0.424917
v 0.755958 0.162827 -0.424917
v 0.837731 0.240838 -0.187405
v 0.755959 0.225684 -0.094841
v 0.812636 0.225684 -0.094841
v 0.755959 0.251271 -0.145790
v 0.812636 0.251271 -0.145790
v 0.755959 0.262022 -0.187405
v 2.000000 0.199188 -0.345226
v 0.837731 0.199188 -0.345226
v 0.730864 0.199188 -0.345226
v 0.812636 0.219244 -0.358424
v 0.755959 0.219244 -0.358424
v 2.000000 0.000000 0.474963
v 2.000000 0.240838 0.262885
v 2.000000 0.139426 0.415493
v 2.000000 0.240838 0.187405
v 2.000000 0.187153 0.187405
v 2.000000 0.187153 0.000000
v 0.730864 0.000000 0.474963
v 0.837731 0.000000 0.474963
v 0.730864 0.240838 0.187405
v 0.730864 0.187153 0.187405
v 0.837731 0.187153 0.187405
v 0.730864 0.187153 0.000000
v 0.837731 0.187153 0.000000
v 0.837731 0.240838 0.262885
v 0.730864 0.240838 0.262885
v 0.837731 0.139426 0.415493
v 0.730864 0.139426 0.415493
v 0.755959 -0.000030 0.496157
v 0.812636 -0.000030 0.496157
v 0.812636 0.262022 0.187405
v 0.812636 0.260895 0.276083
v 0.755959 0.260895 0.276083
v 0.812636 0.162827 0.424917
v 0.755959 0.162827 0.424917
v 0.837731 0.240838 0.187405
v 0.755959 0.225684 0.094841
v 0.812636 0.225684 0.094841
v 0.755959 0.251271 0.145790
v 0.812636 0.251271 0.145790
v 0.755959 0.262022 0.187405
v 0.755959 0.225684 0.000000
v 0.812636 0.225684 0.000000
v 2.000000 0.199188 0.345226
v 0.837731 0.199188 0.345226
v 0.730864 0.199188 0.345226
v 0.812636 0.219244 0.358424
v 0.755959 0.219244 0.358424
v 0.637732 0.240838 -0.262885
v -0.262885 0.240838 0.637732
v 0.637732 0.139426 -0.415493
v -0.415493 0.139426 0.637732
v -0.474963 0.000000 0.637732
v 0.637732 0.000000 -0.474963
v -0.187405 0.240838 0.637732
v 0.637732 0.240838 -0.187405
v -0.187405 0.187153 0.637732
v 0.637732 0.187153 -0.187405
v 0.000000 0.187153 0.637732
v 0.637732 0.187153 0.000000
v 0.637732 0.199188 -0.345226
v -0.345226 0.199188 0.637732
v 0.637732 0.240838 0.262885
v 0.262885 0.240838 0.637732
v 0.637732 0.139426 0.415493
v 0.415493 0.139426 0.637732
v 0.474963 0.000000 0.637732
v 0.637732 0.000000 0.474963
v 0.187405 0.240838 0.637732
v 0.637732 0.240838 0.187405
v 0.187405 0.187153 0.637732
v 0.637732 0.187153 0.187405
v 0.637732 0.199188 0.345226
v 0.345226 0.199188 0.637732
vt 0.075586 0.465354
vt 0.100043 0.000000
vt 0.100043 0.465354
vt 0.100043 0.465354
vt 0.397584 0.725735
vt 0.367407 0.725735
vt 0.367407 0.725735
vt 0.075586 0.000000
vt 0.048905 0.465354
vt 0.048905 0.000000
vt 0.048905 0.508142
vt 0.023083 0.498095
vt 0.044629 0.498095
vt 0.026137 0.000000
vt 0.006867 0.465354
vt 0.006867 0.000000
vt 0.026137 0.508142
vt 0.000000 0.498095
vt 0.006867 0.508142
vt 0.026137 0.545431
vt 0.006867 0.545431
vt 0.367407 0.875803
vt 0.397584 0.906024
vt 0.367407 0.906024
vt 0.048905 0.545431
vt 0.100043 0.475402
vt 0.071309 0.475402
vt 0.044629 0.475402
vt 0.023083 0.475402
vt 0.000000 0.475402
vt 0.071309 0.498095
vt 0.100043 0.498095
vt 0.075586 0.508142
vt 0.100043 0.508142
vt 0.026137 0.465354
vt 0.130036 0.475402
vt 0.100043 0.508142
vt 0.130036 0.498095
vt 0.160767 0.508142
vt 0.113527 0.475402
vt 0.113527 0.498095
vt 0.160767 0.465354
vt 0.160767 0.475402
vt 0.160767 0.498095
vt 0.075586 0.545431
vt 0.221490 0.000000
vt 0.245948 0.465354
vt 0.221490 0.465354
vt 0.221490 0.465354
vt 0.272628 0.465354
vt 0.245948 0.000000
vt 0.272628 0.000000
vt 0.272628 0.508142
vt 0.298450 0.498095
vt 0.295396 0.508142
vt 0.314666 0.465354
vt 0.295396 0.000000
vt 0.314666 0.000000
vt 0.321533 0.498095
vt 0.314666 0.508142
vt 0.295396 0.545431
vt 0.314666 0.545431
vt 0.397584 0.695514
vt 0.367407 0.695514
vt 0.272628 0.545431
vt 0.221490 0.475402
vt 0.276904 0.498095
vt 0.250224 0.475402
vt 0.276904 0.475402
vt 0.298450 0.475402
vt 0.321533 0.475402
vt 0.250224 0.498095
vt 0.221490 0.498095
vt 0.245948 0.508142
vt 0.221490 0.508142
vt 0.295396 0.465354
vt 0.191497 0.475402
vt 0.191497 0.498095
vt 0.221490 0.508142
vt 0.208006 0.475402
vt 0.208006 0.498095
vt 0.245948 0.545431
vt 0.808814 0.875803
vt 0.432211 0.906024
vt 0.432211 0.875803
vt 0.432211 0.875803
vt 0.808814 0.938992
vt 0.808814 0.906024
vt 0.397584 0.938992
vt 0.405715 0.970899
vt 0.397584 0.967125
vt 0.432211 0.990936
vt 0.808814 0.967125
vt 0.808814 0.990936
vt 0.405715 0.999422
vt 0.397584 0.990936
vt 0.424080 0.875803
vt 0.424080 0.944276
vt 0.405715 0.911308
vt 0.424080 0.911308
vt 0.424080 0.970899
vt 0.424080 0.999422
vt 0.405715 0.875803
vt 0.397584 0.875803
vt 0.432211 0.967125
vt 0.432211 0.938992
vt 0.424080 0.838741
vt 0.432211 0.800769
vt 0.405715 0.838741
vt 0.397584 0.875803
vt 0.397584 0.800769
vt 0.405715 0.859141
vt 0.424080 0.859141
vt 0.424080 0.800769
vt 0.405715 0.800769
vt 0.405715 0.944276
vt 0.432211 0.695514
vt 0.808814 0.725735
vt 0.432211 0.725735
vt 0.432211 0.725735
vt 0.808814 0.695514
vt 0.432211 0.662546
vt 0.808814 0.662546
vt 0.397584 0.662546
vt 0.405715 0.630639
vt 0.405715 0.657261
vt 0.808814 0.634412
vt 0.432211 0.610601
vt 0.808814 0.610601
vt 0.397584 0.634412
vt 0.405715 0.602115
vt 0.424080 0.725735
vt 0.424080 0.690229
vt 0.424080 0.657261
vt 0.424080 0.630639
vt 0.424080 0.602115
vt 0.405715 0.690229
vt 0.405715 0.725735
vt 0.432211 0.634412
vt 0.424080 0.762796
vt 0.397584 0.725735
vt 0.405715 0.762796
vt 0.424080 0.742397
vt 0.405715 0.742397
vt 0.367407 0.875803
vt 0.100043 0.545431
vt 0.100043 0.545431
vt 0.367407 0.662546
vt 0.367407 0.634412
vt 0.221490 0.545431
vt 0.397584 0.610601
vt 0.367407 0.610601
vt 0.367407 0.938992
vt 0.367407 0.967125
vt 0.367407 0.990936
vt 0.221490 0.545431
vt 0.100043 0.000000
vt 0.221490 0.000000
vt 0.808814 0.875803
vt 0.808814 0.725735
vt 0.160767 0.000000
vt 0.367407 0.800769
vt 0.808814 0.800769
vt 0.160767 0.545431
vn -0.2320 0.9727 0.0000
vn 0.0000 1.0000 0.0000
vn 1.0000 0.0000 0.0000
vn 0.7710 0.1031 0.6284
vn 0.4904 0.4828 0.7255
vn -0.7255 0.4828 -0.4904
vn -0.3827 0.0000 -0.9239
vn -0.5535 0.8329 0.0000
vn -0.3997 0.6017 -0.6915
vn -0.7441 0.5764 -0.3378
vn -0.5152 0.7763 -0.3632
vn -0.8053 0.5928 0.0000
vn -0.9198 0.3923 0.0000
vn -0.6463 0.4198 -0.6372
vn -0.8774 0.3806 -0.2921
vn -0.7738 0.5427 -0.3266
vn -0.8691 0.3707 -0.3274
vn 0.0000 0.9727 -0.2320
vn -0.1572 0.9478 -0.2774
vn -0.5509 0.7934 -0.2587
vn -0.1481 0.7309 0.6662
vn 0.1124 0.9367 0.3315
vn -0.2344 0.9090 0.3446
vn -0.5152 0.7763 0.3632
vn -0.7441 0.5764 0.3378
vn -0.8774 0.3806 0.2921
vn -0.2344 0.9090 -0.3446
vn 0.1124 0.9367 -0.3315
vn -0.1481 0.7309 -0.6662
vn 0.4904 0.4828 -0.7255
vn -0.6463 0.4198 0.6372
vn -0.7266 0.3099 0.6133
vn -0.3997 0.6017 0.6915
vn 0.1702 0.8243 0.5400
vn 0.7710 0.1031 -0.6284
vn 0.1702 0.8243 -0.5400
vn 0.0000 0.5457 -0.8380
vn 0.3418 0.8582 0.3829
vn 0.3418 0.8582 -0.3829
vn 0.0000 0.5457 0.8380
vn 0.0000 0.8791 0.4766
vn 0.0000 0.8791 -0.4766
vn -0.2774 0.9478 -0.1572
vn 0.2320 0.9727 0.0000
vn -0.7710 0.1031 0.6284
vn -1.0000 0.0000 0.0000
vn -0.4904 0.4828 0.7255
vn 0.5535 0.8329 0.0000
vn 0.3997 0.6017 -0.6915
vn 0.7441 0.5764 -0.3378
vn 0.6463 0.4198 -0.6372
vn 0.9198 0.3923 0.0000
vn 0.8053 0.5928 0.0000
vn 0.8774 0.3806 -0.2921
vn 0.7266 0.3099 -0.6133
vn 0.7395 0.5840 0.3347
vn 0.8458 0.3608 0.3930
vn -0.0000 0.9727 0.2320
vn 0.0593 0.9829 0.1745
vn 0.5181 0.8214 0.2384
vn 0.1481 0.7309 0.6662
vn -0.1124 0.9367 0.3315
vn 0.5152 0.7763 -0.3632
vn 0.2344 0.9090 0.3446
vn 0.5152 0.7763 0.3632
vn 0.7441 0.5764 0.3378
vn 0.8774 0.3806 0.2921
vn 0.2344 0.9090 -0.3446
vn -0.1124 0.9367 -0.3315
vn 0.1481 0.7309 -0.6662
vn -0.4904 0.4828 -0.7255
vn 0.6463 0.4198 0.6372
vn 0.7266 0.3099 0.6133
vn 0.3997 0.6017 0.6915
vn -0.1702 0.8243 0.5400
vn -0.1702 0.8243 -0.5400
vn -0.7710 0.1031 -0.6284
vn -0.3418 0.8582 0.3829
vn -0.3418 0.8582 -0.3829
vn 0.1745 0.9829 0.0593
vn 0.6284 0.1031 0.7710
vn 0.0000 0.0000 1.0000
vn 0.7255 0.4828 0.4904
vn 0.0000 0.8329 -0.5535
vn -0.6915 0.6017 -0.3997
vn -0.3378 0.5764 -0.7441
vn -0.6372 0.4198 -0.6463
vn 0.0000 0.3923 -0.9198
vn 0.0000 0.5928 -0.8053
vn -0.2921 0.3806 -0.8774
vn -0.6133 0.3099 -0.7265
vn 0.6662 0.7309 -0.1481
vn 0.3315 0.9367 0.1124
vn 0.3632 0.7763 -0.5152
vn -0.3446 0.9090 -0.2344
vn 0.3446 0.9090 -0.2344
vn 0.3378 0.5764 -0.7441
vn 0.2921 0.3806 -0.8774
vn -0.3315 0.9367 0.1124
vn -0.6662 0.7309 -0.1481
vn -0.7255 0.4828 0.4904
vn 0.6372 0.4198 -0.6463
vn 0.6133 0.3099 -0.7266
vn 0.6915 0.6017 -0.3997
vn 0.5400 0.8243 0.1702
vn 0.8380 0.5457 0.0000
vn -0.5400 0.8243 0.1702
vn -0.6284 0.1031 0.7710
vn -0.8380 0.5457 0.0000
vn -0.3829 0.8582 0.3418
vn 0.3829 0.8582 0.3418
vn 0.4766 0.8791 0.0000
vn -0.4766 0.8791 -0.0000
vn -0.3632 0.7763 -0.5152
vn -0.0000 0.0000 -1.0000
vn 0.6284 0.1031 -0.7710
vn 0.7255 0.4828 -0.4904
vn 0.0000 0.8329 0.5535
vn -0.6915 0.6017 0.3997
vn -0.3378 0.5764 0.7441
vn -0.3632 0.7763 0.5152
vn -0.0000 0.5928 0.8053
vn -0.0000 0.3923 0.9198
vn -0.6372 0.4198 0.6463
vn -0.2921 0.3806 0.8774
vn 0.6662 0.7309 0.1481
vn 0.3315 0.9367 -0.1124
vn 0.3446 0.9090 0.2344
vn 0.3632 0.7763 0.5152
vn 0.3378 0.5764 0.7441
vn 0.2921 0.3806 0.8774
vn -0.3446 0.9090 0.2344
vn -0.3315 0.9367 -0.1124
vn -0.6662 0.7309 0.1481
vn 0.6372 0.4198 0.6463
vn 0.6133 0.3099 0.7266
vn 0.6915 0.6017 0.3997
vn 0.5400 0.8243 -0.1702
vn -0.6284 0.1031 -0.7710
vn -0.5400 0.8243 -0.1702
vn 0.3829 0.8582 -0.3418
vn -0.3829 0.8582 -0.3418
vn 0.3827 0.0000 0.9239
vn 0.9239 0.0000 0.3827
vn 0.2384 0.8214 0.5181
vn 0.3347 0.5840 0.7395
vn 0.3930 0.3608 0.8458
vn -0.2587 0.7934 -0.5509
vn -0.3266 0.5427 -0.7738
vn -0.3274 0.3707 -0.8691
vn -0.9239 0.0000 -0.3827
vn -0.7266 0.3099 -0.6133
vn -0.6133 0.3099 0.7266
usemtl Border
s 1
f 11/1/1 4/2/2 22/3/2
f 4/2/3 10/4/4 22/3/5
f 110/5/6 162/6/7 160/7/7
f 2/8/1 29/9/8 28/10/8
f 30/11/9 21/12/10 32/13/11
f 3/14/12 7/15/13 1/16/13
f 14/17/14 15/18/15 21/12/10
f 6/19/13 142/20/16 143/21/17
f 146/22/2 81/23/18 139/24/19
f 14/17/12 152/25/20 142/20/16
f 11/1/21 17/26/22 18/27/23
f 18/27/23 32/13/11 31/28/24
f 20/29/25 15/18/15 16/30/26
f 19/31/27 17/26/22 27/32/28
f 12/33/29 27/32/28 8/34/30
f 13/35/31 16/30/26 7/15/32
f 29/9/33 18/27/23 31/28/24
f 10/4/4 24/36/34 22/3/5
f 9/37/35 23/38/36 44/39/37
f 27/32/28 26/40/38 25/41/39
f 22/3/5 26/40/38 17/26/22
f 8/34/30 25/41/39 23/38/36
f 24/36/34 45/42/40 64/43/41
f 44/39/37 23/38/36 63/44/42
f 29/9/33 20/29/25 13/35/31
f 23/38/36 64/43/41 63/44/42
f 31/28/24 21/12/10 20/29/25
f 26/40/38 23/38/36 25/41/39
f 30/11/9 19/31/27 12/33/29
f 28/10/8 13/35/12 3/14/12
f 30/11/8 140/45/43 152/25/20
f 36/46/2 46/47/44 57/48/2
f 43/49/45 36/46/46 57/48/47
f 66/50/48 34/51/44 65/52/48
f 67/53/49 56/54/50 49/55/51
f 40/56/52 35/57/53 33/58/52
f 49/55/51 50/59/54 39/60/55
f 156/61/56 39/60/52 157/62/57
f 116/63/58 160/7/2 153/64/59
f 164/65/60 49/55/53 156/61/56
f 46/47/61 52/66/62 57/48/47
f 69/67/63 53/68/64 68/69/65
f 50/59/54 55/70/66 51/71/67
f 52/66/62 54/72/68 62/73/69
f 62/73/69 47/74/70 41/75/71
f 51/71/67 48/76/72 40/56/73
f 66/50/74 53/68/64 46/47/61
f 43/49/45 59/77/75 45/42/40
f 58/78/76 42/79/77 44/39/37
f 61/80/78 62/73/69 60/81/79
f 57/48/47 61/80/78 59/77/75
f 60/81/79 41/75/71 58/78/76
f 59/77/75 64/43/41 45/42/40
f 44/39/37 63/44/42 58/78/76
f 55/70/66 66/50/74 48/76/72
f 64/43/41 58/78/76 63/44/42
f 56/54/50 68/69/65 55/70/66
f 58/78/76 61/80/78 60/81/79
f 54/72/68 67/53/49 47/74/70
f 48/76/53 65/52/48 35/57/53
f 154/82/80 67/53/48 164/65/60
f 73/83/2 80/84/18 91/85/2
f 79/86/81 73/83/82 91/85/83
f 97/87/84 80/84/18 71/88/18
f 99/89/85 90/90/86 83/91/87
f 76/92/88 72/93/89 70/94/88
f 83/91/87 84/95/90 75/96/91
f 80/84/92 86/97/93 91/85/83
f 100/98/94 88/99/95 87/100/96
f 84/95/90 89/101/97 85/102/98
f 96/103/99 87/100/96 88/99/95
f 96/103/99 81/23/100 77/104/101
f 85/102/98 82/105/102 76/92/103
f 98/106/104 87/100/96 80/84/92
f 79/86/81 93/107/105 114/108/106
f 92/109/107 78/110/108 113/111/109
f 94/112/110 86/97/93 96/103/99
f 91/85/83 95/113/111 93/107/105
f 94/112/110 77/104/101 92/109/107
f 93/107/105 133/114/112 114/108/106
f 113/111/109 132/115/113 92/109/107
f 89/101/97 98/106/104 82/105/102
f 133/114/112 92/109/107 132/115/113
f 89/101/97 101/116/114 100/98/94
f 92/109/107 95/113/111 94/112/110
f 88/99/95 99/89/85 81/23/100
f 82/105/89 97/87/84 72/93/89
f 115/117/58 105/118/2 126/119/2
f 105/118/115 112/120/116 126/119/117
f 103/121/58 135/122/118 134/123/118
f 136/124/119 125/125/120 138/126/121
f 104/127/122 109/128/123 102/129/123
f 118/130/124 119/131/125 125/125/120
f 115/117/126 121/132/127 122/133/128
f 122/133/128 138/126/121 137/134/129
f 124/135/130 119/131/125 120/136/131
f 123/137/132 121/132/127 131/138/133
f 116/63/134 131/138/133 110/5/6
f 117/139/135 120/136/131 109/128/136
f 135/122/137 122/133/128 137/134/129
f 112/120/116 128/140/138 126/119/117
f 111/141/139 127/142/140 113/111/109
f 131/138/133 130/143/141 129/144/142
f 126/119/117 130/143/141 121/132/127
f 110/5/6 129/144/142 127/142/140
f 128/140/138 114/108/106 133/114/112
f 113/111/109 127/142/140 132/115/113
f 135/122/137 124/135/130 117/139/135
f 132/115/113 128/140/138 133/114/112
f 137/134/129 125/125/120 124/135/130
f 130/143/141 127/142/140 129/144/142
f 136/124/119 123/137/132 116/63/134
f 134/123/118 117/139/122 104/127/122
f 78/110/108 146/22/143 148/145/143
f 147/146/144 8/34/30 9/37/35
f 148/145/143 145/147/144 147/146/144
f 116/63/58 163/148/145 136/124/118
f 153/64/59 164/65/60 163/148/145
f 136/124/118 155/149/146 118/130/122
f 163/148/145 156/61/56 155/149/146
f 154/82/80 41/75/2 47/74/44
f 153/64/59 159/150/2 154/82/80
f 108/151/123 155/149/146 158/152/147
f 155/149/146 157/62/57 158/152/147
f 99/89/84 139/24/19 81/23/18
f 151/153/148 140/45/43 139/24/19
f 141/154/149 99/89/84 83/91/89
f 142/20/16 151/153/148 141/154/149
f 8/34/2 140/45/43 12/33/1
f 145/147/2 139/24/19 140/45/43
f 144/155/150 83/91/89 75/96/88
f 143/21/17 141/154/149 144/155/150
f 159/150/151 42/79/77 41/75/71
f 160/7/7 161/156/151 159/150/151
f 11/1/1 2/8/1 4/2/2
f 4/2/3 5/157/3 10/4/4
f 110/5/6 111/141/139 162/6/7
f 2/8/1 11/1/1 29/9/8
f 30/11/9 14/17/14 21/12/10
f 3/14/12 13/35/12 7/15/13
f 14/17/14 6/19/152 15/18/15
f 6/19/13 14/17/12 142/20/16
f 146/22/2 77/104/2 81/23/18
f 14/17/12 30/11/8 152/25/20
f 11/1/21 22/3/5 17/26/22
f 18/27/23 19/31/27 32/13/11
f 20/29/25 21/12/10 15/18/15
f 19/31/27 18/27/23 17/26/22
f 12/33/29 19/31/27 27/32/28
f 13/35/31 20/29/25 16/30/26
f 29/9/33 11/1/21 18/27/23
f 10/4/4 45/42/40 24/36/34
f 9/37/35 8/34/30 23/38/36
f 27/32/28 17/26/22 26/40/38
f 22/3/5 24/36/34 26/40/38
f 8/34/30 27/32/28 25/41/39
f 29/9/33 31/28/24 20/29/25
f 23/38/36 24/36/34 64/43/41
f 31/28/24 32/13/11 21/12/10
f 26/40/38 24/36/34 23/38/36
f 30/11/9 32/13/11 19/31/27
f 28/10/8 29/9/8 13/35/12
f 30/11/8 12/33/1 140/45/43
f 36/46/2 34/51/44 46/47/44
f 43/49/45 37/158/46 36/46/46
f 66/50/48 46/47/44 34/51/44
f 67/53/49 69/67/63 56/54/50
f 40/56/52 48/76/53 35/57/53
f 49/55/51 56/54/50 50/59/54
f 156/61/56 49/55/53 39/60/52
f 116/63/58 110/5/2 160/7/2
f 164/65/60 67/53/48 49/55/53
f 46/47/61 53/68/64 52/66/62
f 69/67/63 54/72/68 53/68/64
f 50/59/54 56/54/50 55/70/66
f 52/66/62 53/68/64 54/72/68
f 62/73/69 54/72/68 47/74/70
f 51/71/67 55/70/66 48/76/72
f 66/50/74 68/69/65 53/68/64
f 43/49/45 57/48/47 59/77/75
f 58/78/76 41/75/71 42/79/77
f 61/80/78 52/66/62 62/73/69
f 57/48/47 52/66/62 61/80/78
f 60/81/79 62/73/69 41/75/71
f 55/70/66 68/69/65 66/50/74
f 64/43/41 59/77/75 58/78/76
f 56/54/50 69/67/63 68/69/65
f 58/78/76 59/77/75 61/80/78
f 54/72/68 69/67/63 67/53/49
f 48/76/53 66/50/48 65/52/48
f 154/82/80 47/74/44 67/53/48
f 73/83/2 71/88/18 80/84/18
f 79/86/81 74/159/82 73/83/82
f 97/87/84 98/106/84 80/84/18
f 99/89/85 101/116/114 90/90/86
f 76/92/88 82/105/89 72/93/89
f 83/91/87 90/90/86 84/95/90
f 80/84/92 87/100/96 86/97/93
f 100/98/94 101/116/114 88/99/95
f 84/95/90 90/90/86 89/101/97
f 96/103/99 86/97/93 87/100/96
f 96/103/99 88/99/95 81/23/100
f 85/102/98 89/101/97 82/105/102
f 98/106/104 100/98/94 87/100/96
f 79/86/81 91/85/83 93/107/105
f 92/109/107 77/104/101 78/110/108
f 94/112/110 95/113/111 86/97/93
f 91/85/83 86/97/93 95/113/111
f 94/112/110 96/103/99 77/104/101
f 89/101/97 100/98/94 98/106/104
f 133/114/112 93/107/105 92/109/107
f 89/101/97 90/90/86 101/116/114
f 92/109/107 93/107/105 95/113/111
f 88/99/95 101/116/114 99/89/85
f 82/105/89 98/106/84 97/87/84
f 115/117/58 103/121/58 105/118/2
f 105/118/115 106/160/115 112/120/116
f 103/121/58 115/117/58 135/122/118
f 136/124/119 118/130/124 125/125/120
f 104/127/122 117/139/122 109/128/123
f 118/130/124 108/151/153 119/131/125
f 115/117/126 126/119/117 121/132/127
f 122/133/128 123/137/132 138/126/121
f 124/135/130 125/125/120 119/131/125
f 123/137/132 122/133/128 121/132/127
f 116/63/134 123/137/132 131/138/133
f 117/139/135 124/135/130 120/136/131
f 135/122/137 115/117/126 122/133/128
f 112/120/116 114/108/106 128/140/138
f 111/141/139 110/5/6 127/142/140
f 131/138/133 121/132/127 130/143/141
f 126/119/117 128/140/138 130/143/141
f 110/5/6 131/138/133 129/144/142
f 135/122/137 137/134/129 124/135/130
f 132/115/113 127/142/140 128/140/138
f 137/134/129 138/126/121 125/125/120
f 130/143/141 128/140/138 127/142/140
f 136/124/119 138/126/121 123/137/132
f 134/123/118 135/122/118 117/139/122
f 78/110/108 77/104/101 146/22/143
f 147/146/144 145/147/144 8/34/30
f 148/145/143 146/22/143 145/147/144
f 116/63/58 153/64/59 163/148/145
f 153/64/59 154/82/80 164/65/60
f 136/124/118 163/148/145 155/149/146
f 163/148/145 164/65/60 156/61/56
f 154/82/80 159/150/2 41/75/2
f 153/64/59 160/7/2 159/150/2
f 108/151/123 118/130/122 155/149/146
f 155/149/146 156/61/56 157/62/57
f 99/89/84 151/153/148 139/24/19
f 151/153/148 152/25/20 140/45/43
f 141/154/149 151/153/148 99/89/84
f 142/20/16 152/25/20 151/153/148
f 8/34/2 145/147/2 140/45/43
f 145/147/2 146/22/2 139/24/19
f 144/155/150 141/154/149 83/91/89
f 143/21/17 142/20/16 141/154/149
f 159/150/151 161/156/151 42/79/77
f 160/7/7 162/6/7 161/156/151
usemtl Light
f 10/4/2 38/161/2 45/42/2
f 150/162/2 78/110/2 148/145/2
f 38/161/2 43/49/2 45/42/2
f 162/6/2 113/111/2 150/162/2
f 107/163/2 79/86/2 114/108/2
f 112/120/2 107/163/2 114/108/2
f 161/156/2 44/39/2 42/79/2
f 162/6/2 149/164/2 161/156/2
f 149/164/2 9/37/2 44/39/2
f 150/162/2 147/146/2 149/164/2
f 10/4/2 5/157/2 38/161/2
f 150/162/2 113/111/2 78/110/2
f 38/161/2 37/158/2 43/49/2
f 162/6/2 111/141/2 113/111/2
f 107/163/2 74/159/2 79/86/2
f 112/120/2 106/160/2 107/163/2
f 161/156/2 149/164/2 44/39/2
f 162/6/2 150/162/2 149/164/2
f 149/164/2 147/146/2 9/37/2
f 150/162/2 148/145/2 147/146/2
