# Blender v2.81 (sub 16) OBJ File: 'ActivationStripStraight.blend'
# www.blender.org
mtllib ActivationStripCorner.mtl
o ActivationStripStraight_Cube.001
v -0.262885 0.240838 0.000000
v -0.415493 0.139426 0.000000
v -0.187405 0.240838 0.000000
v -0.187405 0.187153 0.000000
v -0.345226 0.199188 0.000000
v 0.262885 0.240838 0.000000
v 0.415493 0.139426 0.000000
v 0.187405 0.240838 0.000000
v 0.187405 0.187153 0.000000
v 0.000000 0.187153 0.000000
v 0.345226 0.199188 0.000000
v -0.474963 0.000000 0.000000
v -0.262885 -0.000000 -0.240838
v -0.415493 0.000000 -0.139426
v -0.187405 -0.000000 -0.240838
v -0.187405 -0.000000 -0.187153
v -0.345226 -0.000000 -0.199188
v 0.474963 0.000000 0.000000
v 0.262885 -0.000000 -0.240838
v 0.415493 0.000000 -0.139426
v 0.187405 -0.000000 -0.240838
v 0.187405 -0.000000 -0.187153
v 0.000000 -0.000000 -0.187153
v 0.345226 -0.000000 -0.199188
v -0.262885 0.120419 -0.208572
v -0.415493 0.069713 -0.120746
v -0.187405 0.120419 -0.208572
v -0.187405 0.093576 -0.162079
v -0.345226 0.099594 -0.172502
v 0.262885 0.120419 -0.208572
v 0.415493 0.069713 -0.120746
v 0.187405 0.120419 -0.208572
v 0.187405 0.093576 -0.162079
v 0.000000 0.093576 -0.162079
v 0.345226 0.099594 -0.172502
v -0.262885 0.208572 -0.120419
v -0.415493 0.120746 -0.069713
v -0.187405 0.208572 -0.120419
v -0.187405 0.162079 -0.093576
v -0.345226 0.172502 -0.099594
v 0.262885 0.208572 -0.120419
v 0.415493 0.120746 -0.069713
v 0.187405 0.208572 -0.120419
v 0.187405 0.162079 -0.093576
v 0.000000 0.162079 -0.093576
v 0.345226 0.172502 -0.099594
vt 0.941553 0.931467
vt 0.911717 0.977139
vt 0.920918 0.922696
vt 0.900574 0.923213
vt 0.880126 0.933125
vt 0.953428 0.898939
vt 0.924068 0.891907
vt 0.896345 0.892476
vt 0.866882 0.900951
vt 0.925497 0.862850
vt 0.959788 0.865019
vt 0.893992 0.863258
vt 0.859323 0.866693
vt 0.858458 0.837839
vt 0.894380 0.839915
vt 0.959967 0.836829
vt 0.925316 0.839054
vt 0.954072 0.817363
vt 0.894543 0.820949
vt 0.894380 0.660686
vt 0.864215 0.683166
vt 0.858458 0.662762
vt 0.925316 0.661546
vt 0.894543 0.679652
vt 0.954072 0.683238
vt 0.959967 0.663772
vt 0.925497 0.637750
vt 0.959788 0.635582
vt 0.893992 0.637343
vt 0.859323 0.633908
vt 0.866882 0.599650
vt 0.896345 0.608125
vt 0.953428 0.601662
vt 0.920918 0.577905
vt 0.941553 0.569134
vt 0.900574 0.577388
vt 0.924068 0.608693
vt 0.880126 0.567476
vt 0.911717 0.523462
vt 0.924576 0.822014
vt 0.864215 0.817435
vt 0.924576 0.678587
vt 0.863844 0.750300
vt 0.893756 0.750300
vt 0.954072 0.750300
vt 0.924370 0.750300
vn 0.7769 0.6082 -0.1630
vn 0.9278 0.2638 -0.2638
vn 0.7874 0.5339 -0.3082
vn 0.7874 0.3082 -0.5339
vn 0.7769 0.1630 -0.6082
vn 0.5314 0.8182 -0.2192
vn 0.5447 0.7263 -0.4193
vn 0.5447 0.4193 -0.7263
vn 0.5314 0.2192 -0.8182
vn 0.2238 0.8441 -0.4873
vn 0.2166 0.9430 -0.2527
vn 0.2238 0.4873 -0.8441
vn 0.2166 0.2527 -0.9430
vn 0.0000 0.2588 -0.9659
vn 0.0000 0.5000 -0.8660
vn 0.0000 0.9659 -0.2588
vn -1.0000 0.0000 0.0000
vn 1.0000 0.0000 0.0000
vn -0.2238 0.8441 -0.4873
vn -0.2166 0.9430 -0.2527
vn -0.2238 0.4873 -0.8441
vn -0.2166 0.2527 -0.9430
vn -0.5314 0.2192 -0.8182
vn -0.5447 0.4193 -0.7263
vn -0.5314 0.8182 -0.2192
vn -0.7874 0.5339 -0.3082
vn -0.7769 0.6082 -0.1630
vn -0.7874 0.3082 -0.5339
vn -0.5447 0.7263 -0.4193
vn -0.7769 0.1630 -0.6082
vn -0.9278 0.2638 -0.2638
vn 0.0000 0.8660 -0.5000
usemtl Border
s 1
f 7/1/1 18/2/2 42/3/3
f 18/2/2 31/4/4 42/3/3
f 18/2/2 20/5/5 31/4/4
f 11/6/6 42/3/3 46/7/7
f 46/7/7 31/4/4 35/8/8
f 35/8/8 20/5/5 24/9/9
f 11/6/6 41/10/10 6/11/11
f 30/12/12 46/7/7 35/8/8
f 30/12/12 24/9/9 19/13/13
f 21/14/14 30/12/12 19/13/13
f 32/15/15 41/10/10 30/12/12
f 41/10/10 8/16/16 6/11/11
f 43/17/17 9/18/17 8/16/17
f 33/19/17 43/17/17 32/15/17
f 21/14/17 33/19/17 32/15/17
f 27/20/18 16/21/18 15/22/18
f 38/23/18 28/24/18 27/20/18
f 4/25/18 38/23/18 3/26/18
f 3/26/16 36/27/19 1/28/20
f 36/27/19 27/20/15 25/29/21
f 25/29/21 15/22/14 13/30/22
f 17/31/23 25/29/21 13/30/22
f 29/32/24 36/27/19 25/29/21
f 36/27/19 5/33/25 1/28/20
f 5/33/25 37/34/26 2/35/27
f 26/36/28 40/37/29 29/32/24
f 14/38/30 29/32/24 17/31/23
f 14/38/30 12/39/31 26/36/28
f 26/36/28 12/39/31 37/34/26
f 2/35/27 37/34/26 12/39/31
f 11/6/6 7/1/1 42/3/3
f 46/7/7 42/3/3 31/4/4
f 35/8/8 31/4/4 20/5/5
f 11/6/6 46/7/7 41/10/10
f 30/12/12 41/10/10 46/7/7
f 30/12/12 35/8/8 24/9/9
f 21/14/14 32/15/15 30/12/12
f 32/15/15 43/17/32 41/10/10
f 41/10/10 43/17/32 8/16/16
f 43/17/17 44/40/17 9/18/17
f 33/19/17 44/40/17 43/17/17
f 21/14/17 22/41/17 33/19/17
f 27/20/18 28/24/18 16/21/18
f 38/23/18 39/42/18 28/24/18
f 4/25/18 39/42/18 38/23/18
f 3/26/16 38/23/32 36/27/19
f 36/27/19 38/23/32 27/20/15
f 25/29/21 27/20/15 15/22/14
f 17/31/23 29/32/24 25/29/21
f 29/32/24 40/37/29 36/27/19
f 36/27/19 40/37/29 5/33/25
f 5/33/25 40/37/29 37/34/26
f 26/36/28 37/34/26 40/37/29
f 14/38/30 26/36/28 29/32/24
usemtl Light
f 23/43/14 33/19/15 22/41/14
f 34/44/15 44/40/32 33/19/15
f 44/40/32 10/45/16 9/18/16
f 10/45/16 39/42/32 4/25/16
f 39/42/32 34/44/15 28/24/15
f 28/24/15 23/43/14 16/21/14
f 23/43/14 34/44/15 33/19/15
f 34/44/15 45/46/32 44/40/32
f 44/40/32 45/46/32 10/45/16
f 10/45/16 45/46/32 39/42/32
f 39/42/32 45/46/32 34/44/15
f 28/24/15 34/44/15 23/43/14
